<?xml version="1.0" standalone="no"?>
 <!DOCTYPE svg PUBLIC "-//W3C//DTD SVG 1.1//EN" 
 "http://www.w3.org/Graphics/SVG/1.1/DTD/svg11.dtd"> 
<svg xmlns="http://www.w3.org/2000/svg" version="1.1" 
    width="29.7002cm" height="21.0007cm" viewBox="0 0 116930 82680 ">
<title>SVG Picture created as center_gauges_backlight-F.Cu.svg date 2018/09/08 11:42:10 </title>
  <desc>Picture generated by PCBNEW </desc>
<g style="fill:#000000; fill-opacity:1;stroke:#000000; stroke-opacity:1;
stroke-linecap:round; stroke-linejoin:round; "
 transform="translate(0 0) scale(1 1)">
</g>
<g style="fill:#000000; fill-opacity:0.0; 
stroke:#000000; stroke-width:-0.000393701; stroke-opacity:1; 
stroke-linecap:round; stroke-linejoin:round;">
</g>
<g style="fill:#000000; fill-opacity:0.0; 
stroke:#000000; stroke-width:196.85; stroke-opacity:1; 
stroke-linecap:round; stroke-linejoin:round;">
<path d="M46750 12964
L45944 12374
" />
<path d="M19409 21439
L19386 21290
" />
<path d="M19437 21585
L19409 21439
" />
<path d="M45944 12374
L45106 11884
" />
<path d="M20942 11046
L19955 11217
" />
<path d="M19472 21730
L19437 21585
" />
<path d="M16503 12964
L15721 13650
" />
<path d="M19558 22012
L19512 21872
" />
<path d="M19512 21872
L19472 21730
" />
<path d="M15721 13650
L14955 14429
" />
<path d="M19026 11497
L18147 11884
" />
<path d="M42310 11046
L41256 10988
" />
<path d="M14955 14429
L16802 22012
" />
<path d="M16802 22012
L19558 22012
" />
<path d="M17309 12374
L16503 12964
" />
<path d="M18147 11884
L17309 12374
" />
<path d="M19955 11217
L19026 11497
" />
<path d="M47531 13650
L46750 12964
" />
<path d="M21997 10988
L20942 11046
" />
<path d="M41256 10988
L21997 10988
" />
<path d="M43298 11217
L42310 11046
" />
<path d="M44227 11497
L43298 11217
" />
<path d="M45106 11884
L44227 11497
" />
<path d="M36840 21872
L36799 21730
" />
<path d="M36886 22012
L36840 21872
" />
<path d="M30780 22012
L30778 19256
" />
<path d="M26328 21730
L26288 21872
" />
<path d="M26363 21585
L26328 21730
" />
<path d="M26414 21290
L26391 21438
" />
<path d="M25405 18326
L25838 18851
" />
<path d="M24881 17894
L25405 18326
" />
<path d="M26443 20832
L26440 20986
" />
<path d="M26371 20118
L26443 20832
" />
<path d="M25838 18851
L26165 19452
" />
<path d="M24279 17567
L24881 17894
" />
<path d="M26242 22012
L30780 22012
" />
<path d="M26440 20986
L26430 21139
" />
<path d="M26391 21438
L26363 21585
" />
<path d="M26430 21139
L26414 21290
" />
<path d="M30778 19256
L32353 19256
" />
<path d="M32355 22012
L36886 22012
" />
<path d="M32353 19256
L32355 22012
" />
<path d="M23614 17360
L24279 17567
" />
<path d="M22900 17288
L23614 17360
" />
<path d="M26165 19452
L26371 20118
" />
<path d="M26288 21872
L26242 22012
" />
<path d="M36687 20985
L36684 20831
" />
<path d="M39513 17359
L40227 17287
" />
<path d="M37289 18850
L37722 18325
" />
<path d="M36684 20831
L36756 20117
" />
<path d="M36697 21138
L36687 20985
" />
<path d="M36736 21438
L36713 21289
" />
<path d="M36765 21585
L36736 21438
" />
<path d="M36799 21730
L36765 21585
" />
<path d="M42208 17893
L42733 18325
" />
<path d="M36713 21289
L36697 21138
" />
<path d="M43771 20831
L43767 20985
" />
<path d="M41606 17566
L42208 17893
" />
<path d="M43699 20117
L43771 20831
" />
<path d="M43492 19452
L43699 20117
" />
<path d="M38848 17566
L39513 17359
" />
<path d="M36756 20117
L36962 19452
" />
<path d="M43165 18850
L43492 19452
" />
<path d="M42733 18325
L43165 18850
" />
<path d="M38246 17893
L38848 17566
" />
<path d="M37722 18325
L38246 17893
" />
<path d="M40941 17359
L41606 17566
" />
<path d="M40227 17287
L40941 17359
" />
<path d="M36962 19452
L37289 18850
" />
<path d="M43655 21730
L43615 21872
" />
<path d="M43757 21138
L43741 21289
" />
<path d="M43719 21438
L43690 21585
" />
<path d="M43569 22012
L43569 22012
" />
<path d="M43767 20985
L43757 21138
" />
<path d="M43741 21289
L43719 21438
" />
<path d="M43615 21872
L43569 22012
" />
<path d="M43690 21585
L43655 21730
" />
<path d="M43569 22012
L46330 22012
" />
<path d="M48298 14429
L47531 13650
" />
<path d="M46330 22012
L48298 14429
" />
<path d="M20394 18326
L20919 17894
" />
<path d="M19962 18851
L20394 18326
" />
<path d="M19360 20986
L19357 20832
" />
<path d="M19386 21290
L19370 21139
" />
<path d="M19357 20832
L19429 20118
" />
<path d="M22186 17360
L22900 17288
" />
<path d="M19370 21139
L19360 20986
" />
<path d="M19635 19452
L19962 18851
" />
<path d="M21521 17567
L22186 17360
" />
<path d="M20919 17894
L21521 17567
" />
<path d="M19429 20118
L19635 19452
" />
<path d="M46763 12940
L45957 12350
" />
<path d="M19040 11473
L18161 11860
" />
<path d="M19969 11193
L19040 11473
" />
<path d="M22010 10964
L20956 11022
" />
<path d="M41270 10964
L22010 10964
" />
<path d="M43311 11193
L42324 11022
" />
<path d="M45119 11860
L44240 11473
" />
<path d="M42324 11022
L41270 10964
" />
<path d="M20956 11022
L19969 11193
" />
<path d="M45957 12350
L45119 11860
" />
<path d="M44240 11473
L43311 11193
" />
<path d="M19451 21561
L19422 21414
" />
<path d="M17322 12350
L16517 12940
" />
<path d="M19485 21706
L19451 21561
" />
<path d="M19526 21848
L19485 21706
" />
<path d="M16816 21988
L19572 21988
" />
<path d="M18161 11860
L17322 12350
" />
<path d="M16517 12940
L15735 13626
" />
<path d="M19572 21988
L19526 21848
" />
<path d="M14968 14405
L16816 21988
" />
<path d="M15735 13626
L14968 14405
" />
<path d="M19422 21414
L19400 21266
" />
<path d="M20408 18302
L20932 17869
" />
<path d="M19975 18827
L20408 18302
" />
<path d="M22199 17336
L22913 17264
" />
<path d="M21534 17543
L22199 17336
" />
<path d="M20932 17869
L21534 17543
" />
<path d="M19649 19428
L19975 18827
" />
<path d="M19400 21266
L19383 21115
" />
<path d="M19370 20808
L19442 20094
" />
<path d="M19383 21115
L19373 20962
" />
<path d="M19373 20962
L19370 20808
" />
<path d="M19442 20094
L19649 19428
" />
<path d="M26453 20962
L26444 21115
" />
<path d="M26457 20808
L26453 20962
" />
<path d="M26178 19428
L26385 20094
" />
<path d="M23628 17336
L24293 17543
" />
<path d="M26385 20094
L26457 20808
" />
<path d="M25852 18827
L26178 19428
" />
<path d="M25419 18302
L25852 18827
" />
<path d="M24895 17869
L25419 18302
" />
<path d="M22913 17264
L23628 17336
" />
<path d="M24293 17543
L24895 17869
" />
<path d="M26444 21115
L26427 21266
" />
<path d="M43582 21988
L46343 21988
" />
<path d="M47545 13626
L46763 12940
" />
<path d="M48312 14405
L47545 13626
" />
<path d="M46343 21988
L48312 14405
" />
<path d="M26342 21706
L26301 21848
" />
<path d="M26376 21561
L26342 21706
" />
<path d="M32367 19232
L32369 21988
" />
<path d="M30793 21988
L30792 19232
" />
<path d="M26255 21988
L30793 21988
" />
<path d="M26405 21414
L26376 21561
" />
<path d="M30792 19232
L32367 19232
" />
<path d="M26301 21848
L26255 21988
" />
<path d="M32369 21988
L36899 21988
" />
<path d="M26427 21266
L26405 21414
" />
<path d="M36899 21988
L36853 21848
" />
<path d="M36769 20093
L36976 19427
" />
<path d="M36697 20807
L36769 20093
" />
<path d="M36701 20961
L36697 20807
" />
<path d="M36727 21265
L36711 21114
" />
<path d="M36749 21414
L36727 21265
" />
<path d="M36778 21561
L36749 21414
" />
<path d="M37303 18826
L37735 18301
" />
<path d="M36813 21705
L36778 21561
" />
<path d="M36711 21114
L36701 20961
" />
<path d="M36853 21848
L36813 21705
" />
<path d="M36976 19427
L37303 18826
" />
<path d="M37735 18301
L38260 17868
" />
<path d="M42746 18301
L43179 18826
" />
<path d="M42222 17868
L42746 18301
" />
<path d="M38862 17542
L39527 17335
" />
<path d="M39527 17335
L40241 17263
" />
<path d="M43506 19427
L43712 20093
" />
<path d="M41620 17542
L42222 17868
" />
<path d="M43179 18826
L43506 19427
" />
<path d="M38260 17868
L38862 17542
" />
<path d="M40955 17335
L41620 17542
" />
<path d="M40241 17263
L40955 17335
" />
<path d="M43755 21265
L43732 21414
" />
<path d="M43628 21848
L43582 21988
" />
<path d="M43703 21561
L43669 21706
" />
<path d="M43712 20093
L43784 20807
" />
<path d="M43732 21414
L43703 21561
" />
<path d="M43669 21706
L43628 21848
" />
<path d="M43781 20961
L43771 21114
" />
<path d="M43771 21114
L43755 21265
" />
<path d="M43784 20807
L43781 20961
" />
<path d="M43582 21988
L43582 21988
" />
</g>
<g style="fill:#000000; fill-opacity:0.0; 
stroke:#000000; stroke-width:0; stroke-opacity:1; 
stroke-linecap:round; stroke-linejoin:round;">
</g>
<g style="fill:#000000; fill-opacity:1.0; 
stroke:#000000; stroke-width:0; stroke-opacity:1; 
stroke-linecap:round; stroke-linejoin:round;">
<polyline style="fill-rule:evenodd;"
points="22401,13748
22401,12685
23405,12685
23405,13748
22401,13748
" /> 
<polyline style="fill-rule:evenodd;"
points="19901,13748
19901,12685
20905,12685
20905,13748
19901,13748
" /> 
<polyline style="fill-rule:evenodd;"
points="45827,18796
45833,18797
45840,18798
46661,19019
46667,19021
46673,19023
46679,19026
46685,19030
46690,19034
46694,19039
46698,19044
46702,19050
46705,19056
46707,19062
46709,19068
46710,19075
46711,19081
46711,19088
46710,19094
46708,19101
46570,19618
46568,19624
46565,19630
46562,19636
46558,19641
46554,19646
46549,19651
46544,19655
46539,19658
46533,19661
46527,19664
46520,19666
46514,19667
46507,19667
46501,19667
46494,19666
46488,19665
45667,19445
45660,19443
45654,19440
45648,19437
45643,19433
45638,19429
45634,19424
45629,19419
45626,19414
45623,19408
45620,19402
45619,19396
45617,19389
45617,19383
45617,19376
45618,19369
45619,19363
45758,18846
45760,18840
45762,18834
45766,18828
45769,18822
45774,18817
45778,18813
45783,18809
45789,18805
45795,18802
45801,18800
45807,18798
45814,18797
45820,18796
45827,18796
" /> 
<polyline style="fill-rule:evenodd;"
points="45568,19762
45574,19763
45581,19764
46402,19985
46409,19987
46415,19989
46420,19992
46426,19996
46431,20000
46435,20005
46439,20010
46443,20016
46446,20022
46448,20028
46450,20034
46451,20040
46452,20047
46452,20054
46451,20060
46450,20066
46311,20584
46309,20590
46306,20596
46303,20602
46300,20607
46295,20612
46291,20617
46285,20621
46280,20624
46274,20627
46268,20630
46262,20632
46255,20633
46249,20633
46242,20633
46236,20632
46229,20631
45408,20411
45401,20409
45395,20406
45390,20403
45384,20399
45379,20395
45375,20390
45371,20385
45367,20380
45364,20374
45362,20368
45360,20361
45359,20355
45358,20348
45358,20342
45359,20335
45360,20329
45499,19812
45501,19805
45504,19799
45507,19794
45510,19788
45515,19783
45519,19779
45525,19775
45530,19771
45536,19768
45542,19766
45548,19764
45555,19763
45561,19762
45568,19762
" /> 
<polyline style="fill-rule:evenodd;"
points="45309,20728
45316,20729
45322,20730
46144,20950
46150,20952
46156,20955
46162,20958
46167,20962
46172,20966
46177,20971
46181,20976
46184,20982
46187,20987
46190,20994
46191,21000
46193,21006
46193,21013
46193,21019
46192,21026
46191,21032
46052,21550
46050,21556
46048,21562
46044,21568
46041,21573
46036,21578
46032,21583
46027,21587
46021,21590
46015,21593
46009,21596
46003,21597
45996,21599
45990,21599
45983,21599
45977,21598
45970,21597
45149,21377
45143,21375
45137,21372
45131,21369
45125,21365
45120,21361
45116,21356
45112,21351
45108,21346
45105,21340
45103,21334
45101,21327
45100,21321
45099,21314
45099,21308
45100,21301
45102,21295
45240,20778
45242,20771
45245,20765
45248,20760
45252,20754
45256,20749
45261,20745
45266,20741
45271,20737
45277,20734
45283,20732
45290,20730
45296,20729
45303,20728
45309,20728
" /> 
<polyline style="fill-rule:evenodd;"
points="17912,20727
17918,20728
17924,20730
17931,20733
17936,20736
17942,20739
17947,20743
17952,20748
17956,20753
17960,20758
17963,20764
17966,20770
17968,20776
18106,21293
18108,21300
18108,21306
18108,21313
18108,21320
18107,21326
18105,21332
18102,21338
18099,21344
18096,21350
18092,21355
18087,21360
18082,21364
18077,21368
18071,21371
18065,21373
18059,21375
17237,21596
17231,21597
17224,21598
17218,21598
17211,21597
17205,21596
17199,21594
17192,21592
17187,21589
17181,21585
17176,21581
17171,21577
17167,21572
17163,21566
17160,21561
17157,21554
17155,21548
17017,21031
17015,21025
17015,21018
17015,21012
17015,21005
17016,20999
17018,20992
17021,20986
17024,20980
17027,20975
17031,20970
17036,20965
17041,20961
17046,20957
17052,20954
17058,20951
17064,20949
17886,20729
17892,20728
17899,20727
17905,20727
17912,20727
" /> 
<polyline style="fill-rule:evenodd;"
points="17653,19761
17659,19763
17666,19764
17672,19767
17678,19770
17683,19773
17688,19777
17693,19782
17697,19787
17701,19792
17704,19798
17707,19804
17709,19810
17847,20328
17849,20334
17849,20341
17850,20347
17849,20354
17848,20360
17846,20366
17844,20373
17841,20378
17837,20384
17833,20389
17828,20394
17823,20398
17818,20402
17812,20405
17806,20408
17800,20410
16979,20630
16972,20631
16966,20632
16959,20632
16952,20631
16946,20630
16940,20628
16934,20626
16928,20623
16922,20619
16917,20615
16912,20611
16908,20606
16904,20600
16901,20595
16899,20589
16897,20582
16758,20065
16757,20059
16756,20052
16756,20046
16756,20039
16757,20033
16759,20026
16762,20020
16765,20014
16768,20009
16772,20004
16777,19999
16782,19995
16787,19991
16793,19988
16799,19985
16805,19983
17627,19763
17633,19762
17640,19761
17646,19761
17653,19761
" /> 
<polyline style="fill-rule:evenodd;"
points="17394,18795
17400,18797
17407,18798
17413,18801
17419,18804
17424,18807
17429,18811
17434,18816
17438,18821
17442,18826
17445,18832
17448,18838
17450,18844
17588,19362
17590,19368
17591,19375
17591,19381
17590,19388
17589,19394
17587,19400
17585,19407
17582,19412
17578,19418
17574,19423
17570,19428
17565,19432
17559,19436
17553,19439
17547,19442
17541,19444
16720,19664
16713,19665
16707,19666
16700,19666
16694,19665
16687,19664
16681,19662
16675,19660
16669,19657
16663,19653
16658,19649
16654,19645
16649,19640
16646,19634
16642,19629
16640,19623
16638,19616
16499,19099
16498,19093
16497,19086
16497,19080
16497,19073
16499,19067
16500,19060
16503,19054
16506,19048
16509,19043
16514,19038
16518,19033
16523,19029
16528,19025
16534,19022
16540,19019
16547,19017
17368,18797
17374,18796
17381,18795
17387,18795
17394,18795
" /> 
<polyline style="fill-rule:evenodd;"
points="44428,15284
44039,15673
43454,15089
43844,14699
44428,15284
" /> 
<polyline style="fill-rule:evenodd;"
points="43538,16174
43148,16564
42563,15980
42953,15590
43538,16174
" /> 
<polyline style="fill-rule:evenodd;"
points="45959,16815
45570,17204
44985,16620
45375,16230
45959,16815
" /> 
<polyline style="fill-rule:evenodd;"
points="45069,17706
44679,18095
44094,17511
44484,17121
45069,17706
" /> 
<polyline style="fill-rule:evenodd;"
points="37499,15590
37889,15980
37304,16564
36914,16174
37499,15590
" /> 
<polyline style="fill-rule:evenodd;"
points="36608,14699
36998,15089
36413,15673
36023,15284
36608,14699
" /> 
<polyline style="fill-rule:evenodd;"
points="35968,17121
36357,17511
35773,18095
35383,17706
35968,17121
" /> 
<polyline style="fill-rule:evenodd;"
points="35077,16230
35467,16620
34882,17204
34492,16815
35077,16230
" /> 
<polyline style="fill-rule:evenodd;"
points="27106,15284
26716,15673
26131,15089
26521,14699
27106,15284
" /> 
<polyline style="fill-rule:evenodd;"
points="26215,16174
25825,16564
25240,15980
25630,15590
26215,16174
" /> 
<polyline style="fill-rule:evenodd;"
points="28637,16815
28247,17204
27662,16620
28052,16230
28637,16815
" /> 
<polyline style="fill-rule:evenodd;"
points="27746,17706
27356,18095
26771,17511
27161,17121
27746,17706
" /> 
<polyline style="fill-rule:evenodd;"
points="20176,15590
20566,15980
19981,16564
19591,16174
20176,15590
" /> 
<polyline style="fill-rule:evenodd;"
points="19285,14699
19675,15089
19090,15673
18701,15284
19285,14699
" /> 
<polyline style="fill-rule:evenodd;"
points="18645,17121
19035,17511
18450,18095
18060,17706
18645,17121
" /> 
<polyline style="fill-rule:evenodd;"
points="17754,16230
18144,16620
17559,17204
17169,16815
17754,16230
" /> 
<polyline style="fill-rule:evenodd;"
points="29945,15012
29500,15457
28943,14900
29388,14455
29945,15012
" /> 
<polyline style="fill-rule:evenodd;"
points="28832,13898
28386,14343
27829,13787
28275,13341
28832,13898
" /> 
<polyline style="fill-rule:evenodd;"
points="17846,13637
18292,14082
17735,14639
17289,14193
17846,13637
" /> 
<polyline style="fill-rule:evenodd;"
points="16733,14750
17178,15195
16621,15752
16176,15307
16733,14750
" /> 
<polyline style="fill-rule:evenodd;"
points="47051,15317
46606,15762
46049,15205
46495,14760
47051,15317
" /> 
<polyline style="fill-rule:evenodd;"
points="45938,14203
45492,14649
44936,14092
45381,13646
45938,14203
" /> 
<polyline style="fill-rule:evenodd;"
points="34923,13302
35368,13747
34812,14304
34366,13859
34923,13302
" /> 
<polyline style="fill-rule:evenodd;"
points="33809,14415
34255,14861
33698,15418
33253,14972
33809,14415
" /> 
</g>
<g style="fill:#000000; fill-opacity:1.0; 
stroke:#000000; stroke-width:500; stroke-opacity:1; 
stroke-linecap:round; stroke-linejoin:round;">
</g>
<g style="fill:#000000; fill-opacity:0.0; 
stroke:#000000; stroke-width:500; stroke-opacity:1; 
stroke-linecap:round; stroke-linejoin:round;">
<path d="M25787 17883
L26269 18415
" />
<path d="M24566 17057
L25196 17401
" />
<path d="M23789 16801
L24566 17057
" />
<path d="M22125 16791
L22913 16712
" />
<path d="M21279 17066
L22125 16791
" />
<path d="M22913 16712
L23789 16801
" />
<path d="M18799 20816
L18927 19852
" />
<path d="M17561 21162
L18799 20816
" />
<path d="M18927 19852
L19183 19153
" />
<path d="M19183 19153
L19557 18464
" />
<path d="M25196 17401
L25787 17883
" />
<path d="M19557 18464
L20068 17874
" />
<path d="M20068 17874
L20649 17401
" />
<path d="M20925 17255
L21279 17066
" />
<path d="M20649 17401
L20925 17255
" />
<path d="M20679 16692
L20068 16072
" />
<path d="M20925 17255
L20679 16692
" />
<path d="M26643 18188
L27244 17598
" />
<path d="M26269 18415
L26643 18188
" />
<path d="M43966 19064
L44173 19616
" />
<path d="M43356 18110
L43661 18513
" />
<path d="M42992 17716
L43356 18110
" />
<path d="M42381 17263
L42992 17716
" />
<path d="M41131 16761
L41820 16978
" />
<path d="M33090 18651
L33366 19488
" />
<path d="M30127 18651
L33090 18651
" />
<path d="M29921 19389
L30127 18651
" />
<path d="M26771 19389
L29921 19389
" />
<path d="M26269 18415
L26604 18986
" />
<path d="M44370 20816
L45646 21164
" />
<path d="M33366 19488
L36328 19498
" />
<path d="M41820 16978
L42381 17263
" />
<path d="M26604 18986
L26771 19389
" />
<path d="M37736 17509
L38169 17214
" />
<path d="M44301 20226
L44370 20816
" />
<path d="M36328 19498
L36564 18966
" />
<path d="M36564 18966
L36781 18543
" />
<path d="M36781 18543
L37263 17942
" />
<path d="M37263 17942
L37736 17509
" />
<path d="M38169 17214
L38828 16909
" />
<path d="M44173 19616
L44301 20226
" />
<path d="M38828 16909
L39616 16702
" />
<path d="M43661 18513
L43966 19064
" />
<path d="M39616 16702
L40383 16663
" />
<path d="M40383 16663
L41131 16761
" />
<path d="M37992 16653
L37421 16092
" />
<path d="M38169 17214
L37992 16653
" />
<path d="M43661 18513
L44586 17598
" />
</g>
<g style="fill:#000000; fill-opacity:0.0; 
stroke:#000000; stroke-width:300; stroke-opacity:1; 
stroke-linecap:round; stroke-linejoin:round;">
<path d="M20009 16147
L19635 16515
" />
<path d="M19635 16515
L19133 16594
" />
<path d="M19133 16594
L17962 15452
" />
<path d="M17962 15452
L17791 14138
" />
<path d="M28395 15108
L29444 14956
" />
<path d="M26771 16692
L28395 15108
" />
<path d="M27189 17539
L26771 17096
" />
<path d="M26771 17096
L26771 16692
" />
<path d="M37332 16147
L36978 16515
" />
<path d="M36978 16515
L36515 16594
" />
<path d="M36515 16594
L35039 15059
" />
<path d="M35039 15059
L34867 13803
" />
<path d="M45425 15381
L46550 15261
" />
<path d="M44133 16633
L45425 15381
" />
<path d="M44512 17539
L44133 17145
" />
<path d="M44133 17145
L44133 16633
" />
<path d="M19596 13198
L20561 13198
" />
<path d="M17791 14138
L18444 13513
" />
<path d="M18444 13513
L19596 13198
" />
<path d="M18976 18021
L18562 17637
" />
<path d="M18700 18464
L18976 18021
" />
<path d="M18494 18838
L18700 18464
" />
<path d="M17303 20196
L18139 19970
" />
<path d="M18139 19970
L18494 18838
" />
<path d="M24271 14616
L25797 16147
" />
<path d="M19118 15256
L19783 14616
" />
<path d="M19783 14616
L24271 14616
" />
<path d="M35275 18157
L35940 17539
" />
<path d="M34685 18157
L35275 18157
" />
<path d="M33661 17314
L34685 18157
" />
<path d="M28842 17314
L33661 17314
" />
<path d="M28080 16648
L28618 17177
" />
<path d="M28618 17177
L28842 17314
" />
<path d="M41515 14444
L43120 16147
" />
<path d="M36441 15256
L37263 14440
" />
<path d="M37263 14440
L41515 14444
" />
<path d="M45787 17017
L45433 16673
" />
<path d="M45905 17381
L45787 17017
" />
<path d="M45029 18277
L45905 17381
" />
<path d="M44507 18809
L45029 18277
" />
<path d="M45905 20198
L44980 19970
" />
<path d="M44980 19970
L44507 18809
" />
</g>
<g style="fill:#000000; fill-opacity:1.0; 
stroke:#000000; stroke-width:100; stroke-opacity:1; 
stroke-linecap:round; stroke-linejoin:round;">
<polyline style="fill-rule:evenodd;"
points="42271,11393
43217,11556
44106,11825
44947,12195
45753,12666
46531,13236
47292,13903
47911,14533
46804,18798
46569,18735
46492,18779
46400,19122
46408,19124
46321,19447
46314,19445
46303,19484
45917,19381
45927,19342
45464,19218
45388,19262
45367,19339
45354,19387
45353,19395
45159,19349
44977,18901
45059,18818
45506,18818
45551,18894
46014,19018
46106,18676
46062,18599
45816,18533
45767,18530
45718,18537
45671,18552
45629,18577
45592,18609
45562,18649
45540,18693
45527,18740
45506,18818
45059,18818
45301,18571
45301,18571
45315,18557
45328,18543
45328,18543
46165,17688
46166,17687
46192,17660
46205,17647
46206,17646
46221,17630
46230,17615
46242,17601
46252,17582
46263,17564
46270,17547
46278,17531
46284,17511
46292,17491
46295,17473
46300,17455
46302,17434
46306,17413
46305,17395
46307,17377
46305,17356
46304,17334
46300,17317
46298,17299
46292,17278
46292,17277
46286,17259
46275,17223
46274,17222
46180,16933
46192,16911
46206,16864
46211,16815
46206,16766
46192,16719
46168,16675
46137,16637
45552,16052
45519,16025
45516,16021
45433,15931
45604,15764
46190,15702
46428,15940
46466,15971
46510,15994
46557,16008
46606,16013
46655,16008
46702,15994
46746,15971
46784,15940
47229,15494
47260,15456
47284,15413
47298,15366
47303,15317
47298,15268
47284,15221
47260,15177
47229,15139
46672,14582
46634,14551
46591,14528
46544,14514
46495,14509
46446,14514
46399,14528
46355,14551
46317,14582
45980,14920
45387,14983
45352,14986
45329,14993
45305,14998
45291,15004
45277,15008
45255,15019
45232,15029
45220,15037
45207,15044
45187,15059
45167,15073
45143,15098
44880,15352
44624,15113
44603,15101
44599,15100
44461,14963
44372,14963
44142,15193
44148,15198
43953,15393
43948,15387
43936,15399
43728,15192
43740,15180
43419,14859
43330,14859
43260,14929
43246,14950
42541,14950
42189,14575
43614,14575
43614,14664
43935,14985
44165,14755
44165,14666
44036,14538
45117,14538
45117,14626
45333,14843
45374,14870
45420,14889
45468,14899
45517,14899
45565,14889
45611,14870
45652,14843
45812,14682
45812,14594
45437,14218
45117,14538
44036,14538
44003,14505
43962,14477
43917,14459
43868,14449
43819,14449
43771,14459
43725,14477
43684,14505
43614,14575
42189,14575
41816,14180
41800,14160
41774,14139
41748,14117
41743,14114
41739,14110
41709,14094
41680,14078
41674,14076
41669,14073
41650,14067
44686,14067
44686,14116
44695,14165
44714,14210
44742,14251
44958,14467
45046,14467
45366,14147
45508,14147
45883,14523
45972,14523
46132,14362
46159,14322
46178,14276
46188,14228
46188,14179
46178,14130
46159,14085
46132,14044
45916,13828
45827,13828
45508,14147
45366,14147
44990,13772
44902,13772
44742,13932
44714,13973
44695,14019
44686,14067
41650,14067
41637,14063
41605,14053
41600,14052
41594,14050
41561,14047
41527,14043
41502,14044
37284,14040
37265,14039
37245,14040
37244,14040
37225,14042
37187,14046
37186,14046
37185,14046
37148,14057
37111,14068
37110,14069
37110,14069
37076,14087
37041,14105
37041,14106
37040,14106
37010,14131
36996,14143
36995,14143
36979,14156
36967,14171
36677,14459
36657,14453
36608,14448
36559,14453
36512,14467
36468,14490
36430,14521
35901,15051
35898,15052
35881,15063
35737,15207
35418,14875
35319,14152
35546,13925
35577,13887
35600,13843
35615,13796
35620,13747
35615,13698
35600,13651
35580,13613
45061,13613
45061,13701
45437,14077
45757,13757
45757,13668
45541,13452
45500,13425
45454,13406
45406,13396
45357,13396
45308,13406
45263,13425
45222,13452
45061,13613
35580,13613
35577,13608
35546,13570
35101,13124
35063,13093
35019,13070
34972,13055
34923,13051
34874,13055
34827,13070
34783,13093
34745,13124
34189,13681
34157,13719
34134,13763
34120,13810
34115,13859
34120,13908
34134,13955
34157,13998
34189,14036
34544,14392
34641,15101
34643,15129
34652,15159
34659,15190
34662,15197
34665,15205
34679,15233
34692,15261
34697,15268
34700,15275
34720,15300
34738,15325
34758,15344
35163,15765
34864,16064
34853,16080
34850,16100
34850,16103
34756,16198
34756,16286
34986,16516
34991,16510
35186,16705
35181,16711
35193,16723
34985,16931
34973,16919
34652,17240
34652,17328
34711,17387
34559,17536
33945,17030
33945,17030
33915,17005
33900,16993
33900,16993
33884,16980
33867,16971
33851,16960
33832,16953
33815,16943
33796,16937
33778,16930
33759,16926
33739,16920
33720,16918
33701,16915
33681,16914
33681,16914
33661,16914
33622,16914
33622,16914
28955,16914
28881,16869
28883,16864
28888,16815
28885,16790
34242,16790
34242,16839
34252,16888
34271,16933
34298,16974
34369,17045
34457,17045
34778,16724
34548,16494
34460,16494
34298,16655
34271,16696
34252,16742
34242,16790
28885,16790
28883,16766
28869,16719
28846,16675
28814,16637
28230,16052
28204,16032
28203,16030
28111,15944
28581,15485
29098,15410
29322,15635
29360,15666
29404,15689
29451,15703
29500,15708
29549,15703
29596,15689
29639,15666
29677,15635
29949,15363
33378,15363
33378,15451
33539,15612
33580,15639
33625,15658
33673,15668
33723,15668
33771,15658
33816,15639
33857,15612
34074,15396
34074,15307
33754,14987
33378,15363
29949,15363
30123,15189
30154,15151
30177,15108
30192,15061
30196,15012
30192,14963
30187,14948
33003,14948
33003,14997
33012,15045
33031,15091
33058,15132
33219,15292
33307,15292
33683,14917
33824,14917
34144,15236
34233,15236
34449,15020
34476,14979
34495,14934
34505,14885
34505,14836
34495,14788
34476,14742
34449,14701
34288,14541
34200,14541
33824,14917
33683,14917
33363,14597
33275,14597
33058,14813
33031,14854
33012,14899
33003,14948
30187,14948
30177,14915
30154,14872
30123,14834
29726,14437
33434,14437
33434,14526
33754,14846
34129,14470
34129,14382
33969,14221
33928,14194
33882,14175
33834,14165
33785,14165
33737,14175
33691,14194
33650,14221
33434,14437
29726,14437
29566,14277
29528,14246
29485,14223
29437,14208
29388,14204
29339,14208
29292,14223
29249,14246
29211,14277
28850,14638
28349,14710
28322,14713
28291,14721
28261,14729
28254,14732
28246,14735
28218,14749
28190,14762
28183,14767
28176,14771
28152,14790
28126,14809
28108,14830
27508,15414
27356,15261
27356,15259
27346,15211
27327,15165
27300,15124
27138,14963
27050,14963
26820,15193
26825,15198
26630,15393
26625,15387
26613,15399
26405,15192
26417,15180
26096,14859
26008,14859
25937,14929
25923,14950
25169,14950
24796,14575
26291,14575
26291,14664
26612,14985
26842,14755
26842,14666
26680,14505
26639,14477
26594,14459
26546,14449
26496,14449
26448,14459
26402,14477
26362,14505
26291,14575
24796,14575
24568,14347
24555,14331
24525,14306
24495,14282
24495,14282
24494,14281
24460,14263
24426,14245
24425,14244
24425,14244
24388,14233
28011,14233
28011,14321
28227,14538
28268,14565
28313,14584
28362,14593
28411,14593
28459,14584
28505,14565
28546,14538
28706,14377
28706,14289
28331,13913
28011,14233
24388,14233
24387,14233
24350,14222
24350,14222
24350,14221
24311,14218
24272,14214
24252,14216
19833,14216
19833,13988
19852,13994
19901,13999
20905,13999
20954,13994
21001,13980
21045,13956
21083,13925
21114,13887
21137,13844
21151,13797
21156,13748
21156,13329
22151,13329
22151,13772
22161,13820
22180,13866
22207,13907
22242,13942
22283,13969
22328,13988
22376,13998
22791,13998
22853,13935
22853,13266
22953,13266
22953,13935
23016,13998
23430,13998
23478,13988
23523,13969
23564,13942
23599,13907
23627,13866
23645,13820
23655,13772
23655,13762
27579,13762
27579,13811
27589,13860
27608,13905
27635,13946
27851,14162
27940,14162
28260,13842
28401,13842
28777,14218
28865,14218
29026,14057
29053,14016
29072,13971
29082,13923
29082,13873
29072,13825
29053,13780
29026,13739
28810,13522
28721,13522
28401,13842
28260,13842
27884,13467
27796,13467
27635,13627
27608,13668
27589,13714
27579,13762
23655,13762
23655,13329
23634,13308
27955,13308
27955,13396
28331,13772
28650,13452
28650,13363
28434,13147
28393,13120
28348,13101
28299,13091
28250,13091
28202,13101
28156,13120
28115,13147
27955,13308
23634,13308
23593,13266
22953,13266
22853,13266
22214,13266
22151,13329
21156,13329
21156,12685
21154,12660
22151,12660
22151,13104
22214,13166
22853,13166
22853,12497
22953,12497
22953,13166
23593,13166
23655,13104
23655,12660
23645,12612
23627,12566
23599,12525
23564,12490
23523,12463
23478,12444
23430,12435
23016,12435
22953,12497
22853,12497
22791,12435
22376,12435
22328,12444
22283,12463
22242,12490
22207,12525
22180,12566
22161,12612
22151,12660
21154,12660
21151,12636
21137,12588
21114,12545
21083,12507
21045,12476
21001,12452
20954,12438
20905,12433
19901,12433
19852,12438
19805,12452
19762,12476
19723,12507
19692,12545
19669,12588
19655,12636
19650,12685
19650,12798
19601,12798
19568,12797
19543,12802
19518,12804
19485,12814
18376,13117
18375,13117
18338,13128
18320,13133
18319,13133
18299,13138
18282,13147
18265,13154
18247,13165
18229,13174
18214,13186
18198,13196
18183,13210
18182,13210
18169,13223
18141,13250
18140,13251
17966,13417
17942,13404
17895,13390
17846,13385
17797,13390
17750,13404
17707,13428
17669,13459
17112,14016
17081,14054
17057,14097
17043,14144
17038,14193
17043,14242
17057,14289
17081,14333
17112,14371
17463,14723
17565,15500
17569,15536
17576,15558
17581,15581
17588,15596
17593,15611
17604,15631
17614,15653
17623,15666
17631,15680
17646,15698
17660,15717
17686,15741
17773,15826
17532,16088
17520,16110
17520,16111
17433,16198
17433,16286
17663,16516
17669,16510
17863,16705
17858,16711
17870,16723
17662,16931
17650,16919
17329,17240
17329,17328
17400,17399
17405,17402
17415,17417
17868,17870
17878,17877
17883,17883
18272,18273
18310,18304
18327,18313
18153,18628
18141,18645
18126,18681
18111,18716
18106,18736
17912,19356
17851,19377
17841,19338
17820,19260
17744,19216
17280,19340
17291,19379
16904,19483
16894,19444
16886,19446
16800,19123
16807,19121
16716,18778
16639,18734
16397,18798
16367,18674
17102,18674
17194,19017
17657,18893
17701,18816
17680,18739
17668,18691
17646,18647
17616,18608
17579,18576
17536,18551
17490,18535
17441,18529
17392,18532
17146,18598
17102,18674
16367,18674
15908,16790
16919,16790
16919,16839
16929,16888
16948,16933
16975,16974
17046,17045
17134,17045
17455,16724
17225,16494
17137,16494
16975,16655
16948,16696
16929,16742
16919,16790
15908,16790
15642,15697
16301,15697
16301,15786
16462,15946
16503,15974
16548,15993
16597,16002
16646,16002
16694,15993
16740,15974
16781,15946
16997,15730
16997,15642
16677,15322
16301,15697
15642,15697
15541,15282
15926,15282
15926,15331
15935,15380
15954,15425
15982,15466
16142,15627
16231,15627
16606,15251
16748,15251
17068,15571
17156,15571
17372,15355
17400,15314
17418,15268
17428,15220
17428,15171
17418,15123
17400,15077
17372,15036
17212,14876
17123,14876
16748,15251
16606,15251
16286,14931
16198,14931
15982,15147
15954,15188
15935,15234
15926,15282
15541,15282
15416,14772
16357,14772
16357,14861
16677,15180
17053,14805
17053,14716
16892,14556
16851,14529
16806,14510
16757,14500
16708,14500
16660,14510
16614,14529
16573,14556
16357,14772
15416,14772
15355,14519
15961,13903
16721,13236
17500,12666
18306,12195
19147,11825
20036,11556
20982,11393
22006,11337
41247,11337
42271,11393
" /> 
</g>
<g style="fill:#FFFFFF; fill-opacity:1.0; 
stroke:#FFFFFF; stroke-width:100; stroke-opacity:1; 
stroke-linecap:round; stroke-linejoin:round;">
</g>
<g style="fill:#000000; fill-opacity:1.0; 
stroke:#000000; stroke-width:100; stroke-opacity:1; 
stroke-linecap:round; stroke-linejoin:round;">
</g> 
</svg>
