<?xml version="1.0" standalone="no"?>
 <!DOCTYPE svg PUBLIC "-//W3C//DTD SVG 1.1//EN" 
 "http://www.w3.org/Graphics/SVG/1.1/DTD/svg11.dtd"> 
<svg xmlns="http://www.w3.org/2000/svg" version="1.1" 
    width="29.7002cm" height="21.0007cm" viewBox="0 0 116930 82680 ">
<title>SVG Picture created as gauge_display-F.Cu.svg date 2018/09/08 00:00:24 </title>
  <desc>Picture generated by PCBNEW </desc>
<g style="fill:#000000; fill-opacity:1;stroke:#000000; stroke-opacity:1;
stroke-linecap:round; stroke-linejoin:round; "
 transform="translate(0 0) scale(1 1)">
</g>
<g style="fill:#000000; fill-opacity:0.0; 
stroke:#000000; stroke-width:-0.000393701; stroke-opacity:1; 
stroke-linecap:round; stroke-linejoin:round;">
</g>
<g style="fill:#000000; fill-opacity:0.0; 
stroke:#000000; stroke-width:196.85; stroke-opacity:1; 
stroke-linecap:round; stroke-linejoin:round;">
<path d="M8700 15350
L8700 9842
" />
<path d="M24448 15350
L8700 15350
" />
<path d="M24448 9842
L24468 15350
" />
<path d="M8700 9842
L24448 9842
" />
</g>
<g style="fill:#000000; fill-opacity:0.0; 
stroke:#000000; stroke-width:0; stroke-opacity:1; 
stroke-linecap:round; stroke-linejoin:round;">
</g>
<g style="fill:#000000; fill-opacity:1.0; 
stroke:#000000; stroke-width:0; stroke-opacity:1; 
stroke-linecap:round; stroke-linejoin:round;">
<polyline style="fill-rule:evenodd;"
points="11889,10842
11889,11472
11102,11472
11102,10842
11889,10842
" /> 
<polyline style="fill-rule:evenodd;"
points="13464,10842
13464,11472
12677,11472
12677,10842
13464,10842
" /> 
<polyline style="fill-rule:evenodd;"
points="17755,10842
17755,11472
16968,11472
16968,10842
17755,10842
" /> 
<polyline style="fill-rule:evenodd;"
points="16181,10842
16181,11472
15393,11472
15393,10842
16181,10842
" /> 
<polyline style="fill-rule:evenodd;"
points="20472,10842
20472,11472
19685,11472
19685,10842
20472,10842
" /> 
<polyline style="fill-rule:evenodd;"
points="22047,10842
22047,11472
21259,11472
21259,10842
22047,10842
" /> 
<polyline style="fill-rule:evenodd;"
points="13779,13740
13779,14291
12952,14291
12952,13740
13779,13740
" /> 
<polyline style="fill-rule:evenodd;"
points="13779,12480
13779,13031
12952,13031
12952,12480
13779,12480
" /> 
<polyline style="fill-rule:evenodd;"
points="11614,13740
11614,14291
10787,14291
10787,13740
11614,13740
" /> 
<polyline style="fill-rule:evenodd;"
points="11614,12480
11614,13031
10787,13031
10787,12480
11614,12480
" /> 
<polyline style="fill-rule:evenodd;"
points="15905,12480
15905,13031
15078,13031
15078,12480
15905,12480
" /> 
<polyline style="fill-rule:evenodd;"
points="15905,13740
15905,14291
15078,14291
15078,13740
15905,13740
" /> 
<polyline style="fill-rule:evenodd;"
points="18070,12480
18070,13031
17244,13031
17244,12480
18070,12480
" /> 
<polyline style="fill-rule:evenodd;"
points="18070,13740
18070,14291
17244,14291
17244,13740
18070,13740
" /> 
<polyline style="fill-rule:evenodd;"
points="22362,13740
22362,14291
21535,14291
21535,13740
22362,13740
" /> 
<polyline style="fill-rule:evenodd;"
points="22362,12480
22362,13031
21535,13031
21535,12480
22362,12480
" /> 
<polyline style="fill-rule:evenodd;"
points="20196,13740
20196,14291
19370,14291
19370,13740
20196,13740
" /> 
<polyline style="fill-rule:evenodd;"
points="20196,12480
20196,13031
19370,13031
19370,12480
20196,12480
" /> 
<polyline style="fill-rule:evenodd;"
points="9939,13634
9946,13635
9952,13636
9958,13638
9964,13641
9970,13645
9975,13649
9980,13653
9984,13658
9988,13663
9992,13669
9994,13675
9997,13681
9998,13687
9999,13694
10000,13700
10000,14236
9999,14242
9998,14249
9997,14255
9994,14261
9992,14267
9988,14273
9984,14278
9980,14283
9975,14287
9970,14291
9964,14295
9958,14298
9952,14300
9946,14301
9939,14302
9933,14303
9082,14303
9076,14302
9069,14301
9063,14300
9057,14298
9051,14295
9045,14291
9040,14287
9035,14283
9030,14278
9027,14273
9023,14267
9020,14261
9018,14255
9017,14249
9016,14242
9015,14236
9015,13700
9016,13694
9017,13687
9018,13681
9020,13675
9023,13669
9027,13663
9030,13658
9035,13653
9040,13649
9045,13645
9051,13641
9057,13638
9063,13636
9069,13635
9076,13634
9082,13633
9933,13633
9939,13634
" /> 
<polyline style="fill-rule:evenodd;"
points="9939,12634
9946,12635
9952,12636
9958,12638
9964,12641
9970,12645
9975,12649
9980,12653
9984,12658
9988,12663
9992,12669
9994,12675
9997,12681
9998,12687
9999,12694
10000,12700
10000,13236
9999,13242
9998,13249
9997,13255
9994,13261
9992,13267
9988,13273
9984,13278
9980,13283
9975,13287
9970,13291
9964,13295
9958,13298
9952,13300
9946,13301
9939,13302
9933,13303
9082,13303
9076,13302
9069,13301
9063,13300
9057,13298
9051,13295
9045,13291
9040,13287
9035,13283
9030,13278
9027,13273
9023,13267
9020,13261
9018,13255
9017,13249
9016,13242
9015,13236
9015,12700
9016,12694
9017,12687
9018,12681
9020,12675
9023,12669
9027,12663
9030,12658
9035,12653
9040,12649
9045,12645
9051,12641
9057,12638
9063,12636
9069,12635
9076,12634
9082,12633
9933,12633
9939,12634
" /> 
<polyline style="fill-rule:evenodd;"
points="9939,11634
9946,11635
9952,11636
9958,11638
9964,11641
9970,11645
9975,11649
9980,11653
9984,11658
9988,11663
9992,11669
9994,11675
9997,11681
9998,11687
9999,11694
10000,11700
10000,12236
9999,12242
9998,12249
9997,12255
9994,12261
9992,12267
9988,12273
9984,12278
9980,12283
9975,12287
9970,12291
9964,12295
9958,12298
9952,12300
9946,12301
9939,12302
9933,12303
9082,12303
9076,12302
9069,12301
9063,12300
9057,12298
9051,12295
9045,12291
9040,12287
9035,12283
9030,12278
9027,12273
9023,12267
9020,12261
9018,12255
9017,12249
9016,12242
9015,12236
9015,11700
9016,11694
9017,11687
9018,11681
9020,11675
9023,11669
9027,11663
9030,11658
9035,11653
9040,11649
9045,11645
9051,11641
9057,11638
9063,11636
9069,11635
9076,11634
9082,11633
9933,11633
9939,11634
" /> 
<polyline style="fill-rule:evenodd;"
points="24034,13634
24040,13635
24046,13636
24053,13638
24059,13641
24064,13645
24070,13649
24074,13653
24079,13658
24083,13663
24086,13669
24089,13675
24091,13681
24093,13687
24094,13694
24094,13700
24094,14236
24094,14242
24093,14249
24091,14255
24089,14261
24086,14267
24083,14273
24079,14278
24074,14283
24070,14287
24064,14291
24059,14295
24053,14298
24046,14300
24040,14301
24034,14302
24027,14303
23177,14303
23170,14302
23164,14301
23157,14300
23151,14298
23145,14295
23139,14291
23134,14287
23129,14283
23125,14278
23121,14273
23118,14267
23115,14261
23113,14255
23111,14249
23110,14242
23110,14236
23110,13700
23110,13694
23111,13687
23113,13681
23115,13675
23118,13669
23121,13663
23125,13658
23129,13653
23134,13649
23139,13645
23145,13641
23151,13638
23157,13636
23164,13635
23170,13634
23177,13633
24027,13633
24034,13634
" /> 
<polyline style="fill-rule:evenodd;"
points="24034,12634
24040,12635
24046,12636
24053,12638
24059,12641
24064,12645
24070,12649
24074,12653
24079,12658
24083,12663
24086,12669
24089,12675
24091,12681
24093,12687
24094,12694
24094,12700
24094,13236
24094,13242
24093,13249
24091,13255
24089,13261
24086,13267
24083,13273
24079,13278
24074,13283
24070,13287
24064,13291
24059,13295
24053,13298
24046,13300
24040,13301
24034,13302
24027,13303
23177,13303
23170,13302
23164,13301
23157,13300
23151,13298
23145,13295
23139,13291
23134,13287
23129,13283
23125,13278
23121,13273
23118,13267
23115,13261
23113,13255
23111,13249
23110,13242
23110,13236
23110,12700
23110,12694
23111,12687
23113,12681
23115,12675
23118,12669
23121,12663
23125,12658
23129,12653
23134,12649
23139,12645
23145,12641
23151,12638
23157,12636
23164,12635
23170,12634
23177,12633
24027,12633
24034,12634
" /> 
<polyline style="fill-rule:evenodd;"
points="24034,11634
24040,11635
24046,11636
24053,11638
24059,11641
24064,11645
24070,11649
24074,11653
24079,11658
24083,11663
24086,11669
24089,11675
24091,11681
24093,11687
24094,11694
24094,11700
24094,12236
24094,12242
24093,12249
24091,12255
24089,12261
24086,12267
24083,12273
24079,12278
24074,12283
24070,12287
24064,12291
24059,12295
24053,12298
24046,12300
24040,12301
24034,12302
24027,12303
23177,12303
23170,12302
23164,12301
23157,12300
23151,12298
23145,12295
23139,12291
23134,12287
23129,12283
23125,12278
23121,12273
23118,12267
23115,12261
23113,12255
23111,12249
23110,12242
23110,12236
23110,11700
23110,11694
23111,11687
23113,11681
23115,11675
23118,11669
23121,11663
23125,11658
23129,11653
23134,11649
23139,11645
23145,11641
23151,11638
23157,11636
23164,11635
23170,11634
23177,11633
24027,11633
24034,11634
" /> 
</g>
<g style="fill:#000000; fill-opacity:1.0; 
stroke:#000000; stroke-width:300; stroke-opacity:1; 
stroke-linecap:round; stroke-linejoin:round;">
</g>
<g style="fill:#000000; fill-opacity:0.0; 
stroke:#000000; stroke-width:300; stroke-opacity:1; 
stroke-linecap:round; stroke-linejoin:round;">
<path d="M13267 14015
L12322 13401
" />
<path d="M12322 13401
L12322 12141
" />
<path d="M12322 12141
L13070 11157
" />
<path d="M16574 12141
L17362 11157
" />
<path d="M17559 14015
L16574 13362
" />
<path d="M16574 13362
L16574 12141
" />
<path d="M20866 12141
L21653 11157
" />
<path d="M21850 14015
L20866 13362
" />
<path d="M20866 13362
L20866 12141
" />
</g>
<g style="fill:#000000; fill-opacity:0.0; 
stroke:#000000; stroke-width:500; stroke-opacity:1; 
stroke-linecap:round; stroke-linejoin:round;">
<path d="M9625 14917
L13326 14917
" />
<path d="M9507 13968
L9625 14917
" />
<path d="M13267 14917
L17618 14917
" />
<path d="M13267 14015
L13267 14917
" />
<path d="M17559 14917
L21948 14917
" />
<path d="M17559 14015
L17559 14917
" />
<path d="M23464 14917
L23602 13968
" />
<path d="M21850 14015
L21850 14917
" />
<path d="M21850 14917
L23464 14917
" />
</g>
<g style="fill:#000000; fill-opacity:0.0; 
stroke:#000000; stroke-width:300; stroke-opacity:1; 
stroke-linecap:round; stroke-linejoin:round;">
<path d="M13267 12755
L13968 12755
" />
<path d="M13968 12755
L14633 14011
" />
<path d="M14633 14011
L15590 14015
" />
<path d="M10511 14031
L11299 14015
" />
<path d="M9507 12968
L10354 12968
" />
<path d="M10354 12968
L10511 14031
" />
<path d="M17559 12755
L18330 12759
" />
<path d="M18330 12759
L18940 14011
" />
<path d="M18940 14011
L19881 14015
" />
<path d="M21850 12755
L22500 12751
" />
<path d="M22500 12751
L22795 12968
" />
<path d="M22795 12968
L23602 12968
" />
</g>
<g style="fill:#000000; fill-opacity:1.0; 
stroke:#000000; stroke-width:100; stroke-opacity:1; 
stroke-linecap:round; stroke-linejoin:round;">
<polyline style="fill-rule:evenodd;"
points="24105,11383
23864,11383
23802,11446
23802,11801
23810,11801
23810,12135
23802,12135
23802,12176
23402,12176
23402,12135
22922,12135
22888,12170
22294,12170
22294,11609
22860,11609
22860,11738
22922,11801
23402,11801
23402,11446
23339,11383
23085,11383
23037,11393
22991,11412
22950,11439
22916,11474
22888,11515
22869,11560
22860,11609
22294,11609
22294,11516
22298,11472
22298,10842
22293,10793
22279,10746
22256,10702
22224,10664
22186,10633
22143,10610
22096,10596
22047,10591
21259,10591
21215,10595
20512,10595
20497,10592
20191,10592
20128,10655
20128,11107
20136,11107
20136,11207
20128,11207
20128,11659
20191,11722
20422,11722
20422,12229
20216,12229
20212,12230
20032,12230
19969,12292
19969,12618
19977,12618
19977,12893
19969,12893
19969,12950
19597,12950
19597,12893
19182,12893
19120,12956
19120,12957
18927,12957
18927,12455
19120,12455
19120,12555
19182,12618
19597,12618
19597,12292
19534,12230
19345,12230
19297,12239
19251,12258
19210,12286
19175,12320
19148,12361
19129,12407
19120,12455
18927,12455
18927,12102
18924,12083
18913,12067
18897,12056
18877,12052
18002,12052
18002,11516
18007,11472
18007,11269
19435,11269
19435,11497
19444,11545
19463,11590
19490,11631
19525,11666
19566,11693
19612,11712
19660,11722
19966,11722
20028,11659
20028,11207
19497,11207
19435,11269
18007,11269
18007,10842
18004,10817
19435,10817
19435,11044
19497,11107
20028,11107
20028,10655
19966,10592
19660,10592
19612,10602
19566,10620
19525,10648
19490,10683
19463,10724
19444,10769
19435,10817
18004,10817
18002,10793
17987,10746
17964,10702
17933,10664
17895,10633
17852,10610
17804,10596
17755,10591
16968,10591
16924,10595
16221,10595
16205,10592
15899,10592
15837,10655
15837,11107
15845,11107
15845,11207
15837,11207
15837,11659
15899,11722
16131,11722
16131,12229
15905,12229
15901,12230
15740,12230
15678,12292
15678,12618
15686,12618
15686,12893
15678,12893
15678,12950
15305,12950
15305,12893
14891,12893
14828,12956
14828,13016
14675,13016
14675,12455
14828,12455
14828,12555
14891,12618
15305,12618
15305,12292
15243,12230
15054,12230
15005,12239
14960,12258
14919,12286
14884,12320
14857,12361
14838,12407
14828,12455
14675,12455
14675,12102
14672,12083
14661,12067
14645,12056
14625,12052
13711,12052
13711,11516
13715,11472
13715,11269
15143,11269
15143,11497
15153,11545
15172,11590
15199,11631
15234,11666
15275,11693
15320,11712
15369,11722
15674,11722
15737,11659
15737,11207
15206,11207
15143,11269
13715,11269
13715,10842
13713,10817
15143,10817
15143,11044
15206,11107
15737,11107
15737,10655
15674,10592
15369,10592
15320,10602
15275,10620
15234,10648
15199,10683
15172,10724
15153,10769
15143,10817
13713,10817
13710,10793
13696,10746
13673,10702
13642,10664
13604,10633
13560,10610
13513,10596
13464,10591
12677,10591
12632,10595
11930,10595
11914,10592
11608,10592
11546,10655
11546,11107
11553,11107
11553,11207
11546,11207
11546,11659
11608,11722
11839,11722
11839,12229
11594,12229
11588,12230
11449,12230
11387,12292
11387,12618
11394,12618
11394,12893
11387,12893
11387,12950
11014,12950
11014,12893
11006,12893
11006,12618
11014,12618
11014,12292
10952,12230
10762,12230
10714,12239
10699,12246
10699,12181
10695,12161
10684,12145
10668,12134
10649,12131
10157,12131
10143,12133
10138,12135
9707,12135
9707,12176
9307,12176
9307,12135
9300,12135
9300,11801
9307,11801
9307,11446
9707,11446
9707,11801
10187,11801
10250,11738
10250,11609
10240,11560
10221,11515
10194,11474
10159,11439
10118,11412
10072,11393
10024,11383
9770,11383
9707,11446
9307,11446
9245,11383
9049,11383
9049,11269
10852,11269
10852,11497
10861,11545
10880,11590
10908,11631
10942,11666
10983,11693
11029,11712
11077,11722
11383,11722
11446,11659
11446,11207
10914,11207
10852,11269
9049,11269
9049,10817
10852,10817
10852,11044
10914,11107
11446,11107
11446,10655
11383,10592
11077,10592
11029,10602
10983,10620
10942,10648
10908,10683
10880,10724
10861,10769
10852,10817
9049,10817
9049,10190
24101,10190
24105,11383
" /> 
</g>
<g style="fill:#FFFFFF; fill-opacity:1.0; 
stroke:#FFFFFF; stroke-width:100; stroke-opacity:1; 
stroke-linecap:round; stroke-linejoin:round;">
</g>
<g style="fill:#000000; fill-opacity:1.0; 
stroke:#000000; stroke-width:100; stroke-opacity:1; 
stroke-linecap:round; stroke-linejoin:round;">
</g> 
</svg>
