<?xml version="1.0" standalone="no"?>
 <!DOCTYPE svg PUBLIC "-//W3C//DTD SVG 1.1//EN" 
 "http://www.w3.org/Graphics/SVG/1.1/DTD/svg11.dtd"> 
<svg xmlns="http://www.w3.org/2000/svg" version="1.1" 
    width="29.7002cm" height="21.0007cm" viewBox="0 0 116930 82680 ">
<title>SVG Picture created as right_gauge-F.Cu.svg date 2018/08/13 22:02:32 </title>
  <desc>Picture generated by PCBNEW </desc>
<g style="fill:#000000; fill-opacity:1;stroke:#000000; stroke-opacity:1;
stroke-linecap:round; stroke-linejoin:round; "
 transform="translate(0 0) scale(1 1)">
</g>
<g style="fill:#000000; fill-opacity:0.0; 
stroke:#000000; stroke-width:-0.000393701; stroke-opacity:1; 
stroke-linecap:round; stroke-linejoin:round;">
</g>
<g style="fill:#000000; fill-opacity:0.0; 
stroke:#000000; stroke-width:196.85; stroke-opacity:1; 
stroke-linecap:round; stroke-linejoin:round;">
<path d="M44020 36704
L43599 37586
" />
<path d="M43229 43462
L43229 43873
" />
<path d="M44979 32845
L44855 33853
" />
<path d="M42564 39226
L43229 41507
" />
<path d="M41389 23045
L42904 24880
" />
<path d="M44770 29315
L45022 31814
" />
<path d="M44855 33853
L44651 34835
" />
<path d="M43113 38427
L42564 39226
" />
<path d="M44047 26987
L44770 29315
" />
<path d="M43599 37586
L43113 38427
" />
<path d="M44372 35786
L44020 36704
" />
<path d="M39554 21530
L41389 23045
" />
<path d="M37447 20387
L39554 21530
" />
<path d="M44651 34835
L44372 35786
" />
<path d="M43229 41507
L43229 43033
" />
<path d="M45022 31814
L44979 32845
" />
<path d="M35119 19664
L37447 20387
" />
<path d="M43229 43873
L43229 43873
" />
<path d="M42904 24880
L44047 26987
" />
<path d="M43229 43033
L43229 43462
" />
<path d="M32620 19412
L35119 19664
" />
<path d="M30121 19664
L32620 19412
" />
<path d="M17728 43126
L21302 43122
" />
<path d="M21068 36333
L20769 35478
" />
<path d="M27793 20387
L30121 19664
" />
<path d="M25686 21530
L27793 20387
" />
<path d="M23851 23045
L25686 21530
" />
<path d="M22336 24880
L23851 23045
" />
<path d="M21193 26987
L22336 24880
" />
<path d="M20470 29315
L21193 26987
" />
<path d="M20218 31814
L20470 29315
" />
<path d="M20254 32762
L20218 31814
" />
<path d="M20532 34597
L20360 33690
" />
<path d="M20769 35478
L20532 34597
" />
<path d="M21841 37950
L21426 37158
" />
<path d="M22310 38708
L21841 37950
" />
<path d="M21302 43122
L21302 41249
" />
<path d="M15473 39287
L16125 40631
" />
<path d="M20360 33690
L20254 32762
" />
<path d="M16878 41912
L17728 43126
" />
<path d="M21426 37158
L21068 36333
" />
<path d="M16125 40631
L16878 41912
" />
<path d="M21302 41249
L22310 38708
" />
<path d="M51321 31814
L50941 28045
" />
<path d="M13985 33392
L14178 34933
" />
<path d="M13919 31814
L13985 33392
" />
<path d="M19397 18590
L17113 21358
" />
<path d="M14299 28045
L13919 31814
" />
<path d="M15389 24535
L14299 28045
" />
<path d="M25341 14583
L22164 16307
" />
<path d="M39899 14583
L36389 13493
" />
<path d="M17113 21358
L15389 24535
" />
<path d="M48127 21358
L45844 18590
" />
<path d="M32620 13113
L28851 13493
" />
<path d="M22164 16307
L19397 18590
" />
<path d="M28851 13493
L25341 14583
" />
<path d="M14928 37886
L15473 39287
" />
<path d="M49851 24535
L48127 21358
" />
<path d="M14178 34933
L14494 36433
" />
<path d="M43076 16307
L39899 14583
" />
<path d="M51219 33781
L51321 31814
" />
<path d="M50919 35689
L51219 33781
" />
<path d="M50941 28045
L49851 24535
" />
<path d="M14494 36433
L14928 37886
" />
<path d="M45844 18590
L43076 16307
" />
<path d="M36389 13493
L32620 13113
" />
<path d="M43229 43873
L45543 45330
" />
<path d="M48936 40958
L49767 39288
" />
<path d="M45543 45330
L46813 43989
" />
<path d="M50431 37528
L50919 35689
" />
<path d="M47948 42529
L48936 40958
" />
<path d="M46813 43989
L47948 42529
" />
<path d="M49767 39288
L50431 37528
" />
</g>
<g style="fill:#000000; fill-opacity:0.0; 
stroke:#000000; stroke-width:0; stroke-opacity:1; 
stroke-linecap:round; stroke-linejoin:round;">
</g>
<g style="fill:#000000; fill-opacity:1.0; 
stroke:#000000; stroke-width:0; stroke-opacity:1; 
stroke-linecap:round; stroke-linejoin:round;">
<polyline style="fill-rule:evenodd;"
points="48547,33216
48621,32155
49623,32225
49549,33286
48547,33216
" /> 
<polyline style="fill-rule:evenodd;"
points="46053,33041
46127,31981
47129,32051
47055,33111
46053,33041
" /> 
<polyline style="fill-rule:evenodd;"
points="46049,42791
46055,42792
46062,42794
46068,42796
46074,42799
46537,43067
46543,43071
46548,43075
46553,43079
46557,43084
46561,43090
46564,43096
46567,43102
46569,43108
46570,43114
46571,43121
46571,43127
46570,43134
46569,43140
46567,43147
46565,43153
46562,43159
46137,43895
46133,43901
46129,43906
46125,43910
46119,43915
46114,43918
46108,43922
46102,43924
46096,43926
46090,43928
46083,43928
46077,43928
46070,43928
46064,43927
46057,43925
46051,43923
46045,43920
45582,43652
45576,43648
45571,43644
45566,43640
45562,43635
45558,43629
45555,43623
45552,43617
45550,43611
45549,43605
45548,43598
45548,43592
45549,43585
45550,43579
45552,43572
45554,43566
45557,43560
45982,42824
45986,42818
45990,42813
45994,42809
46000,42804
46005,42801
46011,42797
46017,42795
46023,42793
46029,42791
46036,42791
46042,42791
46049,42791
" /> 
<polyline style="fill-rule:evenodd;"
points="45183,42291
45189,42292
45196,42294
45202,42296
45208,42299
45671,42567
45677,42571
45682,42575
45687,42579
45691,42584
45695,42590
45698,42596
45701,42602
45703,42608
45704,42614
45705,42621
45705,42627
45704,42634
45703,42640
45701,42647
45699,42653
45696,42659
45271,43395
45267,43401
45263,43406
45258,43410
45253,43415
45248,43418
45242,43422
45236,43424
45230,43426
45224,43428
45217,43428
45211,43428
45204,43428
45198,43427
45191,43425
45185,43423
45179,43420
44716,43152
44710,43148
44705,43144
44700,43140
44696,43135
44692,43129
44689,43123
44686,43117
44684,43111
44683,43105
44682,43098
44682,43092
44683,43085
44684,43079
44686,43072
44688,43066
44691,43060
45116,42324
45120,42318
45124,42313
45128,42309
45133,42304
45139,42301
45145,42297
45151,42295
45157,42293
45163,42291
45170,42291
45176,42291
45183,42291
" /> 
<polyline style="fill-rule:evenodd;"
points="44317,41791
44323,41792
44330,41794
44336,41796
44342,41799
44805,42067
44811,42071
44816,42075
44821,42079
44825,42084
44829,42090
44832,42096
44835,42102
44837,42108
44838,42114
44839,42121
44839,42127
44838,42134
44837,42140
44835,42147
44833,42153
44830,42159
44405,42895
44401,42901
44397,42906
44392,42910
44387,42915
44382,42918
44376,42922
44370,42924
44364,42926
44358,42928
44351,42928
44345,42928
44338,42928
44332,42927
44325,42925
44319,42923
44313,42920
43850,42652
43844,42648
43839,42644
43834,42640
43830,42635
43826,42629
43823,42623
43820,42617
43818,42611
43817,42605
43816,42598
43816,42592
43817,42585
43818,42579
43820,42572
43822,42566
43825,42560
44250,41824
44254,41818
44258,41813
44262,41809
44267,41804
44273,41801
44279,41797
44285,41795
44291,41793
44297,41791
44304,41791
44310,41791
44317,41791
" /> 
<polyline style="fill-rule:evenodd;"
points="20684,41748
20690,41749
20697,41750
20703,41752
20709,41755
20714,41759
20720,41763
20725,41767
20729,41772
20733,41777
20736,41783
20739,41789
20741,41795
20743,41801
20744,41808
20744,41814
20744,42665
20744,42671
20743,42678
20741,42684
20739,42690
20736,42696
20733,42702
20729,42707
20725,42712
20720,42716
20714,42720
20709,42724
20703,42727
20697,42729
20690,42730
20684,42731
20677,42732
20142,42732
20135,42731
20129,42730
20122,42729
20116,42727
20110,42724
20105,42720
20099,42716
20094,42712
20090,42707
20086,42702
20083,42696
20080,42690
20078,42684
20076,42678
20075,42671
20075,42665
20075,41814
20075,41808
20076,41801
20078,41795
20080,41789
20083,41783
20086,41777
20090,41772
20094,41767
20099,41763
20105,41759
20110,41755
20116,41752
20122,41750
20129,41749
20135,41748
20142,41747
20677,41747
20684,41748
" /> 
<polyline style="fill-rule:evenodd;"
points="19684,41748
19690,41749
19697,41750
19703,41752
19709,41755
19714,41759
19720,41763
19725,41767
19729,41772
19733,41777
19736,41783
19739,41789
19741,41795
19743,41801
19744,41808
19744,41814
19744,42665
19744,42671
19743,42678
19741,42684
19739,42690
19736,42696
19733,42702
19729,42707
19725,42712
19720,42716
19714,42720
19709,42724
19703,42727
19697,42729
19690,42730
19684,42731
19677,42732
19142,42732
19135,42731
19129,42730
19122,42729
19116,42727
19110,42724
19105,42720
19099,42716
19094,42712
19090,42707
19086,42702
19083,42696
19080,42690
19078,42684
19076,42678
19075,42671
19075,42665
19075,41814
19075,41808
19076,41801
19078,41795
19080,41789
19083,41783
19086,41777
19090,41772
19094,41767
19099,41763
19105,41759
19110,41755
19116,41752
19122,41750
19129,41749
19135,41748
19142,41747
19677,41747
19684,41748
" /> 
<polyline style="fill-rule:evenodd;"
points="18684,41748
18690,41749
18697,41750
18703,41752
18709,41755
18714,41759
18720,41763
18725,41767
18729,41772
18733,41777
18736,41783
18739,41789
18741,41795
18743,41801
18744,41808
18744,41814
18744,42665
18744,42671
18743,42678
18741,42684
18739,42690
18736,42696
18733,42702
18729,42707
18725,42712
18720,42716
18714,42720
18709,42724
18703,42727
18697,42729
18690,42730
18684,42731
18677,42732
18142,42732
18135,42731
18129,42730
18122,42729
18116,42727
18110,42724
18105,42720
18099,42716
18094,42712
18090,42707
18086,42702
18083,42696
18080,42690
18078,42684
18076,42678
18075,42671
18075,42665
18075,41814
18075,41808
18076,41801
18078,41795
18080,41789
18083,41783
18086,41777
18090,41772
18094,41767
18099,41763
18105,41759
18110,41755
18116,41752
18122,41750
18129,41749
18135,41748
18142,41747
18677,41747
18684,41748
" /> 
<polyline style="fill-rule:evenodd;"
points="38465,16639
38246,17145
37488,16816
37707,16311
38465,16639
" /> 
<polyline style="fill-rule:evenodd;"
points="37965,17795
37746,18301
36987,17973
37206,17467
37965,17795
" /> 
<polyline style="fill-rule:evenodd;"
points="40453,17499
40234,18005
39475,17676
39694,17170
40453,17499
" /> 
<polyline style="fill-rule:evenodd;"
points="39952,18655
39733,19161
38975,18833
39193,18327
39952,18655
" /> 
<polyline style="fill-rule:evenodd;"
points="47240,28151
46721,28338
46441,27560
46960,27373
47240,28151
" /> 
<polyline style="fill-rule:evenodd;"
points="48425,27724
47907,27911
47627,27133
48145,26947
48425,27724
" /> 
<polyline style="fill-rule:evenodd;"
points="46506,26114
45988,26301
45708,25523
46226,25336
46506,26114
" /> 
<polyline style="fill-rule:evenodd;"
points="47692,25687
47173,25874
46893,25096
47412,24909
47692,25687
" /> 
<polyline style="fill-rule:evenodd;"
points="47409,38613
46918,38363
47294,37627
47785,37877
47409,38613
" /> 
<polyline style="fill-rule:evenodd;"
points="46287,38042
45796,37791
46171,37055
46662,37305
46287,38042
" /> 
<polyline style="fill-rule:evenodd;"
points="46426,40543
45935,40293
46311,39556
46802,39806
46426,40543
" /> 
<polyline style="fill-rule:evenodd;"
points="45304,39971
44813,39721
45188,38984
45679,39234
45304,39971
" /> 
<polyline style="fill-rule:evenodd;"
points="28029,17467
28248,17973
27489,18301
27270,17795
28029,17467
" /> 
<polyline style="fill-rule:evenodd;"
points="27529,16311
27748,16816
26989,17145
26770,16639
27529,16311
" /> 
<polyline style="fill-rule:evenodd;"
points="26042,18327
26261,18833
25502,19161
25283,18655
26042,18327
" /> 
<polyline style="fill-rule:evenodd;"
points="25541,17170
25760,17676
25002,18005
24783,17499
25541,17170
" /> 
<polyline style="fill-rule:evenodd;"
points="17090,26947
17609,27133
17329,27911
16810,27724
17090,26947
" /> 
<polyline style="fill-rule:evenodd;"
points="18275,27373
18794,27560
18514,28338
17995,28151
18275,27373
" /> 
<polyline style="fill-rule:evenodd;"
points="17824,24909
18342,25096
18062,25874
17544,25687
17824,24909
" /> 
<polyline style="fill-rule:evenodd;"
points="19009,25336
19528,25523
19247,26301
18729,26114
19009,25336
" /> 
<polyline style="fill-rule:evenodd;"
points="18573,37306
19064,37055
19439,37792
18948,38042
18573,37306
" /> 
<polyline style="fill-rule:evenodd;"
points="17450,37878
17942,37627
18317,38364
17826,38614
17450,37878
" /> 
<polyline style="fill-rule:evenodd;"
points="19556,39235
20047,38985
20423,39721
19931,39972
19556,39235
" /> 
<polyline style="fill-rule:evenodd;"
points="18434,39807
18925,39557
19300,40293
18809,40544
18434,39807
" /> 
<polyline style="fill-rule:evenodd;"
points="41169,20483
40631,20155
41041,19482
41579,19811
41169,20483
" /> 
<polyline style="fill-rule:evenodd;"
points="41989,19139
41452,18810
41862,18138
42399,18466
41989,19139
" /> 
<polyline style="fill-rule:evenodd;"
points="46290,35103
46495,34507
47240,34764
47035,35359
46290,35103
" /> 
<polyline style="fill-rule:evenodd;"
points="47779,35615
47984,35020
48729,35276
48524,35872
47779,35615
" /> 
<polyline style="fill-rule:evenodd;"
points="18625,34990
18911,35551
18210,35908
17924,35347
18625,34990
" /> 
<polyline style="fill-rule:evenodd;"
points="17222,35705
17508,36266
16807,36623
16521,36062
17222,35705
" /> 
<polyline style="fill-rule:evenodd;"
points="20865,24049
20591,24616
19882,24273
20156,23706
20865,24049
" /> 
<polyline style="fill-rule:evenodd;"
points="19447,23363
19173,23931
18464,23588
18739,23021
19447,23363
" /> 
<polyline style="fill-rule:evenodd;"
points="30200,17765
29599,17953
29364,17202
29965,17013
30200,17765
" /> 
<polyline style="fill-rule:evenodd;"
points="29730,16262
29128,16450
28893,15699
29494,15511
29730,16262
" /> 
<polyline style="fill-rule:evenodd;"
points="46801,30510
46673,29893
47443,29732
47572,30349
46801,30510
" /> 
<polyline style="fill-rule:evenodd;"
points="48343,30188
48214,29571
48985,29410
49114,30027
48343,30188
" /> 
</g>
<g style="fill:#000000; fill-opacity:1.0; 
stroke:#000000; stroke-width:500; stroke-opacity:1; 
stroke-linecap:round; stroke-linejoin:round;">
</g>
<g style="fill:#000000; fill-opacity:0.0; 
stroke:#000000; stroke-width:500; stroke-opacity:1; 
stroke-linecap:round; stroke-linejoin:round;">
<path d="M40334 19114
L41105 19983
" />
<path d="M39373 18705
L40334 19114
" />
<path d="M28582 17519
L29782 17483
" />
<path d="M27669 17923
L28582 17519
" />
<path d="M19468 24980
L20374 24161
" />
<path d="M19095 25911
L19468 24980
" />
<path d="M18503 36555
L18418 35449
" />
<path d="M19051 37637
L18503 36555
" />
<path d="M20510 36890
L19051 37637
" />
<path d="M19670 29770
L20040 28210
" />
<path d="M19520 31390
L19670 29770
" />
<path d="M19570 32990
L19520 31390
" />
<path d="M21500 38730
L20800 37470
" />
<path d="M20800 37470
L20480 36750
" />
<path d="M20480 36750
L20150 35840
" />
<path d="M20150 35840
L19820 34610
" />
<path d="M20300 42200
L21500 38730
" />
<path d="M19820 34610
L19570 32990
" />
<path d="M19095 25911
L20650 26540
" />
<path d="M20040 28210
L20250 27490
" />
<path d="M20250 27490
L20650 26540
" />
<path d="M28300 19500
L27669 17923
" />
<path d="M36740 19420
L37670 19770
" />
<path d="M35980 19190
L36740 19420
" />
<path d="M35240 19020
L35980 19190
" />
<path d="M29200 19210
L30140 18980
" />
<path d="M28300 19500
L29200 19210
" />
<path d="M30140 18980
L31360 18800
" />
<path d="M31360 18800
L32510 18750
" />
<path d="M37670 19770
L38680 20250
" />
<path d="M32510 18750
L34050 18820
" />
<path d="M34050 18820
L35240 19020
" />
<path d="M21240 25320
L20650 26540
" />
<path d="M22500 23520
L21240 25320
" />
<path d="M27430 19830
L26740 20170
" />
<path d="M28300 19500
L27430 19830
" />
<path d="M25800 20670
L25120 21120
" />
<path d="M25120 21120
L23710 22230
" />
<path d="M26740 20170
L25800 20670
" />
<path d="M23710 22230
L22500 23520
" />
<path d="M44755 26975
L45185 28245
" />
<path d="M44270 25920
L44755 26975
" />
<path d="M43985 25360
L44270 25920
" />
<path d="M43640 24810
L43985 25360
" />
<path d="M43180 24130
L43640 24810
" />
<path d="M38660 20240
L39795 20925
" />
<path d="M39373 18705
L38660 20240
" />
<path d="M39795 20925
L40745 21615
" />
<path d="M40745 21615
L41940 22680
" />
<path d="M41940 22680
L42705 23525
" />
<path d="M42705 23525
L43180 24130
" />
<path d="M45291 39390
L43805 38585
" />
<path d="M44895 36325
L44155 37975
" />
<path d="M45520 33895
L45330 34875
" />
<path d="M44155 37975
L43805 38585
" />
<path d="M45660 32740
L45520 33895
" />
<path d="M45680 31345
L45660 32740
" />
<path d="M47161 28818
L46807 27763
" />
<path d="M47122 30121
L47161 28818
" />
<path d="M45330 34875
L44895 36325
" />
<path d="M46807 27763
L45200 28290
" />
<path d="M45200 28290
L45525 29775
" />
<path d="M45525 29775
L45595 30265
" />
<path d="M45595 30265
L45680 31345
" />
<path d="M46765 34933
L45485 34470
" />
<path d="M44327 42360
L43425 39165
" />
<path d="M43805 38585
L43425 39165
" />
<path d="M46586 32519
L45688 32460
" />
</g>
<g style="fill:#000000; fill-opacity:0.0; 
stroke:#000000; stroke-width:300; stroke-opacity:1; 
stroke-linecap:round; stroke-linejoin:round;">
<path d="M20280 40060
L19945 39390
" />
<path d="M19410 42240
L19448 41338
" />
<path d="M19448 41338
L20280 40060
" />
<path d="M15620 35980
L16086 34965
" />
<path d="M16370 37490
L15620 35980
" />
<path d="M17566 37511
L16370 37490
" />
<path d="M17630 34190
L17818 34102
" />
<path d="M17566 37511
L17928 38209
" />
<path d="M17630 34190
L16086 34965
" />
<path d="M17728 31854
L17818 34102
" />
<path d="M18125 28610
L17728 31854
" />
<path d="M18428 27763
L18125 28610
" />
<path d="M17389 25279
L17910 25484
" />
<path d="M17255 24618
L17389 25279
" />
<path d="M17614 23629
L17255 24618
" />
<path d="M18311 22204
L17614 23629
" />
<path d="M19047 22094
L18311 22204
" />
<path d="M20921 22862
L19047 22094
" />
<path d="M21381 22763
L20921 22862
" />
<path d="M22637 21287
L21381 22763
" />
<path d="M24629 19444
L22637 21287
" />
<path d="M25110 19125
L24629 19444
" />
<path d="M25862 18705
L25110 19125
" />
<path d="M31080 16860
L30720 15230
" />
<path d="M31450 17090
L31080 16860
" />
<path d="M32750 16880
L31450 17090
" />
<path d="M34670 17060
L32750 16880
" />
<path d="M36390 17410
L34670 17060
" />
<path d="M37566 17923
L36390 17410
" />
<path d="M29750 14560
L30720 15230
" />
<path d="M27240 15470
L29750 14560
" />
<path d="M27168 16767
L27240 15470
" />
<path d="M41100 16690
L39873 17549
" />
<path d="M43370 17940
L41100 16690
" />
<path d="M43500 18960
L43370 17940
" />
<path d="M43130 19510
L43500 18960
" />
<path d="M46000 25240
L46290 24530
" />
<path d="M46140 25911
L46000 25240
" />
<path d="M46290 24530
L46450 24020
" />
<path d="M44650 21420
L43190 20110
" />
<path d="M46450 24020
L44650 21420
" />
<path d="M43190 20110
L43130 19510
" />
<path d="M46530 36900
L46184 37636
" />
<path d="M47230 36700
L46530 36900
" />
<path d="M48370 37140
L47230 36700
" />
<path d="M49300 36900
L48370 37140
" />
<path d="M49590 36170
L49300 36900
" />
<path d="M49970 34130
L49590 36170
" />
<path d="M50120 31760
L49970 34130
" />
<path d="M49710 28190
L50120 31760
" />
<path d="M49300 27370
L49710 28190
" />
<path d="M48620 27120
L49300 27370
" />
<path d="M47993 27336
L48620 27120
" />
<path d="M45992 40913
L45585 42170
" />
<path d="M46413 39962
L45992 40913
" />
<path d="M45585 42170
L45193 42860
" />
</g>
<g style="fill:#000000; fill-opacity:1.0; 
stroke:#000000; stroke-width:100; stroke-opacity:1; 
stroke-linecap:round; stroke-linejoin:round;">
<polyline style="fill-rule:evenodd;"
points="36319,13836
39763,14905
42880,16597
45596,18838
47837,21554
49529,24671
50598,28115
50972,31822
50872,33745
50577,35617
50099,37422
49447,39149
48632,40788
47662,42329
46549,43762
46429,43888
46510,43749
46487,43664
46078,43428
46074,43435
45987,43385
45991,43378
45984,43374
46003,43341
46128,43341
46537,43577
46622,43554
46837,43183
46850,43084
46824,42988
46763,42909
46677,42859
46528,42773
46443,42796
46128,43341
46003,43341
46034,43287
46041,43291
46356,42746
46333,42661
46184,42574
46098,42525
45999,42512
45941,42527
45895,42433
45933,42366
45952,42332
45952,42331
45953,42330
45965,42294
45989,42219
45989,42218
46366,41056
46485,40788
46505,40785
46592,40737
46653,40659
47029,39922
47056,39826
47044,39727
46996,39641
46917,39579
46426,39329
46331,39302
46329,39302
45865,39062
45795,39007
45304,38757
45208,38730
45138,38738
45027,38678
47123,38678
47151,38762
47252,38814
47340,38859
47439,38867
47534,38836
47610,38771
47769,38459
47741,38375
47373,38187
47123,38678
45027,38678
44501,38393
46665,38393
46696,38488
46760,38563
46849,38609
46950,38660
47034,38633
47284,38142
47198,38098
47419,38098
47787,38286
47871,38258
48030,37946
48038,37847
48007,37752
47943,37677
47854,37631
47753,37580
47669,37607
47419,38098
47198,38098
46916,37954
46832,37982
46673,38294
46665,38393
44501,38393
44493,38389
44576,38244
44591,38224
44601,38202
44613,38181
44621,38157
44794,37771
45542,37771
45553,37870
45602,37957
45680,38018
46171,38269
46267,38296
46366,38284
46452,38235
46514,38157
46706,37781
46934,37781
46962,37865
47330,38053
47580,37562
47552,37478
47451,37426
47363,37381
47264,37373
47169,37404
47093,37469
46934,37781
46706,37781
46889,37421
46916,37325
46905,37226
46896,37211
47211,37121
48157,37486
48162,37491
48231,37515
48262,37527
48269,37528
48313,37543
48346,37541
48379,37547
48425,37537
48431,37537
48463,37528
48535,37512
48540,37509
49391,37289
49461,37274
49501,37246
49545,37225
49566,37202
49592,37184
49618,37143
49651,37107
49674,37039
49961,36317
49976,36281
49976,36281
49976,36281
49983,36242
50360,34218
50366,34194
50367,34179
50370,34164
50370,34140
50518,31789
50521,31753
50521,31749
50521,31745
50516,31710
50112,28192
50116,28161
50103,28113
50102,28105
50093,28075
50085,28046
50081,28038
50066,27991
50046,27968
49678,27231
49670,27198
49642,27161
49640,27155
49619,27129
49576,27070
49571,27066
49567,27061
49503,27025
49475,27008
49469,27006
49428,26983
49395,26978
48814,26765
48798,26753
48739,26737
48721,26730
48701,26727
48644,26712
48623,26715
48603,26712
48545,26726
48526,26729
48507,26735
48448,26749
48432,26761
48344,26792
48334,26775
48254,26716
48157,26692
48059,26707
47540,26893
47455,26945
47396,27025
47372,27121
47387,27220
47667,27997
47718,28083
47798,28142
47895,28166
47993,28151
48512,27964
48597,27913
48656,27833
48680,27736
48665,27638
48634,27551
49013,27690
49320,28305
49718,31770
49704,31987
49690,31979
49252,31949
49185,32007
49138,32674
49146,32675
49139,32774
49131,32774
49085,33441
49143,33508
49581,33539
49607,33530
49572,34080
49203,36058
49003,36563
48394,36720
47437,36351
47428,36343
47363,36322
47337,36312
47325,36310
47276,36294
47248,36297
47220,36292
47169,36303
47157,36304
47131,36312
47064,36327
47055,36333
46444,36508
46391,36516
46334,36550
46276,36580
46267,36591
46255,36598
46216,36651
46173,36701
46156,36753
46131,36808
46092,36812
46006,36861
45944,36939
45569,37676
45542,37771
44794,37771
45344,36544
45359,36515
45364,36499
45371,36484
45378,36452
45781,35109
46060,35210
46061,35215
46121,35294
46207,35344
46952,35600
47050,35614
47146,35588
47156,35581
47527,35581
47533,35680
47576,35770
47651,35836
47964,35943
47976,35937
48138,35937
48176,36017
48489,36124
48589,36118
48678,36075
48744,36000
48776,35906
48826,35762
48787,35682
48285,35509
48138,35937
47976,35937
48043,35905
48190,35477
48010,35415
48318,35415
48820,35588
48899,35549
48949,35405
48981,35311
48975,35211
48932,35122
48857,35056
48544,34948
48465,34987
48318,35415
48010,35415
47688,35304
47609,35343
47559,35487
47527,35581
47156,35581
47226,35528
47276,35442
47383,35130
47682,35130
47721,35209
48223,35382
48370,34954
48332,34875
48019,34767
47919,34773
47830,34817
47764,34891
47732,34986
47682,35130
47383,35130
47481,34847
47494,34748
47469,34652
47409,34573
47323,34523
46578,34266
46480,34253
46407,34272
45985,34119
46004,34020
46010,34004
46014,33972
46020,33941
46020,33923
46095,33300
47037,33366
47136,33353
47222,33304
47265,33248
48294,33248
48326,33342
48391,33417
48480,33462
48918,33492
48985,33434
49032,32767
48394,32722
48327,32780
48301,33149
48294,33248
47265,33248
47283,33225
47309,33129
47349,32556
48343,32556
48401,32623
49039,32667
49085,32000
49027,31933
48589,31902
48495,31934
48420,31999
48375,32088
48369,32188
48343,32556
47349,32556
47383,32069
47371,31970
47321,31884
47243,31823
47147,31797
46174,31729
46179,31378
46182,31354
46180,31328
46180,31302
46176,31279
46096,30258
46096,30243
46092,30209
46089,30176
46085,30161
46024,29734
46023,29716
46017,29686
46013,29655
46006,29638
45785,28624
46472,28399
46481,28424
46527,28499
46659,28893
46636,29641
46621,29644
46529,29683
46459,29754
46422,29846
46423,29945
46552,30562
46591,30654
46662,30723
46754,30760
46854,30759
47624,30598
47716,30560
47786,30489
47823,30396
47822,30297
47768,30041
48057,30041
48088,30190
48108,30288
48164,30370
48248,30424
48345,30443
48669,30375
48718,30301
48625,29858
48105,29967
48057,30041
47768,30041
47693,29680
47654,29589
47639,29574
47639,29574
47959,29574
47980,29671
48011,29821
48085,29869
48234,29838
48723,29838
48816,30281
48890,30329
49214,30261
49296,30205
49350,30122
49369,30024
49348,29927
49317,29778
49243,29729
48723,29838
48234,29838
48605,29760
48512,29317
48481,29297
48610,29297
48703,29740
49223,29631
49271,29557
49240,29408
49219,29310
49163,29228
49080,29174
48982,29155
48659,29223
48610,29297
48481,29297
48438,29269
48114,29337
48032,29393
47978,29476
47959,29574
47639,29574
47659,28892
47669,28854
47662,28794
47662,28784
47656,28745
47651,28706
47647,28697
47637,28637
47616,28603
47483,28207
47494,28163
47480,28065
47200,27287
47148,27202
47068,27143
46972,27119
46873,27133
46355,27320
46270,27371
46229,27426
45515,27660
45235,26836
45229,26810
45220,26789
45212,26768
45199,26745
44740,25746
44737,25737
44720,25702
44703,25666
44697,25658
44442,25157
44434,25136
44420,25113
44408,25089
44394,25071
44085,24578
44081,24570
44058,24536
44037,24502
44031,24496
43611,23875
43603,23859
43584,23835
43566,23809
43553,23796
43117,23241
43108,23225
43087,23202
43067,23177
43054,23166
42325,22360
42309,22339
42292,22324
42277,22307
42256,22291
41095,21257
41078,21239
41059,21225
41040,21208
41019,21196
40111,20536
40095,20522
40071,20507
40048,20491
40029,20482
39302,20043
39608,19385
39632,19395
39729,19416
39756,19411
40035,19530
40437,19983
40413,20022
40379,20115
40383,20214
40425,20305
40498,20372
41036,20700
41129,20735
41229,20731
41319,20689
41386,20616
41797,19943
41831,19850
41827,19751
41785,19660
41712,19593
41174,19265
41119,19245
41044,19161
41665,19161
41686,19246
41817,19326
41901,19378
42000,19393
42096,19370
42177,19311
42349,19029
42328,18943
41942,18707
41665,19161
41044,19161
40743,18821
41197,18821
41220,18918
41279,18998
41364,19050
41494,19129
41580,19108
41857,18655
41802,18622
41994,18622
42380,18858
42466,18837
42639,18554
42654,18456
42631,18359
42572,18279
42487,18227
42357,18148
42271,18168
41994,18622
41802,18622
41471,18419
41385,18440
41212,18723
41197,18821
40743,18821
40732,18809
40698,18757
40626,18708
40557,18655
40496,18639
40142,18489
40135,18478
40054,18421
39295,18093
39197,18072
39100,18090
39016,18144
38960,18225
38741,18731
38720,18829
38732,18897
38419,19572
37910,19330
37892,19319
37865,19309
37840,19297
37819,19292
36946,18963
36931,18955
36900,18946
36870,18934
36853,18931
36155,18720
36139,18713
36108,18706
36077,18697
36060,18695
35385,18540
35371,18535
35337,18529
35303,18521
35289,18521
34151,18330
34121,18322
34102,18321
34084,18318
34053,18319
32559,18251
32537,18248
32510,18249
32483,18248
32461,18251
31361,18299
31335,18298
31312,18301
31289,18302
31263,18308
30092,18481
30068,18482
30043,18488
30018,18492
29996,18500
29111,18716
29093,18718
29063,18728
29033,18736
29016,18743
28590,18880
28325,18217
28349,18207
28431,18150
28447,18126
28695,18016
29346,17996
29356,18029
29404,18117
29481,18179
29577,18207
29676,18196
30277,18008
30364,17960
30426,17883
30454,17787
30444,17688
30208,16937
30161,16850
30083,16787
29988,16759
29889,16770
29288,16958
29211,17000
28618,17018
28570,17010
28520,17021
28518,17021
28472,17032
28425,17042
28424,17043
28373,17054
28333,17082
28036,17214
28025,17212
27928,17233
27169,17561
27087,17618
27033,17701
27015,17799
27036,17896
27255,18402
27312,18484
27370,18521
27646,19213
27276,19353
27253,19359
27230,19370
27206,19379
27186,19392
26556,19703
26548,19705
26512,19724
26474,19743
26468,19748
25587,20216
25565,20225
25544,20239
25521,20251
25503,20266
24867,20687
24849,20696
24826,20714
24803,20730
24788,20744
23409,21830
23379,21852
23371,21860
23362,21867
23337,21896
22144,23168
22118,23192
22110,23203
22101,23213
22082,23244
20835,25025
20811,25057
20807,25066
20802,25073
20785,25110
20403,25901
19757,25639
19767,25609
19775,25558
19889,25273
20403,24808
20480,24846
20576,24870
20675,24857
20761,24806
20821,24727
21095,24160
21120,24064
21106,23965
21056,23879
20976,23819
20267,23477
20171,23452
20073,23465
19987,23516
19927,23595
19673,24121
19158,24586
19103,24624
19058,24694
19007,24761
18991,24825
18870,25128
18820,25164
18769,25250
18489,26027
18474,26126
18498,26222
18557,26302
18643,26354
19161,26540
19259,26555
19318,26541
19992,26813
19797,27277
19783,27302
19778,27322
19770,27341
19764,27369
19570,28035
19564,28046
19556,28082
19546,28117
19545,28130
19186,29641
19176,29674
19175,29688
19172,29702
19170,29737
19023,31325
19018,31356
19019,31374
19017,31392
19020,31423
19069,32987
19068,33017
19071,33036
19071,33054
19078,33084
19322,34664
19324,34692
19330,34713
19333,34734
19342,34760
19659,35942
19663,35964
19672,35990
19679,36017
19689,36036
19907,36636
19296,36949
19291,36940
19230,36862
19215,36853
18994,36417
18948,35819
19027,35778
19105,35717
19154,35630
19166,35531
19139,35435
18853,34874
18791,34796
18704,34747
18605,34736
18510,34763
17808,35120
17730,35182
17681,35268
17670,35367
17697,35463
17957,35973
18001,36544
17995,36593
18009,36642
18009,36642
18022,36689
18035,36736
18035,36737
18049,36786
18080,36825
18322,37303
18319,37326
18346,37421
18721,38158
18783,38236
18870,38285
18906,38289
19343,39104
19314,39156
19302,39255
19329,39351
19704,40087
19748,40143
19119,41111
19079,41166
19066,41216
19047,41264
19048,41332
19040,41513
19019,41517
18928,41578
18886,41535
18794,41497
18522,41497
18460,41560
18460,42190
18467,42190
18467,42290
18460,42290
18460,42297
18360,42297
18360,42290
17887,42290
17825,42352
17825,42656
17172,41724
17156,41698
17825,41698
17825,42127
17887,42190
18360,42190
18360,41560
18297,41497
18025,41497
17933,41535
17863,41606
17825,41698
17156,41698
16432,40466
16395,40389
18450,40389
18609,40701
18684,40766
18779,40797
18878,40789
18967,40744
19068,40692
19095,40608
18845,40117
18477,40305
18450,40389
16395,40389
16098,39777
18180,39777
18188,39876
18347,40189
18431,40216
18714,40072
18934,40072
19184,40563
19268,40590
19369,40539
19458,40494
19522,40418
19553,40323
19545,40224
19386,39912
19302,39884
18934,40072
18714,40072
18800,40028
18549,39537
18465,39510
18364,39562
18276,39607
18211,39682
18180,39777
16098,39777
15959,39492
18639,39492
18889,39983
19257,39795
19284,39711
19125,39399
19049,39334
18955,39304
18855,39311
18767,39357
18666,39408
18639,39492
15959,39492
15792,39148
15257,37773
14832,36347
14752,35964
15212,35964
15215,35986
15213,36007
15228,36063
15237,36121
15269,36173
15986,37616
15990,37639
16021,37687
16029,37703
16042,37720
16076,37773
16091,37783
16101,37797
16155,37828
16207,37863
16224,37867
16240,37876
16301,37884
16323,37889
16340,37889
16397,37896
16419,37890
17198,37905
17223,37993
17599,38730
17660,38808
17747,38857
17846,38868
17942,38841
18433,38591
18511,38530
18559,38443
18571,38344
18544,38248
18169,37512
18107,37434
18020,37385
17949,37376
17946,37362
17913,37311
17903,37292
17892,37278
17860,37228
17842,37216
17829,37199
17778,37171
17729,37137
17708,37133
17689,37122
17631,37116
17613,37112
17592,37112
17531,37105
17513,37110
16620,37094
16353,36557
16492,36557
16561,36693
16606,36781
16682,36846
16777,36877
16876,36869
17171,36719
17198,36634
16993,36231
16519,36472
16492,36557
16353,36557
16092,36032
16268,36032
16275,36131
16321,36220
16390,36356
16474,36383
16861,36186
17082,36186
17287,36589
17371,36616
17666,36466
17731,36391
17761,36296
17754,36197
17708,36108
17639,35972
17555,35945
17082,36186
16861,36186
16947,36142
16742,35739
16658,35712
16363,35862
16298,35938
16268,36032
16092,36032
16063,35973
16191,35694
16831,35694
17036,36097
17510,35856
17537,35772
17468,35636
17422,35547
17347,35482
17252,35452
17153,35459
16858,35610
16831,35694
16191,35694
16391,35260
17804,34550
17951,34481
17990,34472
18022,34448
18022,34448
18054,34425
18118,34378
18118,34378
18119,34378
18160,34310
18201,34243
18201,34242
18201,34242
18214,34164
18220,34125
18220,34125
18226,34085
18216,34046
18129,31870
18517,28702
18559,28584
18623,28569
18703,28509
18754,28424
19034,27646
19049,27548
19025,27451
18966,27371
18880,27320
18362,27133
18263,27119
18167,27143
18087,27202
18036,27287
17756,28065
17741,28163
17765,28260
17806,28315
17774,28405
17770,28409
17747,28480
17736,28512
17735,28517
17733,28522
17729,28556
17718,28630
17719,28635
17332,31798
17327,31831
17327,31837
17326,31844
17328,31877
17408,33853
15962,34580
15945,34583
15891,34615
15871,34625
15858,34636
15809,34666
15796,34684
15778,34699
15749,34748
15739,34762
15730,34782
15699,34837
15697,34854
15264,35796
15233,35850
15226,35907
15212,35964
14752,35964
14522,34876
14332,33363
14268,31824
14642,28115
14775,27687
16558,27687
16563,27786
16605,27876
16679,27943
16772,27976
16879,28015
16887,28011
17053,28011
17091,28091
17197,28129
17291,28163
17390,28158
17480,28116
17547,28043
17666,27713
17628,27633
17239,27493
17053,28011
16887,28011
16959,27977
17145,27459
16978,27399
17273,27399
17662,27539
17742,27501
17861,27171
17856,27072
17814,26982
17740,26915
17647,26881
17540,26843
17460,26880
17273,27399
16978,27399
16757,27319
16677,27357
16558,27687
14775,27687
14943,27145
16753,27145
16791,27225
17179,27365
17366,26847
17328,26767
17222,26728
17128,26694
17029,26699
16939,26741
16872,26815
16753,27145
14943,27145
15711,24671
15730,24636
16848,24636
16865,24705
16982,25283
16981,25286
16998,25361
17005,25397
17006,25400
17015,25442
17037,25472
17051,25507
17081,25537
17106,25572
17137,25593
17164,25619
17204,25635
17206,25637
17240,25650
17293,25672
17289,25699
17313,25796
17372,25876
17457,25927
17976,26114
18074,26128
18171,26104
18251,26045
18302,25960
18582,25182
18597,25084
18573,24987
18514,24907
18429,24856
17910,24669
17812,24655
17715,24679
17681,24704
17670,24648
17923,23950
18782,23950
18811,24033
19109,24177
19209,24183
19302,24150
19377,24084
19420,23995
19487,23857
19457,23774
18979,23542
18782,23950
17923,23950
17982,23786
18062,23623
18212,23623
18245,23717
18311,23791
18609,23935
18692,23906
18889,23499
18793,23452
19023,23452
19501,23684
19584,23655
19651,23517
19694,23428
19700,23328
19667,23234
19601,23160
19303,23016
19220,23045
19023,23452
18793,23452
18411,23268
18327,23297
18261,23434
18218,23524
18212,23623
18062,23623
18321,23094
18425,23094
18454,23178
18933,23409
19130,23002
19101,22918
18803,22774
18703,22768
18609,22801
18535,22867
18492,22957
18425,23094
18321,23094
18578,22569
18997,22506
20697,23202
20699,23204
20771,23233
20806,23247
20808,23247
20847,23263
20885,23262
20922,23270
20964,23261
20966,23261
21002,23253
21078,23238
21080,23237
21401,23168
21414,23170
21478,23152
21503,23146
21516,23141
21567,23126
21588,23110
21613,23099
21650,23061
21661,23052
21677,23033
21724,22985
21729,22972
22926,21564
24877,19760
25318,19467
25434,19403
25506,19416
25603,19395
26362,19066
26444,19010
26498,18926
26515,18829
26495,18731
26276,18225
26219,18144
26136,18090
26038,18072
25940,18093
25182,18421
25100,18478
25046,18561
25028,18659
25038,18707
24935,18765
24921,18770
24901,18784
24880,18796
24868,18806
24414,19107
24387,19124
24381,19129
24375,19133
24353,19156
22377,20983
22358,20998
22348,21009
22337,21020
22323,21039
21165,22401
20958,22445
19208,21728
19145,21698
19095,21696
19045,21686
18977,21700
18254,21808
18178,21818
18141,21840
18100,21855
18073,21880
18041,21899
18014,21933
17983,21962
17950,22031
17262,23438
17251,23456
17245,23473
17237,23489
17232,23510
16882,24473
16855,24539
16855,24588
16848,24636
15730,24636
17403,21554
19644,18838
20715,17954
24707,17954
24752,18058
24792,18150
24863,18219
24956,18255
25055,18254
25377,18115
25409,18032
25245,17653
24740,17872
24707,17954
20715,17954
21323,17453
24532,17453
24533,17552
24573,17644
24618,17748
24700,17780
25085,17614
25337,17614
25501,17993
25583,18025
25905,17886
25974,17815
26011,17722
26009,17623
25970,17531
25925,17427
25843,17395
25337,17614
25085,17614
25206,17562
25042,17182
24959,17150
24638,17289
24568,17361
24532,17453
21323,17453
21699,17143
25133,17143
25297,17522
25803,17303
25836,17221
25791,17117
25751,17026
25680,16956
25587,16920
25488,16921
25166,17061
25133,17143
21699,17143
22305,16643
26515,16643
26536,16740
26755,17246
26811,17328
26895,17382
26993,17400
27090,17379
27849,17050
27931,16994
27985,16910
28002,16812
27981,16715
27783,16257
28806,16257
28905,16572
28969,16649
29057,16695
29156,16704
29251,16674
29396,16628
29437,16550
29279,16043
28847,16178
28806,16257
27783,16257
27763,16209
27706,16127
27622,16074
27607,16071
27624,15755
27705,15726
28640,15726
28739,16042
28817,16083
29040,16013
29374,16013
29533,16520
29611,16561
29757,16515
29852,16486
29928,16422
29974,16334
29983,16235
29884,15919
29806,15878
29374,16013
29040,16013
29249,15948
29090,15441
29033,15411
29185,15411
29344,15918
29776,15782
29817,15704
29718,15388
29654,15312
29566,15266
29467,15257
29372,15287
29226,15333
29185,15411
29033,15411
29011,15400
28866,15445
28771,15475
28694,15539
28648,15627
28640,15726
27705,15726
29692,15006
30363,15469
30681,16910
30682,16952
30714,17022
30745,17093
30747,17095
30748,17097
30804,17150
30860,17203
30900,17219
31193,17401
31211,17420
31260,17443
31272,17450
31296,17459
31356,17486
31370,17487
31383,17492
31449,17490
31474,17491
31488,17488
31542,17487
31566,17476
32763,17283
34611,17456
36268,17793
36738,17998
36750,18066
36804,18150
36886,18207
37645,18535
37742,18556
37840,18538
37923,18484
37980,18402
38199,17896
38220,17799
38202,17701
38183,17672
39220,17672
39238,17770
39292,17854
39374,17910
40132,18239
40230,18260
40293,18248
41502,18248
41523,18334
41909,18570
42186,18116
42165,18030
42034,17951
41950,17899
41851,17884
41755,17907
41674,17966
41502,18248
40293,18248
40328,18242
40411,18188
40468,18106
40687,17600
40707,17503
40699,17458
41125,17160
42998,18192
43084,18861
42830,19238
42814,19251
42786,19303
42776,19319
42768,19338
42739,19392
42737,19411
42730,19429
42730,19490
42728,19510
42729,19529
42729,19588
42737,19607
42787,20101
42782,20132
42794,20179
42795,20189
42804,20217
42822,20286
42827,20293
42830,20302
42875,20357
42893,20381
42900,20387
42931,20425
42959,20440
44347,21686
46009,24086
45913,24394
45659,25016
45658,25016
45629,25089
45614,25125
45614,25126
45599,25164
45599,25203
45592,25242
45600,25282
45600,25283
45602,25294
45536,25334
45477,25414
45453,25511
45468,25609
45748,26387
45799,26472
45879,26531
45976,26555
46074,26540
46593,26354
46678,26302
46737,26222
46761,26126
46746,26027
46619,25675
46836,25675
46955,26005
47022,26079
47112,26121
47211,26126
47305,26092
47411,26054
47449,25974
47262,25455
46874,25595
46836,25675
46619,25675
46466,25250
46443,25211
46475,25134
46641,25134
46760,25464
46840,25501
47061,25422
47356,25422
47543,25940
47623,25978
47730,25939
47823,25905
47897,25839
47939,25749
47944,25649
47825,25319
47745,25282
47356,25422
47061,25422
47228,25361
47042,24843
46970,24809
47136,24809
47322,25327
47711,25188
47749,25108
47630,24778
47563,24704
47473,24662
47374,24657
47280,24691
47174,24729
47136,24809
46970,24809
46962,24805
46855,24844
46762,24877
46688,24944
46646,25034
46641,25134
46475,25134
46651,24702
46659,24687
46666,24665
46675,24644
46678,24628
46827,24153
46851,24092
46850,24038
46856,23983
46849,23959
46848,23933
46826,23883
46811,23831
46770,23780
45019,21251
45017,21243
44974,21186
44956,21159
44951,21154
44946,21148
44922,21127
44870,21077
44863,21074
43572,19915
43542,19613
43802,19227
43822,19209
43846,19161
43853,19150
43863,19126
43893,19067
43894,19053
43899,19040
43899,18974
43901,18948
43900,18935
43900,18881
43890,18856
43767,17897
43761,17826
43739,17783
43724,17737
43703,17713
43688,17685
43651,17654
43619,17617
43555,17585
41338,16364
41319,16345
41269,16326
41258,16320
41233,16312
41170,16288
41157,16288
41145,16284
41078,16290
41011,16291
40999,16297
40986,16298
40927,16329
40902,16339
40892,16347
40845,16371
40827,16392
39953,17005
39795,16937
39698,16916
39600,16933
39516,16987
39460,17069
39241,17575
39220,17672
38183,17672
38148,17618
38066,17561
37307,17233
37210,17212
37112,17230
37058,17265
36847,17172
37838,17172
37871,17255
38193,17394
38292,17395
38385,17359
38456,17290
38496,17198
38541,17094
38508,17012
38003,16793
37838,17172
36847,17172
36620,17073
36618,17071
36547,17042
36513,17027
36511,17027
36508,17025
36472,17018
36397,17002
36394,17002
35706,16862
37237,16862
37274,16955
37343,17026
37665,17165
37747,17133
37911,16754
37790,16702
38042,16702
38548,16920
38630,16888
38675,16784
38715,16693
38716,16593
38679,16501
38610,16429
38288,16290
38206,16322
38042,16702
37790,16702
37405,16535
37323,16567
37278,16671
37238,16763
37237,16862
35706,16862
34767,16671
34746,16665
34728,16663
34711,16660
34689,16660
32854,16488
32843,16483
32775,16480
32748,16478
32736,16479
32725,16478
32697,16483
32629,16490
32619,16495
31534,16671
31434,16609
31379,16361
37412,16361
37445,16443
37950,16662
38115,16283
38082,16201
37760,16061
37661,16060
37568,16096
37497,16166
37457,16257
37412,16361
31379,16361
31120,15189
31121,15156
31103,15112
31102,15105
31089,15075
31062,15008
31057,15003
31054,14996
31002,14946
30979,14923
30973,14919
30939,14886
30908,14874
29982,14234
29922,14190
29878,14179
29835,14161
29801,14160
29768,14152
29722,14159
29676,14158
29608,14185
27142,15079
27104,15085
27068,15106
27066,15107
27034,15126
26967,15166
26966,15167
26964,15168
26918,15231
26872,15293
26871,15295
26870,15297
26852,15372
26842,15408
26842,15410
26832,15451
26838,15489
26791,16352
26669,16405
26587,16461
26533,16545
26515,16643
22305,16643
22360,16597
25477,14905
28921,13836
32620,13463
36319,13836
" /> 
</g>
<g style="fill:#FFFFFF; fill-opacity:1.0; 
stroke:#FFFFFF; stroke-width:100; stroke-opacity:1; 
stroke-linecap:round; stroke-linejoin:round;">
</g>
<g style="fill:#000000; fill-opacity:1.0; 
stroke:#000000; stroke-width:100; stroke-opacity:1; 
stroke-linecap:round; stroke-linejoin:round;">
</g> 
</svg>
