  0
SECTION
  2
HEADER
  9
$ACADVER
  1
AC1009
  9
$DWGCODEPAGE
  3
ansi_1252
  9
$INSBASE
 10
0.0
 20
0.0
 30
0.0
  9
$EXTMIN
 10
24.9933
 20
-6.9511
 30
0.0
  9
$EXTMAX
 10
120.4933
 20
75.4445
 30
0.0
  9
$LIMMIN
 10
0.0
 20
0.0
  9
$LIMMAX
 10
12.0
 20
9.0
  9
$ORTHOMODE
 70
     0
  9
$REGENMODE
 70
     1
  9
$FILLMODE
 70
     1
  9
$QTEXTMODE
 70
     0
  9
$MIRRTEXT
 70
     1
  9
$DRAGMODE
 70
     2
  9
$LTSCALE
 40
1.0
  9
$OSMODE
 70
    37
  9
$ATTMODE
 70
     1
  9
$TEXTSIZE
 40
0.2
  9
$TRACEWID
 40
0.05
  9
$TEXTSTYLE
  7
STANDARD
  9
$CLAYER
  8
0
  9
$CELTYPE
  6
BYLAYER
  9
$CECOLOR
 62
   256
  9
$DIMSCALE
 40
1.0
  9
$DIMASZ
 40
0.18
  9
$DIMEXO
 40
0.0625
  9
$DIMDLI
 40
0.38
  9
$DIMRND
 40
0.0
  9
$DIMDLE
 40
0.0
  9
$DIMEXE
 40
0.18
  9
$DIMTP
 40
0.0
  9
$DIMTM
 40
0.0
  9
$DIMTXT
 40
0.18
  9
$DIMCEN
 40
0.09
  9
$DIMTSZ
 40
0.0
  9
$DIMTOL
 70
     0
  9
$DIMLIM
 70
     0
  9
$DIMTIH
 70
     1
  9
$DIMTOH
 70
     1
  9
$DIMSE1
 70
     0
  9
$DIMSE2
 70
     0
  9
$DIMTAD
 70
     0
  9
$DIMZIN
 70
     0
  9
$DIMBLK
  1

  9
$DIMASO
 70
     1
  9
$DIMSHO
 70
     1
  9
$DIMPOST
  1

  9
$DIMAPOST
  1

  9
$DIMALT
 70
     0
  9
$DIMALTD
 70
     2
  9
$DIMALTF
 40
25.4
  9
$DIMLFAC
 40
1.0
  9
$DIMTOFL
 70
     0
  9
$DIMTVP
 40
0.0
  9
$DIMTIX
 70
     0
  9
$DIMSOXD
 70
     0
  9
$DIMSAH
 70
     0
  9
$DIMBLK1
  1

  9
$DIMBLK2
  1

  9
$DIMSTYLE
  2
STANDARD
  9
$DIMCLRD
 70
     0
  9
$DIMCLRE
 70
     0
  9
$DIMCLRT
 70
     0
  9
$DIMTFAC
 40
1.0
  9
$DIMGAP
 40
0.09
  9
$LUNITS
 70
     2
  9
$LUPREC
 70
     4
  9
$SKETCHINC
 40
0.1
  9
$FILLETRAD
 40
0.5
  9
$AUNITS
 70
     0
  9
$AUPREC
 70
     0
  9
$MENU
  1
.
  9
$ELEVATION
 40
0.0
  9
$PELEVATION
 40
0.0
  9
$THICKNESS
 40
0.0
  9
$LIMCHECK
 70
     0
  9
$CHAMFERA
 40
0.0
  9
$CHAMFERB
 40
0.0
  9
$SKPOLY
 70
     0
  9
$TDCREATE
 40
2458341.863351065
  9
$TDUPDATE
 40
2458341.863351157
  9
$TDINDWG
 40
0.0000000116
  9
$TDUSRTIMER
 40
0.0000000116
  9
$USRTIMER
 70
     1
  9
$ANGBASE
 50
0.0
  9
$ANGDIR
 70
     0
  9
$PDMODE
 70
     0
  9
$PDSIZE
 40
0.0
  9
$PLINEWID
 40
0.0
  9
$COORDS
 70
     1
  9
$SPLFRAME
 70
     0
  9
$SPLINETYPE
 70
     6
  9
$SPLINESEGS
 70
     8
  9
$ATTDIA
 70
     0
  9
$ATTREQ
 70
     1
  9
$HANDLING
 70
     1
  9
$HANDSEED
  5
F0
  9
$SURFTAB1
 70
     6
  9
$SURFTAB2
 70
     6
  9
$SURFTYPE
 70
     6
  9
$SURFU
 70
     6
  9
$SURFV
 70
     6
  9
$UCSNAME
  2

  9
$UCSORG
 10
0.0
 20
0.0
 30
0.0
  9
$UCSXDIR
 10
1.0
 20
0.0
 30
0.0
  9
$UCSYDIR
 10
0.0
 20
1.0
 30
0.0
  9
$PUCSNAME
  2

  9
$PUCSORG
 10
0.0
 20
0.0
 30
0.0
  9
$PUCSXDIR
 10
1.0
 20
0.0
 30
0.0
  9
$PUCSYDIR
 10
0.0
 20
1.0
 30
0.0
  9
$USERI1
 70
     0
  9
$USERI2
 70
     0
  9
$USERI3
 70
     0
  9
$USERI4
 70
     0
  9
$USERI5
 70
     0
  9
$USERR1
 40
0.0
  9
$USERR2
 40
0.0
  9
$USERR3
 40
0.0
  9
$USERR4
 40
0.0
  9
$USERR5
 40
0.0
  9
$WORLDVIEW
 70
     1
  9
$SHADEDGE
 70
     3
  9
$SHADEDIF
 70
    70
  9
$TILEMODE
 70
     1
  9
$MAXACTVP
 70
    64
  9
$PLIMCHECK
 70
     0
  9
$PEXTMIN
 10
1.000000000000000E+20
 20
1.000000000000000E+20
 30
1.000000000000000E+20
  9
$PEXTMAX
 10
-1.000000000000000E+20
 20
-1.000000000000000E+20
 30
-1.000000000000000E+20
  9
$PLIMMIN
 10
0.0
 20
0.0
  9
$PLIMMAX
 10
12.0
 20
9.0
  9
$UNITMODE
 70
     0
  9
$VISRETAIN
 70
     1
  9
$PLINEGEN
 70
     0
  9
$PSLTSCALE
 70
     1
  0
ENDSEC
  0
SECTION
  2
TABLES
  0
TABLE
  2
VPORT
 70
     1
  0
VPORT
  2
*ACTIVE
 70
     0
 10
0.0
 20
0.0
 11
1.0
 21
1.0
 12
10.42990654205607
 22
4.5
 13
0.0
 23
0.0
 14
0.5
 24
0.5
 15
0.5
 25
0.5
 16
0.0
 26
0.0
 36
1.0
 17
0.0
 27
0.0
 37
0.0
 40
9.0
 41
1.972972972850329
 42
50.0
 43
0.0
 44
0.0
 50
0.0
 51
0.0
 71
     0
 72
   100
 73
     1
 74
     3
 75
     0
 76
     0
 77
     0
 78
     0
  0
ENDTAB
  0
TABLE
  2
LTYPE
 70
     1
  0
LTYPE
  2
CONTINUOUS
 70
     0
  3
Solid line
 72
    65
 73
     0
 40
0.0
  0
ENDTAB
  0
TABLE
  2
LAYER
 70
     2
  0
LAYER
  2
0
 70
     0
 62
     7
  6
CONTINUOUS
  0
LAYER
  2
LAYER_1
 70
     0
 62
     7
  6
CONTINUOUS
  0
ENDTAB
  0
TABLE
  2
STYLE
 70
     1
  0
STYLE
  2
STANDARD
 70
     0
 40
0.0
 41
1.0
 50
0.0
 71
     0
 42
0.2
  3
txt
  4

  0
ENDTAB
  0
TABLE
  2
VIEW
 70
     0
  0
ENDTAB
  0
TABLE
  2
UCS
 70
     0
  0
ENDTAB
  0
TABLE
  2
APPID
 70
     2
  0
APPID
  2
ACAD
 70
     0
  0
APPID
  2
ODA
 70
     0
  0
ENDTAB
  0
TABLE
  2
DIMSTYLE
 70
     1
  0
DIMSTYLE
  2
STANDARD
 70
     0
  3

  4

  5

  6

  7

 40
1.0
 41
0.18
 42
0.0625
 43
0.38
 44
0.18
 45
0.0
 46
0.0
 47
0.0
 48
0.0
140
0.18
141
0.09
142
0.0
143
25.4
144
1.0
145
0.0
146
1.0
147
0.09
 71
     0
 72
     0
 73
     1
 74
     1
 75
     0
 76
     0
 77
     0
 78
     0
170
     0
171
     2
172
     0
173
     0
174
     0
175
     0
176
     0
177
     0
178
     0
  0
ENDTAB
  0
ENDSEC
  0
SECTION
  2
BLOCKS
  0
BLOCK
  8
0
  2
$MODEL_SPACE
 70
     0
 10
0.0
 20
0.0
 30
0.0
  3
$MODEL_SPACE
  1

  0
ENDBLK
  5
21
  8
0
  0
BLOCK
 67
     1
  8
0
  2
$PAPER_SPACE
 70
     0
 10
0.0
 20
0.0
 30
0.0
  3
$PAPER_SPACE
  1

  0
ENDBLK
  5
1D
 67
     1
  8
0
  0
ENDSEC
  0
SECTION
  2
ENTITIES
  0
POLYLINE
  5
6C
  8
LAYER_1
 62
     1
 66
     1
 10
0.0
 20
0.0
 30
0.0
  0
VERTEX
  5
80
  8
LAYER_1
 62
     1
 10
36.0389
 20
41.9043
 30
0.0
  0
VERTEX
  5
81
  8
LAYER_1
 62
     1
 10
36.0389
 20
39.9133
 30
0.0
  0
SEQEND
  5
E3
  8
LAYER_1
 62
     1
  0
POLYLINE
  5
6D
  8
LAYER_1
 62
     1
 66
     1
 10
0.0
 20
0.0
 30
0.0
  0
VERTEX
  5
82
  8
LAYER_1
 62
     1
 10
35.0434
 20
40.9096
 30
0.0
  0
VERTEX
  5
83
  8
LAYER_1
 62
     1
 10
37.0344
 20
40.908
 30
0.0
  0
SEQEND
  5
E4
  8
LAYER_1
 62
     1
  0
POLYLINE
  5
6E
  8
LAYER_1
 62
     1
 66
     1
 10
0.0
 20
0.0
 30
0.0
  0
VERTEX
  5
84
  8
LAYER_1
 62
     1
 10
37.9867
 20
10.9806
 30
0.0
  0
VERTEX
  5
85
  8
LAYER_1
 62
     1
 10
37.9867
 20
8.9896
 30
0.0
  0
SEQEND
  5
E5
  8
LAYER_1
 62
     1
  0
POLYLINE
  5
6F
  8
LAYER_1
 62
     1
 66
     1
 10
0.0
 20
0.0
 30
0.0
  0
VERTEX
  5
86
  8
LAYER_1
 62
     1
 10
36.9912
 20
9.9859
 30
0.0
  0
VERTEX
  5
87
  8
LAYER_1
 62
     1
 10
38.9822
 20
9.9843
 30
0.0
  0
SEQEND
  5
E6
  8
LAYER_1
 62
     1
  0
POLYLINE
  5
70
  8
LAYER_1
 62
     1
 66
     1
 10
0.0
 20
0.0
 30
0.0
  0
VERTEX
  5
88
  8
LAYER_1
 62
     1
 10
57.2505
 20
64.4915
 30
0.0
  0
VERTEX
  5
89
  8
LAYER_1
 62
     1
 10
57.2505
 20
62.5005
 30
0.0
  0
SEQEND
  5
E7
  8
LAYER_1
 62
     1
  0
POLYLINE
  5
71
  8
LAYER_1
 62
     1
 66
     1
 10
0.0
 20
0.0
 30
0.0
  0
VERTEX
  5
8A
  8
LAYER_1
 62
     1
 10
56.255
 20
63.4968
 30
0.0
  0
VERTEX
  5
8B
  8
LAYER_1
 62
     1
 10
58.246
 20
63.4952
 30
0.0
  0
SEQEND
  5
E8
  8
LAYER_1
 62
     1
  0
POLYLINE
  5
72
  8
LAYER_1
 62
     1
 66
     1
 10
0.0
 20
0.0
 30
0.0
  0
VERTEX
  5
8C
  8
LAYER_1
 62
     1
 10
88.2359
 20
64.4915
 30
0.0
  0
VERTEX
  5
8D
  8
LAYER_1
 62
     1
 10
88.2359
 20
62.5005
 30
0.0
  0
SEQEND
  5
E9
  8
LAYER_1
 62
     1
  0
POLYLINE
  5
73
  8
LAYER_1
 62
     1
 66
     1
 10
0.0
 20
0.0
 30
0.0
  0
VERTEX
  5
8E
  8
LAYER_1
 62
     1
 10
87.2404
 20
63.4968
 30
0.0
  0
VERTEX
  5
8F
  8
LAYER_1
 62
     1
 10
89.2314
 20
63.4952
 30
0.0
  0
SEQEND
  5
EA
  8
LAYER_1
 62
     1
  0
POLYLINE
  5
74
  8
LAYER_1
 62
     1
 66
     1
 10
0.0
 20
0.0
 30
0.0
  0
VERTEX
  5
90
  8
LAYER_1
 62
     1
 10
109.4476
 20
41.9044
 30
0.0
  0
VERTEX
  5
91
  8
LAYER_1
 62
     1
 10
109.4476
 20
39.9134
 30
0.0
  0
SEQEND
  5
EB
  8
LAYER_1
 62
     1
  0
POLYLINE
  5
75
  8
LAYER_1
 62
     1
 66
     1
 10
0.0
 20
0.0
 30
0.0
  0
VERTEX
  5
92
  8
LAYER_1
 62
     1
 10
108.4521
 20
40.9097
 30
0.0
  0
VERTEX
  5
93
  8
LAYER_1
 62
     1
 10
110.4431
 20
40.9081
 30
0.0
  0
SEQEND
  5
EC
  8
LAYER_1
 62
     1
  0
POLYLINE
  5
76
  8
LAYER_1
 62
     1
 66
     1
 10
0.0
 20
0.0
 30
0.0
  0
VERTEX
  5
94
  8
LAYER_1
 62
     1
 10
107.4999
 20
10.9806
 30
0.0
  0
VERTEX
  5
95
  8
LAYER_1
 62
     1
 10
107.4999
 20
8.9896
 30
0.0
  0
SEQEND
  5
ED
  8
LAYER_1
 62
     1
  0
POLYLINE
  5
77
  8
LAYER_1
 62
     1
 66
     1
 10
0.0
 20
0.0
 30
0.0
  0
VERTEX
  5
96
  8
LAYER_1
 62
     1
 10
106.5044
 20
9.9859
 30
0.0
  0
VERTEX
  5
97
  8
LAYER_1
 62
     1
 10
108.4954
 20
9.9843
 30
0.0
  0
SEQEND
  5
EE
  8
LAYER_1
 62
     1
  0
POLYLINE
  5
78
  8
LAYER_1
 62
     1
 66
     1
 10
0.0
 20
0.0
 30
0.0
 70
     1
  0
VERTEX
  5
98
  8
LAYER_1
 62
     1
 10
99.6907
 20
-2.9354
 30
0.0
  0
VERTEX
  5
99
  8
LAYER_1
 62
     1
 10
105.5679
 20
-6.6356
 30
0.0
  0
VERTEX
  5
9A
  8
LAYER_1
 62
     1
 10
108.7946
 20
-3.2314
 30
0.0
  0
VERTEX
  5
9B
  8
LAYER_1
 62
     1
 10
111.6757
 20
0.4782
 30
0.0
  0
VERTEX
  5
9C
  8
LAYER_1
 62
     1
 10
114.185
 20
4.4673
 30
0.0
  0
VERTEX
  5
9D
  8
LAYER_1
 62
     1
 10
116.2965
 20
8.7098
 30
0.0
  0
VERTEX
  5
9E
  8
LAYER_1
 62
     1
 10
117.9841
 20
13.1798
 30
0.0
  0
VERTEX
  5
9F
  8
LAYER_1
 62
     1
 10
119.2218
 20
17.8512
 30
0.0
  0
VERTEX
  5
A0
  8
LAYER_1
 62
     1
 10
119.9836
 20
22.6981
 30
0.0
  0
VERTEX
  5
A1
  8
LAYER_1
 62
     1
 10
120.2433
 20
27.6945
 30
0.0
  0
VERTEX
  5
A2
  8
LAYER_1
 62
     1
 10
119.2783
 20
37.2674
 30
0.0
  0
VERTEX
  5
A3
  8
LAYER_1
 62
     1
 10
116.5105
 20
46.1836
 30
0.0
  0
VERTEX
  5
A4
  8
LAYER_1
 62
     1
 10
112.131
 20
54.2522
 30
0.0
  0
VERTEX
  5
A5
  8
LAYER_1
 62
     1
 10
106.3309
 20
61.2821
 30
0.0
  0
VERTEX
  5
A6
  8
LAYER_1
 62
     1
 10
99.301
 20
67.0822
 30
0.0
  0
VERTEX
  5
A7
  8
LAYER_1
 62
     1
 10
91.2324
 20
71.4617
 30
0.0
  0
VERTEX
  5
A8
  8
LAYER_1
 62
     1
 10
82.3162
 20
74.2295
 30
0.0
  0
VERTEX
  5
A9
  8
LAYER_1
 62
     1
 10
72.7433
 20
75.1945
 30
0.0
  0
VERTEX
  5
AA
  8
LAYER_1
 62
     1
 10
63.1704
 20
74.2295
 30
0.0
  0
VERTEX
  5
AB
  8
LAYER_1
 62
     1
 10
54.2542
 20
71.4617
 30
0.0
  0
VERTEX
  5
AC
  8
LAYER_1
 62
     1
 10
46.1856
 20
67.0822
 30
0.0
  0
VERTEX
  5
AD
  8
LAYER_1
 62
     1
 10
39.1557
 20
61.2821
 30
0.0
  0
VERTEX
  5
AE
  8
LAYER_1
 62
     1
 10
33.3556
 20
54.2522
 30
0.0
  0
VERTEX
  5
AF
  8
LAYER_1
 62
     1
 10
28.9761
 20
46.1836
 30
0.0
  0
VERTEX
  5
B0
  8
LAYER_1
 62
     1
 10
26.2083
 20
37.2674
 30
0.0
  0
VERTEX
  5
B1
  8
LAYER_1
 62
     1
 10
25.2433
 20
27.6945
 30
0.0
  0
VERTEX
  5
B2
  8
LAYER_1
 62
     1
 10
25.41
 20
23.6868
 30
0.0
  0
VERTEX
  5
B3
  8
LAYER_1
 62
     1
 10
25.9014
 20
19.7713
 30
0.0
  0
VERTEX
  5
B4
  8
LAYER_1
 62
     1
 10
26.7039
 20
15.9615
 30
0.0
  0
VERTEX
  5
B5
  8
LAYER_1
 62
     1
 10
27.8044
 20
12.2707
 30
0.0
  0
VERTEX
  5
B6
  8
LAYER_1
 62
     1
 10
29.1894
 20
8.712
 30
0.0
  0
VERTEX
  5
B7
  8
LAYER_1
 62
     1
 10
30.8456
 20
5.2989
 30
0.0
  0
VERTEX
  5
B8
  8
LAYER_1
 62
     1
 10
32.7597
 20
2.0446
 30
0.0
  0
VERTEX
  5
B9
  8
LAYER_1
 62
     1
 10
34.9183
 20
-1.0375
 30
0.0
  0
VERTEX
  5
BA
  8
LAYER_1
 62
     1
 10
43.9959
 20
-1.0283
 30
0.0
  0
VERTEX
  5
BB
  8
LAYER_1
 62
     1
 10
43.9959
 20
3.7298
 30
0.0
  0
VERTEX
  5
BC
  8
LAYER_1
 62
     1
 10
46.556
 20
10.1843
 30
0.0
  0
VERTEX
  5
BD
  8
LAYER_1
 62
     1
 10
45.3645
 20
12.1086
 30
0.0
  0
VERTEX
  5
BE
  8
LAYER_1
 62
     1
 10
44.3105
 20
14.1215
 30
0.0
  0
VERTEX
  5
BF
  8
LAYER_1
 62
     1
 10
43.4007
 20
16.2165
 30
0.0
  0
VERTEX
  5
C0
  8
LAYER_1
 62
     1
 10
42.6416
 20
18.3871
 30
0.0
  0
VERTEX
  5
C1
  8
LAYER_1
 62
     1
 10
42.0397
 20
20.6267
 30
0.0
  0
VERTEX
  5
C2
  8
LAYER_1
 62
     1
 10
41.6016
 20
22.9289
 30
0.0
  0
VERTEX
  5
C3
  8
LAYER_1
 62
     1
 10
41.334
 20
25.287
 30
0.0
  0
VERTEX
  5
C4
  8
LAYER_1
 62
     1
 10
41.2433
 20
27.6945
 30
0.0
  0
VERTEX
  5
C5
  8
LAYER_1
 62
     1
 10
41.8833
 20
34.0429
 30
0.0
  0
VERTEX
  5
C6
  8
LAYER_1
 62
     1
 10
43.7187
 20
39.9557
 30
0.0
  0
VERTEX
  5
C7
  8
LAYER_1
 62
     1
 10
46.623
 20
45.3065
 30
0.0
  0
VERTEX
  5
C8
  8
LAYER_1
 62
     1
 10
50.4694
 20
49.9684
 30
0.0
  0
VERTEX
  5
C9
  8
LAYER_1
 62
     1
 10
55.1313
 20
53.8148
 30
0.0
  0
VERTEX
  5
CA
  8
LAYER_1
 62
     1
 10
60.4821
 20
56.7191
 30
0.0
  0
VERTEX
  5
CB
  8
LAYER_1
 62
     1
 10
66.3949
 20
58.5545
 30
0.0
  0
VERTEX
  5
CC
  8
LAYER_1
 62
     1
 10
72.7433
 20
59.1945
 30
0.0
  0
VERTEX
  5
CD
  8
LAYER_1
 62
     1
 10
79.0917
 20
58.5545
 30
0.0
  0
VERTEX
  5
CE
  8
LAYER_1
 62
     1
 10
85.0045
 20
56.7191
 30
0.0
  0
VERTEX
  5
CF
  8
LAYER_1
 62
     1
 10
90.3553
 20
53.8148
 30
0.0
  0
VERTEX
  5
D0
  8
LAYER_1
 62
     1
 10
95.0172
 20
49.9684
 30
0.0
  0
VERTEX
  5
D1
  8
LAYER_1
 62
     1
 10
98.8636
 20
45.3065
 30
0.0
  0
VERTEX
  5
D2
  8
LAYER_1
 62
     1
 10
101.7679
 20
39.9557
 30
0.0
  0
VERTEX
  5
D3
  8
LAYER_1
 62
     1
 10
103.6033
 20
34.0429
 30
0.0
  0
VERTEX
  5
D4
  8
LAYER_1
 62
     1
 10
104.2433
 20
27.6945
 30
0.0
  0
VERTEX
  5
D5
  8
LAYER_1
 62
     1
 10
104.1359
 20
25.0746
 30
0.0
  0
VERTEX
  5
D6
  8
LAYER_1
 62
     1
 10
103.8193
 20
22.514
 30
0.0
  0
VERTEX
  5
D7
  8
LAYER_1
 62
     1
 10
103.302
 20
20.0211
 30
0.0
  0
VERTEX
  5
D8
  8
LAYER_1
 62
     1
 10
102.5925
 20
17.6045
 30
0.0
  0
VERTEX
  5
D9
  8
LAYER_1
 62
     1
 10
101.6991
 20
15.2725
 30
0.0
  0
VERTEX
  5
DA
  8
LAYER_1
 62
     1
 10
100.6305
 20
13.0336
 30
0.0
  0
VERTEX
  5
DB
  8
LAYER_1
 62
     1
 10
99.395
 20
10.8963
 30
0.0
  0
VERTEX
  5
DC
  8
LAYER_1
 62
     1
 10
98.0011
 20
8.869
 30
0.0
  0
VERTEX
  5
DD
  8
LAYER_1
 62
     1
 10
99.6907
 20
3.0728
 30
0.0
  0
VERTEX
  5
DE
  8
LAYER_1
 62
     1
 10
99.6907
 20
-0.8023
 30
0.0
  0
VERTEX
  5
DF
  8
LAYER_1
 62
     1
 10
99.6907
 20
-1.891
 30
0.0
  0
VERTEX
  5
E0
  8
LAYER_1
 62
     1
 10
99.6907
 20
-2.9354
 30
0.0
  0
SEQEND
  5
EF
  8
LAYER_1
 62
     1
  0
ENDSEC
  0
EOF
