<?xml version="1.0" standalone="no"?>
 <!DOCTYPE svg PUBLIC "-//W3C//DTD SVG 1.1//EN" 
 "http://www.w3.org/Graphics/SVG/1.1/DTD/svg11.dtd"> 
<svg xmlns="http://www.w3.org/2000/svg" version="1.1" 
    width="29.7002cm" height="21.0007cm" viewBox="0 0 116930 82680 ">
<title>SVG Picture created as left_gauge-F.Cu.svg date 2018/09/08 11:47:39 </title>
  <desc>Picture generated by PCBNEW </desc>
<g style="fill:#000000; fill-opacity:1;stroke:#000000; stroke-opacity:1;
stroke-linecap:round; stroke-linejoin:round; "
 transform="translate(0 0) scale(1 1)">
</g>
<g style="fill:#000000; fill-opacity:0.0; 
stroke:#000000; stroke-width:-0.000393701; stroke-opacity:1; 
stroke-linecap:round; stroke-linejoin:round;">
</g>
<g style="fill:#000000; fill-opacity:0.0; 
stroke:#000000; stroke-width:196.85; stroke-opacity:1; 
stroke-linecap:round; stroke-linejoin:round;">
<path d="M32618 19427
L34038 19507
" />
<path d="M35410 19743
L36727 20124
" />
<path d="M34038 19507
L35410 19743
" />
<path d="M27791 20402
L30119 19679
" />
<path d="M36387 13508
L32618 13128
" />
<path d="M32618 13128
L28849 13508
" />
</g>
<g style="fill:#000000; fill-opacity:0.0; 
stroke:#000000; stroke-width:39.3701; stroke-opacity:1; 
stroke-linecap:round; stroke-linejoin:round;">
<path d="M32618 19427
L32618 19427
" />
</g>
<g style="fill:#000000; fill-opacity:0.0; 
stroke:#000000; stroke-width:196.85; stroke-opacity:1; 
stroke-linecap:round; stroke-linejoin:round;">
<path d="M30119 19679
L32618 19427
" />
<path d="M28849 13508
L25339 14597
" />
<path d="M25684 21545
L27791 20402
" />
<path d="M25339 14597
L22163 16322
" />
<path d="M19395 18605
L17111 21373
" />
<path d="M22163 16322
L19395 18605
" />
<path d="M23849 23059
L25684 21545
" />
<path d="M22086 38379
L21610 37544
" />
<path d="M22624 39172
L22086 38379
" />
<path d="M20853 35760
L20580 34818
" />
<path d="M21198 36670
L20853 35760
" />
<path d="M21610 37544
L21198 36670
" />
<path d="M21687 41534
L22624 39172
" />
<path d="M20002 45632
L21687 47002
" />
<path d="M16038 40485
L17161 42356
" />
<path d="M17161 42356
L18488 44077
" />
<path d="M21687 47002
L21687 41534
" />
<path d="M18488 44077
L20002 45632
" />
<path d="M22335 24895
L23849 23059
" />
<path d="M20469 29329
L21191 27001
" />
<path d="M20217 31829
L20469 29329
" />
<path d="M15387 24550
L14297 28060
" />
<path d="M21191 27001
L22335 24895
" />
<path d="M17111 21373
L15387 24550
" />
<path d="M14297 28060
L13918 31829
" />
<path d="M14058 34135
L14470 36357
" />
<path d="M14470 36357
L15135 38479
" />
<path d="M13918 31829
L14058 34135
" />
<path d="M15135 38479
L16038 40485
" />
<path d="M20258 32849
L20217 31829
" />
<path d="M20380 33846
L20258 32849
" />
<path d="M20580 34818
L20380 33846
" />
<path d="M46788 44031
L48104 42314
" />
<path d="M45286 45584
L46788 44031
" />
<path d="M48104 42314
L49218 40449
" />
<path d="M43614 46955
L45286 45584
" />
<path d="M43614 40820
L43614 46955
" />
<path d="M44994 31025
L45020 31829
" />
<path d="M44794 29459
L44918 30234
" />
<path d="M44143 27241
L44405 27961
" />
<path d="M44405 27961
L44622 28701
" />
<path d="M44622 28701
L44794 29459
" />
<path d="M44918 30234
L44994 31025
" />
<path d="M39897 14597
L36387 13508
" />
<path d="M36727 20124
L37979 20643
" />
<path d="M45842 18605
L43074 16322
" />
<path d="M37979 20643
L39158 21290
" />
<path d="M40255 22057
L41260 22934
" />
<path d="M48125 21373
L45842 18605
" />
<path d="M43074 16322
L39897 14597
" />
<path d="M39158 21290
L40255 22057
" />
<path d="M49850 24550
L48125 21373
" />
<path d="M51319 31829
L50939 28060
" />
<path d="M45020 31829
L44982 32806
" />
<path d="M44982 32806
L44870 33762
" />
<path d="M50939 28060
L49850 24550
" />
<path d="M51180 34124
L51319 31829
" />
<path d="M44687 34695
L44435 35601
" />
<path d="M49218 40449
L50112 38451
" />
<path d="M50112 38451
L50772 36337
" />
<path d="M44870 33762
L44687 34695
" />
<path d="M50772 36337
L51180 34124
" />
<path d="M43840 26543
L44143 27241
" />
<path d="M43622 22932
L44943 24891
" />
<path d="M41260 22934
L42166 23914
" />
<path d="M42166 23914
L43622 22932
" />
<path d="M43495 25867
L43840 26543
" />
<path d="M44943 24891
L43495 25867
" />
<path d="M43738 37323
L43299 38134
" />
<path d="M44435 35601
L44118 36478
" />
<path d="M43299 38134
L42802 38906
" />
<path d="M44118 36478
L43738 37323
" />
<path d="M42802 38906
L43614 40820
" />
</g>
<g style="fill:#000000; fill-opacity:0.0; 
stroke:#000000; stroke-width:0; stroke-opacity:1; 
stroke-linecap:round; stroke-linejoin:round;">
</g>
<g style="fill:#000000; fill-opacity:1.0; 
stroke:#000000; stroke-width:0; stroke-opacity:1; 
stroke-linecap:round; stroke-linejoin:round;">
<polyline style="fill-rule:evenodd;"
points="48461,33052
48535,31992
49536,32062
49462,33122
48461,33052
" /> 
<polyline style="fill-rule:evenodd;"
points="45967,32878
46041,31818
47042,31888
46968,32948
45967,32878
" /> 
<polyline style="fill-rule:evenodd;"
points="45230,43925
45237,43926
45243,43928
45250,43930
45255,43933
45261,43936
45266,43940
45271,43944
45276,43949
45280,43954
45283,43960
45286,43966
45288,43972
45290,43979
45291,43985
45291,43992
45291,44527
45291,44534
45290,44540
45288,44546
45286,44553
45283,44559
45280,44564
45276,44570
45271,44574
45266,44579
45261,44583
45255,44586
45250,44589
45243,44591
45237,44593
45230,44594
45224,44594
44374,44594
44367,44594
44360,44593
44354,44591
44348,44589
44342,44586
44336,44583
44331,44579
44326,44574
44322,44570
44318,44564
44314,44559
44312,44553
44309,44546
44308,44540
44307,44534
44307,44527
44307,43992
44307,43985
44308,43979
44309,43972
44312,43966
44314,43960
44318,43954
44322,43949
44326,43944
44331,43940
44336,43936
44342,43933
44348,43930
44354,43928
44360,43926
44367,43925
44374,43925
45224,43925
45230,43925
" /> 
<polyline style="fill-rule:evenodd;"
points="45230,42925
45237,42926
45243,42928
45250,42930
45255,42933
45261,42936
45266,42940
45271,42944
45276,42949
45280,42954
45283,42960
45286,42966
45288,42972
45290,42979
45291,42985
45291,42992
45291,43527
45291,43534
45290,43540
45288,43546
45286,43553
45283,43559
45280,43564
45276,43570
45271,43574
45266,43579
45261,43583
45255,43586
45250,43589
45243,43591
45237,43593
45230,43594
45224,43594
44374,43594
44367,43594
44360,43593
44354,43591
44348,43589
44342,43586
44336,43583
44331,43579
44326,43574
44322,43570
44318,43564
44314,43559
44312,43553
44309,43546
44308,43540
44307,43534
44307,43527
44307,42992
44307,42985
44308,42979
44309,42972
44312,42966
44314,42960
44318,42954
44322,42949
44326,42944
44331,42940
44336,42936
44342,42933
44348,42930
44354,42928
44360,42926
44367,42925
44374,42925
45224,42925
45230,42925
" /> 
<polyline style="fill-rule:evenodd;"
points="45230,41925
45237,41926
45243,41928
45250,41930
45255,41933
45261,41936
45266,41940
45271,41944
45276,41949
45280,41954
45283,41960
45286,41966
45288,41972
45290,41979
45291,41985
45291,41992
45291,42527
45291,42534
45290,42540
45288,42546
45286,42553
45283,42559
45280,42564
45276,42570
45271,42574
45266,42579
45261,42583
45255,42586
45250,42589
45243,42591
45237,42593
45230,42594
45224,42594
44374,42594
44367,42594
44360,42593
44354,42591
44348,42589
44342,42586
44336,42583
44331,42579
44326,42574
44322,42570
44318,42564
44314,42559
44312,42553
44309,42546
44308,42540
44307,42534
44307,42527
44307,41992
44307,41985
44308,41979
44309,41972
44312,41966
44314,41960
44318,41954
44322,41949
44326,41944
44331,41940
44336,41936
44342,41933
44348,41930
44354,41928
44360,41926
44367,41925
44374,41925
45224,41925
45230,41925
" /> 
<polyline style="fill-rule:evenodd;"
points="20904,41933
20910,41934
20917,41935
20923,41938
20929,41940
20934,41944
20940,41948
20944,41952
20949,41957
20953,41962
20956,41968
20959,41974
20961,41980
20963,41986
20964,41993
20964,42000
20964,42535
20964,42541
20963,42548
20961,42554
20959,42561
20956,42566
20953,42572
20949,42577
20944,42582
20940,42587
20934,42591
20929,42594
20923,42597
20917,42599
20910,42601
20904,42602
20897,42602
20047,42602
20040,42602
20034,42601
20027,42599
20021,42597
20015,42594
20010,42591
20004,42587
19999,42582
19995,42577
19991,42572
19988,42566
19985,42561
19983,42554
19981,42548
19980,42541
19980,42535
19980,42000
19980,41993
19981,41986
19983,41980
19985,41974
19988,41968
19991,41962
19995,41957
19999,41952
20004,41948
20010,41944
20015,41940
20021,41938
20027,41935
20034,41934
20040,41933
20047,41933
20897,41933
20904,41933
" /> 
<polyline style="fill-rule:evenodd;"
points="20904,42933
20910,42934
20917,42935
20923,42938
20929,42940
20934,42944
20940,42948
20944,42952
20949,42957
20953,42962
20956,42968
20959,42974
20961,42980
20963,42986
20964,42993
20964,43000
20964,43535
20964,43541
20963,43548
20961,43554
20959,43561
20956,43566
20953,43572
20949,43577
20944,43582
20940,43587
20934,43591
20929,43594
20923,43597
20917,43599
20910,43601
20904,43602
20897,43602
20047,43602
20040,43602
20034,43601
20027,43599
20021,43597
20015,43594
20010,43591
20004,43587
19999,43582
19995,43577
19991,43572
19988,43566
19985,43561
19983,43554
19981,43548
19980,43541
19980,43535
19980,43000
19980,42993
19981,42986
19983,42980
19985,42974
19988,42968
19991,42962
19995,42957
19999,42952
20004,42948
20010,42944
20015,42940
20021,42938
20027,42935
20034,42934
20040,42933
20047,42933
20897,42933
20904,42933
" /> 
<polyline style="fill-rule:evenodd;"
points="20904,43933
20910,43934
20917,43935
20923,43938
20929,43940
20934,43944
20940,43948
20944,43952
20949,43957
20953,43962
20956,43968
20959,43974
20961,43980
20963,43986
20964,43993
20964,44000
20964,44535
20964,44541
20963,44548
20961,44554
20959,44561
20956,44566
20953,44572
20949,44577
20944,44582
20940,44587
20934,44591
20929,44594
20923,44597
20917,44599
20910,44601
20904,44602
20897,44602
20047,44602
20040,44602
20034,44601
20027,44599
20021,44597
20015,44594
20010,44591
20004,44587
19999,44582
19995,44577
19991,44572
19988,44566
19985,44561
19983,44554
19981,44548
19980,44541
19980,44535
19980,44000
19980,43993
19981,43986
19983,43980
19985,43974
19988,43968
19991,43962
19995,43957
19999,43952
20004,43948
20010,43944
20015,43940
20021,43938
20027,43935
20034,43934
20040,43933
20047,43933
20897,43933
20904,43933
" /> 
<polyline style="fill-rule:evenodd;"
points="47409,38613
46918,38363
47294,37627
47785,37877
47409,38613
" /> 
<polyline style="fill-rule:evenodd;"
points="46287,38042
45796,37791
46171,37055
46662,37305
46287,38042
" /> 
<polyline style="fill-rule:evenodd;"
points="46426,40543
45935,40293
46311,39556
46802,39806
46426,40543
" /> 
<polyline style="fill-rule:evenodd;"
points="45304,39971
44813,39721
45188,38984
45679,39234
45304,39971
" /> 
<polyline style="fill-rule:evenodd;"
points="47240,28151
46721,28338
46441,27560
46960,27373
47240,28151
" /> 
<polyline style="fill-rule:evenodd;"
points="48425,27724
47907,27911
47627,27133
48145,26947
48425,27724
" /> 
<polyline style="fill-rule:evenodd;"
points="46506,26114
45988,26301
45708,25523
46226,25336
46506,26114
" /> 
<polyline style="fill-rule:evenodd;"
points="47692,25687
47173,25874
46893,25096
47412,24909
47692,25687
" /> 
<polyline style="fill-rule:evenodd;"
points="38465,16639
38246,17145
37488,16816
37707,16311
38465,16639
" /> 
<polyline style="fill-rule:evenodd;"
points="37965,17795
37746,18301
36987,17973
37206,17467
37965,17795
" /> 
<polyline style="fill-rule:evenodd;"
points="40453,17499
40234,18005
39475,17676
39694,17170
40453,17499
" /> 
<polyline style="fill-rule:evenodd;"
points="39952,18655
39733,19161
38975,18833
39193,18327
39952,18655
" /> 
<polyline style="fill-rule:evenodd;"
points="28029,17467
28248,17973
27489,18301
27270,17795
28029,17467
" /> 
<polyline style="fill-rule:evenodd;"
points="27529,16311
27748,16816
26989,17145
26770,16639
27529,16311
" /> 
<polyline style="fill-rule:evenodd;"
points="26042,18327
26261,18833
25502,19161
25283,18655
26042,18327
" /> 
<polyline style="fill-rule:evenodd;"
points="25541,17170
25760,17676
25002,18005
24783,17499
25541,17170
" /> 
<polyline style="fill-rule:evenodd;"
points="17090,26947
17609,27133
17329,27911
16810,27724
17090,26947
" /> 
<polyline style="fill-rule:evenodd;"
points="18275,27373
18794,27560
18514,28338
17995,28151
18275,27373
" /> 
<polyline style="fill-rule:evenodd;"
points="17824,24909
18342,25096
18062,25874
17544,25687
17824,24909
" /> 
<polyline style="fill-rule:evenodd;"
points="19009,25336
19528,25523
19247,26301
18729,26114
19009,25336
" /> 
<polyline style="fill-rule:evenodd;"
points="18573,37306
19064,37055
19439,37792
18948,38042
18573,37306
" /> 
<polyline style="fill-rule:evenodd;"
points="17450,37878
17942,37627
18317,38364
17826,38614
17450,37878
" /> 
<polyline style="fill-rule:evenodd;"
points="19556,39235
20047,38985
20423,39721
19931,39972
19556,39235
" /> 
<polyline style="fill-rule:evenodd;"
points="18434,39807
18925,39557
19300,40293
18809,40544
18434,39807
" /> 
<polyline style="fill-rule:evenodd;"
points="41169,20483
40631,20155
41041,19482
41579,19811
41169,20483
" /> 
<polyline style="fill-rule:evenodd;"
points="41989,19139
41452,18810
41862,18138
42399,18466
41989,19139
" /> 
<polyline style="fill-rule:evenodd;"
points="46290,35103
46495,34507
47240,34764
47035,35359
46290,35103
" /> 
<polyline style="fill-rule:evenodd;"
points="47779,35615
47984,35020
48729,35276
48524,35872
47779,35615
" /> 
<polyline style="fill-rule:evenodd;"
points="18625,34990
18911,35551
18210,35908
17924,35347
18625,34990
" /> 
<polyline style="fill-rule:evenodd;"
points="17222,35705
17508,36266
16807,36623
16521,36062
17222,35705
" /> 
<polyline style="fill-rule:evenodd;"
points="20865,24049
20591,24616
19882,24273
20156,23706
20865,24049
" /> 
<polyline style="fill-rule:evenodd;"
points="19447,23363
19173,23931
18464,23588
18739,23021
19447,23363
" /> 
<polyline style="fill-rule:evenodd;"
points="30200,17765
29599,17953
29364,17202
29965,17013
30200,17765
" /> 
<polyline style="fill-rule:evenodd;"
points="29730,16262
29128,16450
28893,15699
29494,15511
29730,16262
" /> 
<polyline style="fill-rule:evenodd;"
points="46801,30510
46673,29893
47443,29732
47572,30349
46801,30510
" /> 
<polyline style="fill-rule:evenodd;"
points="48343,30188
48214,29571
48985,29410
49114,30027
48343,30188
" /> 
</g>
<g style="fill:#000000; fill-opacity:1.0; 
stroke:#000000; stroke-width:500; stroke-opacity:1; 
stroke-linecap:round; stroke-linejoin:round;">
</g>
<g style="fill:#000000; fill-opacity:0.0; 
stroke:#000000; stroke-width:500; stroke-opacity:1; 
stroke-linecap:round; stroke-linejoin:round;">
<path d="M40334 19114
L41105 19983
" />
<path d="M39373 18705
L40334 19114
" />
<path d="M28582 17519
L29782 17483
" />
<path d="M27669 17923
L28582 17519
" />
<path d="M19468 24980
L20374 24161
" />
<path d="M19095 25911
L19468 24980
" />
<path d="M20472 36929
L19051 37637
" />
<path d="M38661 20177
L39373 18705
" />
<path d="M47161 28818
L47122 30121
" />
<path d="M45248 28334
L46807 27763
" />
<path d="M46807 27763
L47161 28818
" />
<path d="M46765 34933
L45472 34448
" />
<path d="M45291 39390
L43858 38661
" />
<path d="M19095 25911
L20629 26594
" />
<path d="M19803 29094
L20393 27125
" />
<path d="M19586 30551
L19803 29094
" />
<path d="M19566 32539
L19586 30551
" />
<path d="M19763 34291
L19566 32539
" />
<path d="M20472 41574
L21712 39074
" />
<path d="M21712 39074
L20984 37834
" />
<path d="M20984 37834
L20551 36889
" />
<path d="M20393 27125
L20629 26594
" />
<path d="M20551 36889
L20157 35866
" />
<path d="M20472 42267
L20472 41574
" />
<path d="M20157 35866
L19763 34291
" />
<path d="M28326 19468
L27669 17923
" />
<path d="M44803 41299
L44799 42259
" />
<path d="M45511 29842
L45669 31141
" />
<path d="M43779 38622
L43622 38937
" />
<path d="M45251 28484
L45511 29842
" />
<path d="M44980 27578
L45251 28484
" />
<path d="M45196 35393
L45000 36023
" />
<path d="M44192 25807
L44980 27578
" />
<path d="M43622 38937
L44803 41299
" />
<path d="M45669 24330
L45236 25098
" />
<path d="M45236 25098
L44192 25807
" />
<path d="M45669 31141
L45669 32303
" />
<path d="M45669 32303
L45590 33366
" />
<path d="M45433 34370
L45196 35393
" />
<path d="M45590 33366
L45433 34370
" />
<path d="M44094 38070
L43779 38622
" />
<path d="M45000 36023
L44685 36850
" />
<path d="M44685 36850
L44094 38070
" />
<path d="M44173 22165
L45669 24350
" />
<path d="M43582 21968
L44173 22165
" />
<path d="M42165 22913
L43582 21968
" />
<path d="M28031 19566
L29625 19094
" />
<path d="M36456 19330
L37519 19704
" />
<path d="M26614 20196
L28031 19566
" />
<path d="M37519 19704
L38336 20108
" />
<path d="M24744 21358
L26614 20196
" />
<path d="M22893 23070
L24744 21358
" />
<path d="M20629 26594
L21496 24921
" />
<path d="M21496 24921
L22893 23070
" />
<path d="M38336 20108
L39074 20482
" />
<path d="M29625 19094
L31811 18779
" />
<path d="M39775 20897
L40909 21732
" />
<path d="M31811 18779
L33464 18779
" />
<path d="M33464 18779
L35039 18976
" />
<path d="M35039 18976
L36456 19330
" />
<path d="M41590 22338
L42165 22913
" />
<path d="M39074 20482
L39775 20897
" />
<path d="M40909 21732
L41590 22338
" />
<path d="M19051 37637
L18503 36555
" />
<path d="M18503 36555
L18418 35449
" />
<path d="M46559 32362
L45724 32295
" />
</g>
<g style="fill:#000000; fill-opacity:0.0; 
stroke:#000000; stroke-width:300; stroke-opacity:1; 
stroke-linecap:round; stroke-linejoin:round;">
<path d="M20314 40157
L19945 39390
" />
<path d="M19448 41338
L20314 40157
" />
<path d="M20472 43267
L19450 42900
" />
<path d="M19450 42900
L19448 41338
" />
<path d="M15620 35980
L16086 34965
" />
<path d="M16370 37490
L15620 35980
" />
<path d="M17566 37511
L16370 37490
" />
<path d="M17630 34190
L17818 34102
" />
<path d="M17566 37511
L17928 38209
" />
<path d="M17630 34190
L16086 34965
" />
<path d="M17728 31854
L17818 34102
" />
<path d="M18125 28610
L17728 31854
" />
<path d="M18428 27763
L18125 28610
" />
<path d="M17389 25279
L17910 25484
" />
<path d="M17255 24618
L17389 25279
" />
<path d="M17614 23629
L17255 24618
" />
<path d="M18311 22204
L17614 23629
" />
<path d="M19047 22094
L18311 22204
" />
<path d="M20921 22862
L19047 22094
" />
<path d="M21381 22763
L20921 22862
" />
<path d="M22637 21287
L21381 22763
" />
<path d="M24629 19444
L22637 21287
" />
<path d="M25110 19125
L24629 19444
" />
<path d="M25862 18705
L25110 19125
" />
<path d="M31080 16860
L30720 15230
" />
<path d="M31450 17090
L31080 16860
" />
<path d="M32750 16880
L31450 17090
" />
<path d="M34670 17060
L32750 16880
" />
<path d="M36390 17410
L34670 17060
" />
<path d="M37566 17923
L36390 17410
" />
<path d="M29750 14560
L30720 15230
" />
<path d="M27240 15470
L29750 14560
" />
<path d="M27168 16767
L27240 15470
" />
<path d="M43370 17940
L41100 16690
" />
<path d="M46259 25039
L46417 23779
" />
<path d="M46140 25911
L46259 25039
" />
<path d="M46417 23779
L45157 22007
" />
<path d="M45157 22007
L44650 21420
" />
<path d="M44650 21420
L43190 20110
" />
<path d="M41100 16690
L39873 17549
" />
<path d="M43500 18960
L43370 17940
" />
<path d="M43130 19510
L43500 18960
" />
<path d="M43190 20110
L43130 19510
" />
<path d="M46530 36900
L46184 37636
" />
<path d="M47230 36700
L46530 36900
" />
<path d="M48370 37140
L47230 36700
" />
<path d="M49300 36900
L48370 37140
" />
<path d="M49590 36170
L49300 36900
" />
<path d="M49970 34130
L49590 36170
" />
<path d="M50120 31760
L49970 34130
" />
<path d="M49710 28190
L50120 31760
" />
<path d="M49300 27370
L49710 28190
" />
<path d="M48620 27120
L49300 27370
" />
<path d="M47993 27336
L48620 27120
" />
<path d="M45950 40940
L46413 39962
" />
<path d="M44799 43259
L45925 42696
" />
<path d="M45925 42696
L45950 40940
" />
</g>
<g style="fill:#000000; fill-opacity:1.0; 
stroke:#000000; stroke-width:100; stroke-opacity:1; 
stroke-linecap:round; stroke-linejoin:round;">
<polyline style="fill-rule:evenodd;"
points="36317,13851
39761,14920
42878,16612
45594,18853
47835,21569
49527,24686
50596,28130
50970,31836
50833,34082
50433,36253
49786,38327
48908,40288
47815,42118
46524,43804
45050,45327
43963,46219
43963,44489
44057,44489
44057,44619
44066,44667
44085,44712
44112,44753
44147,44788
44188,44816
44234,44834
44282,44844
44536,44844
44599,44781
44599,44427
44999,44427
44999,44781
45061,44844
45315,44844
45364,44834
45409,44816
45450,44788
45485,44753
45512,44712
45531,44667
45541,44619
45541,44489
45478,44427
44999,44427
44599,44427
44119,44427
44057,44489
43963,44489
43963,43931
44057,43934
44057,44030
44119,44092
44599,44092
44599,44051
44999,44051
44999,44092
45478,44092
45541,44030
45541,43900
45531,43852
45512,43806
45485,43765
45459,43739
45488,43704
45518,43649
45536,43589
45542,43527
45542,43335
46071,43071
46073,43070
46106,43053
46121,43045
46123,43044
46143,43034
46157,43023
46171,43014
46187,42998
46205,42985
46216,42971
46228,42960
46241,42941
46256,42924
46264,42909
46274,42895
46283,42875
46294,42855
46299,42839
46306,42823
46311,42802
46318,42780
46320,42763
46323,42747
46324,42724
46324,42722
46325,42705
46326,42668
46325,42665
46348,41032
46463,40791
46504,40782
46549,40762
46589,40734
46624,40698
46650,40657
47026,39920
47043,39874
47052,39826
47051,39777
47041,39729
47021,39683
46993,39643
46957,39609
46916,39582
46425,39332
46379,39314
46338,39307
45856,39058
45835,39037
45793,39010
45302,38760
45256,38742
45208,38734
45159,38734
45121,38743
44994,38678
47123,38678
47151,38762
47274,38825
47318,38847
47365,38861
47414,38865
47463,38859
47510,38844
47553,38820
47590,38788
47621,38749
47769,38459
47741,38375
47373,38187
47123,38678
44994,38678
44474,38413
44500,38368
46667,38368
46673,38417
46688,38464
46712,38507
46744,38544
46783,38575
46827,38597
46950,38660
47034,38633
47284,38142
47198,38098
47419,38098
47787,38286
47871,38258
48019,37968
48032,37921
48036,37872
48030,37823
48015,37776
47991,37733
47959,37696
47920,37665
47876,37643
47753,37580
47669,37607
47419,38098
47198,38098
46916,37954
46832,37982
46684,38272
46671,38319
46667,38368
44500,38368
44524,38325
44533,38310
44537,38304
44540,38297
44547,38281
44794,37772
45545,37772
45546,37821
45557,37869
45577,37914
45605,37954
45640,37989
45682,38015
46173,38265
46219,38283
46267,38292
46316,38291
46364,38280
46410,38261
46450,38233
46484,38197
46511,38156
46701,37781
46934,37781
46962,37865
47330,38053
47580,37562
47552,37478
47429,37415
47385,37393
47338,37379
47289,37375
47240,37381
47193,37396
47150,37420
47113,37452
47082,37491
46934,37781
46701,37781
46886,37419
46904,37373
46913,37325
46912,37275
46901,37227
46894,37211
47211,37121
48213,37508
48237,37519
48269,37527
48301,37536
48307,37536
48313,37537
48346,37539
48379,37541
48386,37541
48392,37541
48425,37536
48457,37532
48482,37523
49372,37294
49384,37293
49410,37284
49418,37282
49429,37278
49459,37269
49466,37264
49474,37262
49500,37245
49528,37230
49534,37225
49541,37221
49564,37200
49588,37180
49593,37173
49599,37167
49618,37142
49637,37118
49641,37110
49646,37104
49659,37075
49664,37065
49667,37058
49679,37032
49682,37021
49954,36336
49963,36319
49968,36299
49968,36299
49974,36280
49979,36262
49979,36262
49985,36242
49986,36223
50356,34237
50358,34233
50364,34198
50366,34183
50367,34179
50367,34174
50368,34159
50371,34125
50371,34120
50517,31808
50520,31792
50520,31769
50520,31765
50519,31749
50519,31733
50519,31730
50518,31706
50514,31691
50110,28172
50110,28161
50106,28133
50105,28124
50102,28114
50097,28083
50094,28075
50092,28067
50080,28038
50076,28028
50072,28020
50061,27994
50055,27985
49669,27214
49664,27201
49651,27179
49648,27173
49641,27162
49624,27133
49620,27128
49617,27123
49594,27099
49572,27074
49567,27070
49563,27066
49536,27047
49509,27027
49504,27024
49499,27020
49468,27007
49456,27001
49450,26999
49427,26988
49413,26985
48758,26744
48721,26731
48701,26728
48682,26722
48663,26721
48644,26718
48623,26719
48603,26718
48584,26721
48565,26721
48545,26726
48525,26729
48489,26742
48342,26792
48331,26777
48294,26744
48252,26719
48206,26703
48157,26696
48108,26698
48060,26710
47541,26897
47497,26918
47457,26947
47424,26984
47399,27026
47383,27073
47376,27121
47378,27171
47390,27218
47670,27996
47691,28041
47721,28080
47757,28113
47800,28138
47846,28155
47895,28162
47944,28160
47992,28147
48510,27961
48555,27940
48594,27910
48627,27874
48652,27831
48669,27785
48676,27736
48674,27687
48662,27639
48629,27549
49013,27690
49320,28305
49718,31770
49711,31882
49709,31879
49670,31849
49626,31827
49578,31814
49215,31789
49148,31847
49105,32464
49113,32465
49099,32664
49091,32664
49048,33281
49106,33348
49469,33373
49518,33367
49565,33352
49608,33327
49620,33316
49572,34080
49203,36058
49003,36563
48394,36720
47381,36329
47352,36317
47325,36311
47298,36303
47287,36303
47275,36300
47248,36300
47220,36298
47208,36299
47197,36299
47169,36304
47142,36307
47112,36317
46425,36513
46393,36522
46370,36533
46346,36542
46334,36549
46322,36555
46301,36571
46280,36585
46270,36594
46259,36603
46241,36622
46223,36640
46215,36651
46206,36661
46193,36683
46178,36704
46165,36735
46131,36808
46093,36816
46048,36835
46008,36864
45974,36899
45947,36941
45572,37677
45554,37723
45545,37772
44794,37772
45133,37070
45143,37051
45144,37048
45145,37046
45153,37025
45463,36210
45469,36196
45472,36187
45475,36178
45480,36163
45672,35548
45678,35530
45679,35524
45681,35519
45685,35500
45778,35097
46061,35203
46064,35213
46090,35255
46124,35291
46164,35320
46208,35340
46953,35597
47001,35608
47050,35610
47073,35606
47528,35606
47531,35655
47544,35703
47565,35747
47595,35786
47632,35819
47675,35844
47964,35943
47976,35937
48138,35937
48176,36017
48466,36116
48514,36123
48564,36120
48611,36107
48655,36086
48695,36056
48727,36019
48752,35977
48768,35930
48826,35762
48787,35682
48285,35509
48138,35937
47976,35937
48043,35905
48190,35477
48010,35415
48318,35415
48820,35588
48899,35549
48957,35381
48973,35334
48980,35286
48977,35236
48964,35189
48943,35145
48913,35105
48876,35073
48833,35048
48544,34948
48465,34987
48318,35415
48010,35415
47688,35304
47609,35343
47551,35511
47535,35557
47528,35606
47073,35606
47099,35602
47145,35585
47187,35559
47223,35526
47252,35486
47272,35441
47379,35130
47682,35130
47721,35209
48223,35382
48370,34954
48332,34875
48042,34775
47994,34769
47944,34772
47897,34784
47853,34806
47813,34836
47781,34873
47756,34915
47740,34962
47682,35130
47379,35130
47477,34845
47489,34797
47491,34748
47483,34700
47466,34653
47440,34611
47406,34575
47366,34547
47322,34526
46577,34270
46529,34258
46480,34256
46431,34264
46418,34269
45980,34105
46083,33447
46087,33427
46087,33423
46088,33419
46089,33398
46108,33140
46951,33199
47000,33197
47048,33186
47093,33166
47133,33138
47167,33102
47193,33060
47193,33059
48209,33059
48216,33108
48231,33155
48256,33198
48288,33235
48327,33265
48371,33287
48419,33300
48782,33325
48849,33267
48892,32650
48304,32609
48237,32667
48213,33010
48209,33059
47193,33059
47211,33014
47219,32966
47262,32343
48260,32343
48318,32409
48906,32450
48949,31833
48891,31766
48528,31741
48479,31747
48432,31763
48389,31787
48352,31819
48322,31858
48300,31902
48287,31950
48284,31999
48260,32343
47262,32343
47293,31905
47292,31856
47281,31808
47260,31763
47232,31723
47196,31689
47154,31663
47108,31645
47060,31637
46169,31575
46169,31185
46170,31179
46169,31136
46169,31117
46168,31111
46168,31105
46166,31087
46162,31043
46160,31038
46009,29789
46007,29772
46006,29765
46005,29757
46001,29741
45795,28666
46482,28415
46485,28423
46506,28467
46524,28492
46659,28893
46636,29644
46621,29647
46574,29662
46531,29686
46493,29717
46462,29756
46440,29799
46426,29847
46421,29896
46427,29945
46556,30561
46570,30608
46594,30652
46626,30689
46664,30720
46708,30743
46755,30757
46804,30761
46853,30756
47624,30595
47671,30580
47714,30556
47752,30525
47782,30486
47805,30443
47819,30396
47823,30347
47818,30298
47765,30041
48057,30041
48093,30215
48103,30263
48123,30308
48150,30349
48185,30384
48227,30411
48272,30429
48321,30438
48370,30438
48669,30375
48718,30301
48625,29858
48105,29967
48057,30041
47765,30041
47689,29681
47675,29634
47651,29591
47639,29576
47640,29549
47964,29549
47964,29598
47974,29647
48011,29821
48085,29869
48234,29838
48723,29838
48816,30281
48890,30329
49189,30267
49234,30247
49275,30220
49309,30184
49336,30143
49355,30098
49364,30049
49364,30000
49353,29952
49317,29778
49243,29729
48723,29838
48234,29838
48605,29760
48512,29317
48481,29297
48610,29297
48703,29740
49223,29631
49271,29557
49235,29383
49225,29335
49205,29290
49178,29249
49142,29215
49101,29188
49056,29169
49007,29160
48958,29161
48659,29223
48610,29297
48481,29297
48438,29269
48139,29332
48094,29351
48053,29379
48018,29414
47991,29455
47973,29501
47964,29549
47640,29549
47660,28868
47662,28853
47661,28819
47661,28809
47660,28794
47659,28755
47657,28745
47656,28735
47646,28697
47643,28683
47640,28673
47631,28640
47624,28627
47484,28209
47491,28163
47488,28114
47476,28066
47196,27288
47175,27244
47146,27204
47109,27171
47067,27146
47020,27129
46972,27122
46922,27125
46875,27137
46356,27324
46312,27345
46272,27374
46239,27411
46218,27446
45537,27696
45471,27475
45470,27468
45457,27428
45452,27411
45449,27404
45447,27398
45440,27382
45424,27343
45420,27337
44819,25985
45459,25551
45459,25560
45471,25608
45751,26386
45773,26430
45802,26470
45838,26503
45881,26528
45927,26544
45976,26551
46025,26549
46073,26537
46591,26350
46636,26329
46675,26300
46708,26263
46734,26221
46750,26174
46757,26126
46755,26076
46743,26029
46615,25675
46836,25675
46946,25982
46972,26024
47005,26060
47044,26089
47089,26110
47137,26122
47186,26125
47235,26117
47281,26101
47411,26054
47449,25974
47262,25455
46874,25595
46836,25675
46615,25675
46587,25596
46648,25148
46649,25157
46760,25464
46840,25501
47061,25422
47356,25422
47543,25940
47623,25978
47753,25931
47800,25914
47842,25889
47878,25855
47907,25816
47928,25771
47940,25723
47943,25674
47935,25626
47825,25319
47745,25282
47356,25422
47061,25422
47228,25361
47042,24843
46970,24809
47136,24809
47322,25327
47711,25188
47749,25108
47639,24801
47613,24759
47580,24723
47540,24693
47496,24672
47448,24661
47399,24658
47350,24666
47304,24682
47174,24729
47136,24809
46970,24809
46962,24805
46832,24852
46785,24869
46743,24894
46707,24928
46677,24967
46669,24984
46810,23857
46813,23846
46815,23818
46816,23809
46816,23798
46819,23767
46817,23759
46818,23750
46812,23720
46809,23689
46806,23681
46804,23672
46793,23644
46784,23614
46779,23607
46776,23599
46760,23573
46754,23563
46749,23556
46734,23532
46726,23524
45483,21776
45473,21761
45472,21760
45472,21760
45459,21745
44974,21183
44971,21178
44948,21154
44939,21143
44935,21139
44931,21135
44921,21126
44897,21103
44892,21099
43572,19915
43542,19613
43813,19210
43817,19205
43835,19178
43842,19166
43845,19161
43859,19139
43864,19126
43870,19114
43878,19090
43887,19065
43890,19052
43893,19039
43896,19013
43900,18987
43900,18974
43901,18961
43899,18935
43899,18928
43897,18915
43894,18882
43892,18876
43770,17917
43770,17905
43765,17878
43764,17869
43761,17858
43756,17828
43752,17820
43751,17812
43738,17783
43726,17754
43722,17748
43718,17740
43700,17715
43683,17688
43678,17682
43673,17676
43650,17654
43628,17632
43622,17627
43615,17622
43589,17605
43580,17599
43572,17595
43549,17580
43538,17576
41321,16355
41315,16350
41286,16336
41275,16330
41269,16327
41245,16315
41233,16311
41221,16306
41195,16301
41169,16294
41156,16293
41144,16290
41117,16290
41091,16288
41078,16289
41065,16289
41039,16294
41012,16297
41000,16301
40988,16303
40963,16313
40938,16322
40926,16328
40914,16333
40892,16347
40886,16351
40876,16358
40848,16376
40843,16381
39949,17007
39794,16940
39747,16925
39698,16919
39649,16923
39601,16937
39558,16959
39519,16990
39487,17028
39463,17071
39244,17577
39229,17623
39224,17672
39228,17721
39241,17769
39264,17813
39295,17851
39332,17883
39375,17907
40134,18235
40181,18250
40230,18256
40279,18252
40292,18248
41502,18248
41523,18334
41909,18570
42186,18116
42165,18030
42013,17938
41971,17912
41925,17895
41876,17887
41827,17890
41779,17901
41734,17922
41695,17951
41661,17987
41502,18248
40292,18248
40326,18238
40370,18216
40409,18185
40440,18148
40464,18104
40683,17599
40698,17552
40704,17503
40700,17458
41125,17160
42998,18192
43084,18861
42819,19254
42818,19255
42797,19287
42787,19303
42786,19303
42775,19321
42768,19338
42759,19355
42753,19374
42745,19393
42741,19412
42736,19430
42733,19450
42729,19471
42729,19490
42728,19508
42730,19529
42730,19530
42731,19548
42735,19587
42735,19588
42789,20121
42788,20131
42793,20160
42793,20169
42796,20179
42800,20209
42803,20218
42805,20227
42817,20255
42827,20283
42832,20291
42835,20300
42852,20325
42868,20351
42874,20357
42879,20365
42901,20386
42908,20394
42915,20400
42935,20421
42944,20426
43489,20916
43476,21478
43467,21480
43449,21483
43420,21495
43390,21504
43374,21512
43357,21519
43331,21535
43325,21538
43310,21548
43274,21571
43269,21576
42229,22269
41951,21992
41941,21981
41933,21974
41926,21967
41915,21958
41242,21359
41225,21344
41224,21343
41223,21342
41204,21328
40111,20523
40111,20523
40071,20494
40052,20480
40051,20480
40051,20480
40030,20467
39988,20442
39988,20442
39336,20056
39322,20047
39315,20043
39308,20039
39293,20032
39288,20029
39603,19378
39634,19391
39680,19406
39729,19412
39754,19410
40035,19530
40440,19986
40417,20024
40395,20068
40383,20116
40380,20165
40387,20214
40403,20260
40428,20303
40461,20339
40500,20369
41038,20697
41082,20719
41130,20731
41179,20734
41228,20727
41274,20711
41317,20686
41353,20653
41383,20614
41793,19942
41815,19897
41827,19850
41830,19800
41823,19752
41807,19705
41782,19663
41749,19626
41710,19596
41172,19268
41128,19247
41118,19244
41044,19161
41665,19161
41686,19246
41838,19339
41880,19365
41926,19382
41975,19389
42024,19387
42072,19376
42117,19355
42156,19326
42190,19290
42349,19029
42328,18943
41942,18707
41665,19161
41044,19161
40721,18796
41201,18796
41203,18845
41214,18893
41235,18938
41264,18978
41300,19011
41342,19037
41494,19129
41580,19108
41857,18655
41802,18622
41994,18622
42380,18858
42466,18837
42626,18576
42643,18529
42650,18481
42648,18432
42637,18384
42616,18339
42587,18299
42551,18266
42509,18240
42357,18148
42271,18168
41994,18622
41802,18622
41471,18419
41385,18440
41225,18701
41208,18747
41201,18796
40721,18796
40716,18791
40693,18762
40665,18738
40638,18713
40627,18707
40617,18699
40585,18681
40554,18662
40519,18649
40138,18487
40133,18480
40095,18448
40052,18425
39293,18096
39246,18081
39197,18076
39148,18080
39101,18093
39057,18116
39019,18146
38987,18184
38963,18227
38744,18733
38729,18780
38723,18829
38727,18878
38730,18886
38395,19579
37780,19275
37775,19272
37736,19253
37719,19245
37713,19243
37708,19241
37690,19234
37650,19219
37644,19218
36623,18859
36601,18851
36600,18851
36599,18850
36576,18845
35202,18501
35197,18499
35155,18489
35136,18485
35131,18484
35125,18483
35106,18480
35063,18474
35058,18474
33568,18288
33562,18286
33520,18282
33502,18280
33495,18280
33489,18279
33471,18279
33428,18278
33421,18279
31848,18279
31837,18277
31799,18279
31786,18279
31775,18280
31763,18281
31750,18283
31713,18286
31702,18290
29591,18594
29579,18594
29543,18601
29530,18603
29518,18605
29507,18608
29495,18611
29458,18620
29448,18625
28616,18872
28334,18209
28348,18203
28391,18179
28428,18147
28445,18127
28695,18016
29350,17996
29360,18028
29379,18073
29407,18114
29442,18149
29483,18176
29529,18194
29577,18203
29626,18203
29675,18193
30276,18004
30321,17985
30362,17957
30396,17922
30423,17881
30442,17835
30451,17787
30450,17738
30440,17690
30205,16938
30185,16893
30158,16852
30123,16818
30081,16791
30036,16772
29987,16763
29938,16764
29890,16774
29289,16962
29243,16981
29216,17000
28593,17019
28570,17017
28544,17020
28543,17020
28520,17023
28473,17029
28471,17029
28469,17030
28424,17045
28403,17052
28401,17053
28376,17061
28356,17072
28031,17216
28025,17216
27976,17221
27929,17236
27170,17565
27127,17588
27090,17620
27059,17659
27037,17703
27023,17750
27019,17799
27025,17848
27040,17895
27259,18401
27282,18444
27314,18481
27353,18512
27383,18527
27662,19183
26447,19723
26437,19726
26402,19743
26388,19749
26380,19754
26371,19759
26358,19766
26324,19786
26316,19792
24502,20919
24481,20930
24460,20945
24459,20946
24441,20960
24422,20974
24421,20975
24400,20991
24385,21008
22575,22683
22559,22695
22539,22717
22536,22720
22522,22735
22509,22749
22506,22753
22487,22775
22477,22792
21115,24594
21103,24607
21086,24634
21082,24639
21073,24654
21063,24669
21060,24675
21043,24702
21037,24719
20402,25945
19747,25654
19764,25608
19776,25560
19776,25555
19889,25273
20406,24806
20482,24842
20528,24859
20577,24867
20626,24865
20674,24853
20718,24833
20758,24804
20792,24767
20817,24725
21091,24158
21108,24112
21116,24063
21114,24014
21103,23966
21082,23922
21053,23882
21017,23848
20975,23823
20266,23480
20220,23463
20171,23455
20122,23457
20074,23469
20029,23490
19989,23519
19956,23555
19930,23597
19680,24114
19139,24603
19109,24629
19088,24655
19065,24680
19057,24693
19047,24706
19032,24735
19014,24764
19001,24802
18870,25128
18860,25134
18823,25167
18794,25206
18773,25251
18493,26029
18480,26076
18478,26126
18485,26174
18502,26221
18527,26263
18560,26300
18599,26329
18644,26350
19162,26537
19210,26549
19259,26551
19293,26546
19970,26848
19953,26884
19949,26890
19933,26929
19926,26945
19924,26952
19921,26958
19916,26975
19903,27015
19902,27022
19335,28914
19330,28925
19320,28961
19317,28974
19314,28985
19312,28996
19310,29009
19303,29046
19303,29058
19097,30438
19094,30448
19090,30487
19088,30501
19087,30511
19086,30521
19086,30536
19084,30575
19086,30585
19067,32491
19066,32496
19066,32540
19066,32558
19067,32564
19067,32570
19069,32589
19073,32632
19074,32638
19262,34306
19261,34315
19267,34355
19269,34371
19271,34380
19272,34388
19276,34404
19285,34443
19288,34451
19661,35945
19662,35951
19673,35993
19678,36011
19680,36016
19681,36022
19688,36040
19703,36080
19706,36085
19921,36645
19295,36956
19288,36941
19261,36900
19227,36864
19217,36857
18994,36417
18947,35815
19025,35775
19067,35748
19102,35714
19131,35674
19150,35629
19161,35581
19162,35531
19153,35483
19135,35437
18849,34876
18823,34834
18789,34799
18748,34771
18703,34751
18655,34740
18606,34739
18557,34748
18511,34766
17810,35123
17768,35150
17733,35184
17705,35224
17685,35270
17674,35318
17673,35367
17682,35415
17700,35461
17956,35964
18003,36568
18002,36593
18007,36617
18007,36618
18011,36642
18020,36690
18020,36690
18020,36690
18038,36736
18046,36758
18046,36759
18056,36782
18069,36803
18323,37305
18323,37325
18331,37374
18349,37420
18725,38156
18751,38198
18785,38233
18826,38261
18871,38281
18906,38289
19343,39104
19337,39112
19317,39157
19307,39205
19306,39255
19314,39303
19332,39349
19708,40086
19734,40127
19768,40163
19799,40184
19132,41093
19114,41115
19100,41142
19084,41168
19081,41177
19077,41185
19068,41214
19058,41243
19057,41251
19054,41260
19051,41290
19047,41321
19048,41349
19049,42890
19048,42919
19052,42948
19055,42978
19058,42987
19059,42997
19070,43025
19078,43054
19083,43062
19086,43071
19101,43097
19115,43123
19121,43130
19126,43138
19146,43161
19166,43184
19173,43190
19179,43197
19203,43215
19226,43234
19235,43238
19242,43244
19269,43257
19296,43271
19324,43279
19729,43425
19729,43535
19735,43597
19753,43657
19782,43712
19811,43747
19786,43773
19758,43814
19739,43860
19730,43908
19730,44037
19792,44100
20272,44100
20272,44059
20672,44059
20672,44100
21152,44100
21214,44037
21214,43908
21204,43860
21200,43850
21339,43850
21339,46270
20238,45374
19383,44497
19730,44497
19730,44626
19739,44675
19758,44720
19786,44761
19820,44796
19861,44823
19907,44842
19955,44852
20209,44852
20272,44789
20272,44435
20672,44435
20672,44789
20734,44852
20989,44852
21037,44842
21082,44823
21123,44796
21158,44761
21186,44720
21204,44675
21214,44626
21214,44497
21152,44435
20672,44435
20272,44435
19792,44435
19730,44497
19383,44497
18752,43849
17449,42159
16387,40389
18450,40389
18597,40679
18628,40718
18665,40750
18708,40774
18755,40789
18804,40795
18853,40791
18900,40778
18944,40755
19068,40692
19095,40608
18845,40117
18477,40305
18450,40389
16387,40389
16347,40323
16113,39802
18182,39802
18186,39851
18200,39898
18347,40189
18431,40216
18714,40072
18934,40072
19184,40563
19268,40590
19392,40527
19435,40505
19474,40474
19506,40437
19530,40394
19545,40347
19551,40298
19547,40249
19534,40202
19386,39912
19302,39884
18934,40072
18714,40072
18800,40028
18549,39537
18465,39510
18342,39573
18298,39595
18259,39626
18227,39663
18203,39706
18188,39753
18182,39802
16113,39802
15973,39492
18639,39492
18889,39983
19257,39795
19284,39711
19136,39421
19106,39383
19068,39351
19025,39327
18978,39311
18930,39306
18880,39309
18833,39323
18789,39345
18666,39408
18639,39492
15973,39492
15461,38355
14809,36273
14751,35964
15218,35964
15219,35985
15219,36007
15221,36025
15223,36043
15228,36063
15232,36085
15238,36101
15243,36119
15252,36138
15253,36140
15261,36156
15277,36190
15278,36191
15995,37634
15995,37637
16012,37669
16020,37685
16021,37687
16031,37707
16042,37720
16051,37735
16066,37751
16080,37768
16093,37780
16105,37792
16123,37805
16140,37820
16155,37828
16170,37838
16190,37847
16209,37858
16226,37863
16241,37870
16263,37875
16284,37882
16301,37884
16318,37888
16340,37889
16343,37889
16360,37889
16397,37890
16399,37890
17201,37905
17209,37946
17227,37992
17602,38728
17629,38770
17663,38805
17703,38833
17748,38853
17796,38864
17846,38865
17894,38856
17940,38838
18431,38588
18472,38561
18508,38527
18536,38487
18556,38442
18566,38394
18567,38344
18559,38296
18541,38250
18165,37513
18139,37472
18105,37436
18064,37408
18019,37388
17971,37378
17948,37377
17922,37328
17905,37294
17892,37278
17880,37260
17867,37247
17856,37232
17840,37219
17825,37204
17810,37193
17796,37181
17777,37171
17760,37159
17743,37152
17727,37143
17707,37136
17688,37128
17670,37124
17652,37119
17631,37116
17611,37112
17573,37111
16620,37094
16353,36557
16492,36557
16573,36715
16595,36759
16626,36798
16663,36830
16706,36854
16753,36869
16802,36875
16851,36871
16898,36857
17171,36719
17198,36634
16993,36231
16519,36472
16492,36557
16353,36557
16105,36057
16270,36057
16273,36106
16287,36154
16309,36198
16390,36356
16474,36383
16861,36186
17082,36186
17287,36589
17371,36616
17644,36478
17682,36447
17714,36410
17738,36367
17754,36320
17759,36271
17756,36222
17742,36174
17720,36131
17639,35972
17555,35945
17082,36186
16861,36186
16947,36142
16742,35739
16658,35712
16385,35851
16347,35881
16315,35919
16291,35961
16275,36008
16270,36057
16105,36057
16063,35973
16191,35694
16831,35694
17036,36097
17510,35856
17537,35772
17456,35613
17434,35569
17403,35531
17366,35499
17323,35475
17276,35459
17227,35454
17178,35457
17131,35471
16858,35610
16831,35694
16191,35694
16391,35260
17804,34550
17969,34473
17987,34467
18004,34457
18005,34456
18021,34447
18055,34427
18055,34427
18055,34426
18085,34400
18114,34374
18114,34374
18114,34374
18138,34343
18161,34312
18161,34311
18162,34311
18179,34276
18196,34241
18196,34240
18196,34240
18206,34202
18215,34164
18215,34164
18216,34164
18218,34125
18219,34105
18219,34105
18220,34085
18217,34066
18129,31870
18517,28702
18559,28584
18575,28582
18621,28565
18663,28540
18700,28507
18729,28467
18750,28423
19030,27645
19042,27597
19045,27548
19038,27499
19021,27453
18996,27411
18963,27374
18924,27345
18879,27324
18361,27137
18313,27125
18264,27122
18215,27129
18169,27146
18126,27171
18090,27204
18060,27244
18039,27288
17759,28066
17747,28114
17744,28163
17752,28212
17768,28258
17793,28300
17806,28315
17754,28461
17744,28484
17736,28518
17728,28551
17727,28576
17334,31779
17331,31791
17329,31818
17328,31825
17328,31837
17327,31850
17328,31857
17327,31884
17329,31896
17408,33853
15909,34606
15876,34623
15858,34636
15839,34648
15827,34660
15813,34670
15798,34687
15782,34702
15772,34716
15761,34729
15750,34748
15737,34767
15722,34800
15272,35778
15271,35780
15255,35814
15248,35830
15247,35832
15239,35851
15234,35869
15229,35886
15226,35907
15221,35928
15220,35946
15218,35964
14751,35964
14405,34092
14267,31836
14641,28130
14770,27712
16559,27712
16561,27761
16573,27809
16594,27853
16624,27893
16660,27926
16702,27951
16749,27968
16879,28015
16887,28011
17053,28011
17091,28091
17221,28138
17267,28155
17316,28162
17365,28160
17413,28148
17457,28127
17497,28098
17530,28061
17556,28019
17666,27713
17628,27633
17239,27493
17053,28011
16887,28011
16959,27977
17145,27459
16978,27399
17273,27399
17662,27539
17742,27501
17852,27195
17860,27146
17857,27097
17845,27049
17824,27004
17795,26965
17759,26932
17717,26906
17670,26890
17540,26843
17460,26880
17273,27399
16978,27399
16757,27319
16677,27357
16566,27663
16559,27712
14770,27712
14946,27145
16753,27145
16791,27225
17179,27365
17366,26847
17328,26767
17198,26720
17152,26703
17103,26696
17054,26698
17006,26710
16961,26731
16922,26760
16889,26796
16863,26839
16753,27145
14946,27145
15710,24686
15746,24619
16853,24619
16854,24627
16854,24636
16858,24666
16859,24678
16861,24686
16865,24714
16869,24724
16994,25342
16996,25364
17008,25399
17018,25434
17020,25437
17021,25439
17038,25471
17056,25503
17058,25506
17059,25508
17083,25536
17106,25564
17108,25566
17110,25568
17139,25591
17167,25614
17170,25615
17172,25617
17204,25634
17237,25651
17258,25657
17294,25671
17293,25699
17300,25748
17316,25794
17341,25836
17374,25873
17414,25902
17458,25923
17977,26110
18025,26122
18074,26125
18123,26118
18169,26101
18211,26076
18248,26043
18277,26003
18298,25959
18579,25181
18591,25133
18593,25084
18586,25035
18569,24989
18544,24947
18511,24910
18472,24881
18427,24860
17909,24673
17861,24661
17812,24658
17763,24665
17717,24682
17681,24703
17670,24648
17923,23950
18782,23950
18811,24033
19087,24166
19134,24179
19184,24182
19232,24175
19279,24159
19321,24134
19358,24101
19388,24062
19409,24017
19487,23857
19457,23774
18979,23542
18782,23950
17923,23950
17982,23786
18074,23598
18213,23598
18220,23647
18236,23693
18261,23736
18294,23773
18333,23802
18609,23935
18692,23906
18889,23499
18793,23452
19023,23452
19501,23684
19584,23655
19662,23494
19683,23450
19696,23402
19698,23353
19692,23305
19675,23258
19651,23216
19618,23179
19578,23149
19303,23016
19220,23045
19023,23452
18793,23452
18411,23268
18327,23297
18250,23457
18229,23501
18216,23549
18213,23598
18074,23598
18321,23094
18425,23094
18454,23178
18933,23409
19130,23002
19101,22918
18825,22785
18778,22773
18728,22770
18680,22777
18633,22793
18591,22818
18554,22851
18524,22890
18503,22934
18425,23094
18321,23094
18578,22569
18997,22506
20753,23225
20772,23235
20808,23246
20844,23256
20846,23256
20848,23257
20885,23260
20922,23264
20924,23263
20926,23264
20964,23259
21001,23256
21022,23249
21459,23156
21491,23150
21516,23140
21540,23132
21552,23126
21565,23121
21587,23107
21609,23094
21620,23086
21631,23078
21650,23060
21670,23043
21690,23018
22926,21564
24877,19760
25318,19467
25435,19402
25457,19408
25506,19412
25555,19406
25602,19391
26360,19063
26403,19039
26441,19007
26472,18969
26494,18925
26508,18878
26512,18829
26506,18780
26491,18733
26272,18227
26248,18184
26217,18146
26178,18116
26134,18093
26087,18080
26038,18076
25989,18081
25942,18096
25183,18425
25140,18448
25103,18480
25072,18519
25049,18563
25036,18610
25032,18659
25037,18708
24918,18774
24905,18781
24901,18784
24897,18786
24885,18795
24431,19096
24419,19102
24398,19118
24392,19122
24382,19130
24372,19137
24367,19142
24346,19159
24338,19169
22391,20969
22388,20972
22363,20996
22351,21007
22348,21010
22345,21013
22335,21025
22312,21051
22310,21054
21165,22401
20958,22445
19226,21735
19218,21730
19190,21720
19180,21716
19171,21714
19144,21704
19134,21702
19124,21699
19095,21697
19066,21693
19056,21693
19045,21692
19016,21695
19007,21695
18997,21697
18967,21700
18958,21703
18274,21805
18257,21806
18235,21811
18232,21812
18216,21816
18180,21824
18177,21825
18175,21826
18142,21842
18108,21857
18106,21859
18103,21860
18074,21882
18044,21903
18043,21905
18040,21907
18016,21934
17991,21961
17989,21963
17987,21965
17969,21997
17960,22011
17959,22013
17947,22033
17941,22049
17271,23420
17270,23421
17254,23455
17246,23471
17245,23473
17244,23475
17238,23491
17225,23527
17225,23528
16889,24455
16884,24465
16875,24492
16873,24500
16870,24511
16861,24541
16860,24549
16858,24557
16856,24588
16853,24619
15746,24619
17402,21569
19642,18853
20731,17954
24707,17954
24762,18081
24782,18127
24810,18167
24845,18201
24887,18228
24932,18246
24981,18255
25030,18254
25078,18244
25377,18115
25409,18032
25245,17653
24740,17872
24707,17954
20731,17954
21308,17478
24532,17478
24533,17527
24543,17576
24563,17621
24618,17748
24700,17780
25085,17614
25337,17614
25501,17993
25583,18025
25882,17896
25923,17868
25957,17833
25984,17791
26002,17745
26011,17697
26010,17648
25999,17600
25980,17554
25925,17427
25843,17395
25337,17614
25085,17614
25206,17562
25042,17182
24959,17150
24661,17279
24620,17307
24586,17343
24559,17384
24541,17430
24532,17478
21308,17478
21715,17143
25133,17143
25297,17522
25803,17303
25836,17221
25781,17094
25761,17049
25733,17008
25698,16974
25656,16947
25611,16929
25562,16920
25513,16921
25465,16931
25166,17061
25133,17143
21715,17143
22321,16643
26519,16643
26524,16692
26539,16739
26758,17244
26782,17288
26814,17325
26853,17356
26896,17378
26944,17392
26993,17396
27042,17390
27089,17375
27847,17047
27890,17023
27928,16991
27959,16953
27981,16909
27995,16862
27999,16812
27993,16764
27978,16717
27779,16257
28806,16257
28897,16549
28921,16592
28952,16630
28991,16660
29034,16683
29082,16697
29131,16701
29180,16696
29227,16681
29396,16628
29437,16550
29279,16043
28847,16178
28806,16257
27779,16257
27759,16211
27735,16168
27703,16130
27665,16099
27621,16077
27607,16073
27624,15755
27774,15701
28642,15701
28647,15750
28739,16042
28817,16083
29040,16013
29374,16013
29533,16520
29611,16561
29781,16508
29828,16493
29871,16469
29909,16438
29940,16400
29963,16356
29976,16309
29981,16260
29975,16211
29884,15919
29806,15878
29374,16013
29040,16013
29249,15948
29090,15441
29033,15411
29185,15411
29344,15918
29776,15782
29817,15704
29725,15412
29702,15369
29670,15331
29632,15300
29588,15278
29541,15264
29492,15259
29443,15265
29396,15279
29226,15333
29185,15411
29033,15411
29011,15400
28842,15453
28795,15468
28752,15491
28714,15523
28683,15561
28660,15605
28646,15652
28642,15701
27774,15701
29692,15006
30363,15469
30685,16929
30688,16951
30700,16986
30711,17021
30713,17023
30713,17025
30732,17057
30750,17090
30752,17092
30753,17094
30777,17121
30801,17150
30803,17151
30805,17153
30834,17175
30863,17198
30883,17208
31210,17412
31214,17415
31243,17432
31255,17440
31260,17442
31282,17455
31296,17460
31308,17466
31333,17472
31357,17481
31371,17482
31384,17486
31410,17488
31435,17491
31449,17490
31463,17491
31488,17488
31494,17488
31508,17485
31541,17481
31546,17479
32763,17283
34611,17456
36268,17793
36739,17998
36740,18018
36754,18065
36776,18109
36807,18147
36845,18179
36888,18203
37646,18531
37693,18547
37742,18552
37791,18548
37839,18535
37882,18512
37921,18481
37953,18444
37977,18401
38196,17895
38211,17848
38216,17799
38212,17750
38199,17703
38176,17659
38145,17620
38108,17588
38065,17565
37306,17236
37259,17221
37210,17216
37161,17220
37114,17233
37070,17256
37058,17265
36847,17172
37838,17172
37871,17255
38170,17384
38218,17394
38267,17395
38316,17386
38361,17368
38403,17341
38438,17307
38466,17267
38486,17221
38541,17094
38508,17012
38003,16793
37838,17172
36847,17172
36565,17050
36545,17039
36510,17028
36475,17017
36453,17014
35582,16837
37237,16837
37246,16886
37264,16931
37291,16973
37325,17008
37366,17036
37665,17165
37747,17133
37911,16754
37790,16702
38042,16702
38548,16920
38630,16888
38685,16761
38705,16716
38715,16667
38716,16618
38707,16570
38689,16524
38662,16483
38628,16447
38587,16419
38288,16290
38206,16322
38042,16702
37790,16702
37405,16535
37323,16567
37268,16694
37248,16740
37238,16788
37237,16837
35582,16837
34786,16675
34784,16674
34748,16667
34730,16664
34728,16663
34726,16663
34709,16661
34671,16658
34669,16658
32795,16482
32764,16478
32736,16480
32708,16480
32678,16486
31534,16671
31434,16609
31379,16361
37412,16361
37445,16443
37950,16662
38115,16283
38082,16201
37783,16071
37735,16061
37686,16060
37637,16069
37592,16087
37550,16114
37515,16148
37487,16189
37467,16234
37412,16361
31379,16361
31116,15170
31115,15157
31107,15131
31106,15124
31102,15112
31093,15081
31090,15075
31088,15068
31072,15040
31057,15011
31053,15006
31049,14999
31028,14975
31008,14950
31002,14945
30998,14939
30972,14920
30963,14912
30957,14907
30936,14891
30925,14885
29998,14245
29988,14236
29966,14223
29961,14219
29949,14213
29920,14195
29914,14193
29909,14191
29877,14180
29846,14169
29840,14168
29834,14167
29801,14163
29768,14158
29762,14158
29756,14158
29722,14160
29689,14162
29683,14164
29677,14164
29645,14173
29632,14177
29626,14179
29601,14186
29589,14192
27123,15086
27106,15090
27087,15099
27085,15100
27069,15108
27035,15124
27033,15125
27031,15126
27001,15148
26971,15170
26970,15172
26968,15173
26943,15201
26918,15228
26917,15230
26916,15231
26897,15264
26877,15296
26876,15297
26875,15299
26863,15334
26850,15370
26850,15372
26849,15373
26844,15411
26841,15428
26841,15430
26838,15451
26839,15469
26790,16356
26670,16408
26627,16432
26589,16464
26559,16503
26536,16546
26523,16594
26519,16643
22321,16643
22358,16612
25475,14920
28919,13851
32618,13478
36317,13851
" /> 
</g>
<g style="fill:#FFFFFF; fill-opacity:1.0; 
stroke:#FFFFFF; stroke-width:100; stroke-opacity:1; 
stroke-linecap:round; stroke-linejoin:round;">
</g>
<g style="fill:#000000; fill-opacity:1.0; 
stroke:#000000; stroke-width:100; stroke-opacity:1; 
stroke-linecap:round; stroke-linejoin:round;">
</g> 
</svg>
