  0
SECTION
  2
HEADER
  9
$ACADVER
  1
AC1009
  9
$DWGCODEPAGE
  3
ansi_1252
  9
$INSBASE
 10
0.0
 20
0.0
 30
0.0
  9
$EXTMIN
 10
-107.8852
 20
-11.3356
 30
0.0
  9
$EXTMAX
 10
-12.3852
 20
75.4444
 30
0.0
  9
$LIMMIN
 10
0.0
 20
0.0
  9
$LIMMAX
 10
12.0
 20
9.0
  9
$ORTHOMODE
 70
     0
  9
$REGENMODE
 70
     1
  9
$FILLMODE
 70
     1
  9
$QTEXTMODE
 70
     0
  9
$MIRRTEXT
 70
     1
  9
$DRAGMODE
 70
     2
  9
$LTSCALE
 40
1.0
  9
$OSMODE
 70
    37
  9
$ATTMODE
 70
     1
  9
$TEXTSIZE
 40
0.2
  9
$TRACEWID
 40
0.05
  9
$TEXTSTYLE
  7
STANDARD
  9
$CLAYER
  8
0
  9
$CELTYPE
  6
BYLAYER
  9
$CECOLOR
 62
   256
  9
$DIMSCALE
 40
1.0
  9
$DIMASZ
 40
0.18
  9
$DIMEXO
 40
0.0625
  9
$DIMDLI
 40
0.38
  9
$DIMRND
 40
0.0
  9
$DIMDLE
 40
0.0
  9
$DIMEXE
 40
0.18
  9
$DIMTP
 40
0.0
  9
$DIMTM
 40
0.0
  9
$DIMTXT
 40
0.18
  9
$DIMCEN
 40
0.09
  9
$DIMTSZ
 40
0.0
  9
$DIMTOL
 70
     0
  9
$DIMLIM
 70
     0
  9
$DIMTIH
 70
     1
  9
$DIMTOH
 70
     1
  9
$DIMSE1
 70
     0
  9
$DIMSE2
 70
     0
  9
$DIMTAD
 70
     0
  9
$DIMZIN
 70
     0
  9
$DIMBLK
  1

  9
$DIMASO
 70
     1
  9
$DIMSHO
 70
     1
  9
$DIMPOST
  1

  9
$DIMAPOST
  1

  9
$DIMALT
 70
     0
  9
$DIMALTD
 70
     2
  9
$DIMALTF
 40
25.4
  9
$DIMLFAC
 40
1.0
  9
$DIMTOFL
 70
     0
  9
$DIMTVP
 40
0.0
  9
$DIMTIX
 70
     0
  9
$DIMSOXD
 70
     0
  9
$DIMSAH
 70
     0
  9
$DIMBLK1
  1

  9
$DIMBLK2
  1

  9
$DIMSTYLE
  2
STANDARD
  9
$DIMCLRD
 70
     0
  9
$DIMCLRE
 70
     0
  9
$DIMCLRT
 70
     0
  9
$DIMTFAC
 40
1.0
  9
$DIMGAP
 40
0.09
  9
$LUNITS
 70
     2
  9
$LUPREC
 70
     4
  9
$SKETCHINC
 40
0.1
  9
$FILLETRAD
 40
0.5
  9
$AUNITS
 70
     0
  9
$AUPREC
 70
     0
  9
$MENU
  1
.
  9
$ELEVATION
 40
0.0
  9
$PELEVATION
 40
0.0
  9
$THICKNESS
 40
0.0
  9
$LIMCHECK
 70
     0
  9
$CHAMFERA
 40
0.0
  9
$CHAMFERB
 40
0.0
  9
$SKPOLY
 70
     0
  9
$TDCREATE
 40
2458336.979359942
  9
$TDUPDATE
 40
2458336.979359942
  9
$TDINDWG
 40
0.0000000116
  9
$TDUSRTIMER
 40
0.0000000116
  9
$USRTIMER
 70
     1
  9
$ANGBASE
 50
0.0
  9
$ANGDIR
 70
     0
  9
$PDMODE
 70
     0
  9
$PDSIZE
 40
0.0
  9
$PLINEWID
 40
0.0
  9
$COORDS
 70
     1
  9
$SPLFRAME
 70
     0
  9
$SPLINETYPE
 70
     6
  9
$SPLINESEGS
 70
     8
  9
$ATTDIA
 70
     0
  9
$ATTREQ
 70
     1
  9
$HANDLING
 70
     1
  9
$HANDSEED
  5
C7
  9
$SURFTAB1
 70
     6
  9
$SURFTAB2
 70
     6
  9
$SURFTYPE
 70
     6
  9
$SURFU
 70
     6
  9
$SURFV
 70
     6
  9
$UCSNAME
  2

  9
$UCSORG
 10
0.0
 20
0.0
 30
0.0
  9
$UCSXDIR
 10
1.0
 20
0.0
 30
0.0
  9
$UCSYDIR
 10
0.0
 20
1.0
 30
0.0
  9
$PUCSNAME
  2

  9
$PUCSORG
 10
0.0
 20
0.0
 30
0.0
  9
$PUCSXDIR
 10
1.0
 20
0.0
 30
0.0
  9
$PUCSYDIR
 10
0.0
 20
1.0
 30
0.0
  9
$USERI1
 70
     0
  9
$USERI2
 70
     0
  9
$USERI3
 70
     0
  9
$USERI4
 70
     0
  9
$USERI5
 70
     0
  9
$USERR1
 40
0.0
  9
$USERR2
 40
0.0
  9
$USERR3
 40
0.0
  9
$USERR4
 40
0.0
  9
$USERR5
 40
0.0
  9
$WORLDVIEW
 70
     1
  9
$SHADEDGE
 70
     3
  9
$SHADEDIF
 70
    70
  9
$TILEMODE
 70
     1
  9
$MAXACTVP
 70
    64
  9
$PLIMCHECK
 70
     0
  9
$PEXTMIN
 10
1.000000000000000E+20
 20
1.000000000000000E+20
 30
1.000000000000000E+20
  9
$PEXTMAX
 10
-1.000000000000000E+20
 20
-1.000000000000000E+20
 30
-1.000000000000000E+20
  9
$PLIMMIN
 10
0.0
 20
0.0
  9
$PLIMMAX
 10
12.0
 20
9.0
  9
$UNITMODE
 70
     0
  9
$VISRETAIN
 70
     1
  9
$PLINEGEN
 70
     0
  9
$PSLTSCALE
 70
     1
  0
ENDSEC
  0
SECTION
  2
TABLES
  0
TABLE
  2
VPORT
 70
     1
  0
VPORT
  2
*ACTIVE
 70
     0
 10
0.0
 20
0.0
 11
1.0
 21
1.0
 12
10.42990654205607
 22
4.5
 13
0.0
 23
0.0
 14
0.5
 24
0.5
 15
0.5
 25
0.5
 16
0.0
 26
0.0
 36
1.0
 17
0.0
 27
0.0
 37
0.0
 40
9.0
 41
1.972972972850329
 42
50.0
 43
0.0
 44
0.0
 50
0.0
 51
0.0
 71
     0
 72
   100
 73
     1
 74
     3
 75
     0
 76
     0
 77
     0
 78
     0
  0
ENDTAB
  0
TABLE
  2
LTYPE
 70
     1
  0
LTYPE
  2
CONTINUOUS
 70
     0
  3
Solid line
 72
    65
 73
     0
 40
0.0
  0
ENDTAB
  0
TABLE
  2
LAYER
 70
     2
  0
LAYER
  2
0
 70
     0
 62
     7
  6
CONTINUOUS
  0
LAYER
  2
LAYER_1
 70
     0
 62
     7
  6
CONTINUOUS
  0
ENDTAB
  0
TABLE
  2
STYLE
 70
     1
  0
STYLE
  2
STANDARD
 70
     0
 40
0.0
 41
1.0
 50
0.0
 71
     0
 42
0.2
  3
txt
  4

  0
ENDTAB
  0
TABLE
  2
VIEW
 70
     0
  0
ENDTAB
  0
TABLE
  2
UCS
 70
     0
  0
ENDTAB
  0
TABLE
  2
APPID
 70
     2
  0
APPID
  2
ACAD
 70
     0
  0
APPID
  2
ODA
 70
     0
  0
ENDTAB
  0
TABLE
  2
DIMSTYLE
 70
     1
  0
DIMSTYLE
  2
STANDARD
 70
     0
  3

  4

  5

  6

  7

 40
1.0
 41
0.18
 42
0.0625
 43
0.38
 44
0.18
 45
0.0
 46
0.0
 47
0.0
 48
0.0
140
0.18
141
0.09
142
0.0
143
25.4
144
1.0
145
0.0
146
1.0
147
0.09
 71
     0
 72
     0
 73
     1
 74
     1
 75
     0
 76
     0
 77
     0
 78
     0
170
     0
171
     2
172
     0
173
     0
174
     0
175
     0
176
     0
177
     0
178
     0
  0
ENDTAB
  0
ENDSEC
  0
SECTION
  2
BLOCKS
  0
BLOCK
  8
0
  2
$MODEL_SPACE
 70
     0
 10
0.0
 20
0.0
 30
0.0
  3
$MODEL_SPACE
  1

  0
ENDBLK
  5
21
  8
0
  0
BLOCK
 67
     1
  8
0
  2
$PAPER_SPACE
 70
     0
 10
0.0
 20
0.0
 30
0.0
  3
$PAPER_SPACE
  1

  0
ENDBLK
  5
1D
 67
     1
  8
0
  0
ENDSEC
  0
SECTION
  2
ENTITIES
  0
POLYLINE
  5
6C
  8
LAYER_1
 62
     1
 66
     1
 10
0.0
 20
0.0
 30
0.0
 70
     1
  0
VERTEX
  5
74
  8
LAYER_1
 62
     1
 10
-60.1352
 20
59.1944
 30
0.0
  0
VERTEX
  5
75
  8
LAYER_1
 62
     1
 10
-56.5294
 20
58.9903
 30
0.0
  0
VERTEX
  5
76
  8
LAYER_1
 62
     1
 10
-53.0431
 20
58.3927
 30
0.0
  0
VERTEX
  5
77
  8
LAYER_1
 62
     1
 10
-49.6986
 20
57.4241
 30
0.0
  0
VERTEX
  5
78
  8
LAYER_1
 62
     1
 10
-46.5181
 20
56.1068
 30
0.0
  0
VERTEX
  5
79
  8
LAYER_1
 62
     1
 10
-43.5241
 20
54.4631
 30
0.0
  0
VERTEX
  5
7A
  8
LAYER_1
 62
     1
 10
-40.7388
 20
52.5154
 30
0.0
  0
VERTEX
  5
7B
  8
LAYER_1
 62
     1
 10
-38.1847
 20
50.2859
 30
0.0
  0
VERTEX
  5
7C
  8
LAYER_1
 62
     1
 10
-35.8839
 20
47.7971
 30
0.0
  0
VERTEX
  5
7D
  8
LAYER_1
 62
     1
 10
-32.1857
 20
50.2915
 30
0.0
  0
VERTEX
  5
7E
  8
LAYER_1
 62
     1
 10
-28.8305
 20
45.3173
 30
0.0
  0
VERTEX
  5
7F
  8
LAYER_1
 62
     1
 10
-32.5083
 20
42.8366
 30
0.0
  0
VERTEX
  5
80
  8
LAYER_1
 62
     1
 10
-31.6333
 20
41.121
 30
0.0
  0
VERTEX
  5
81
  8
LAYER_1
 62
     1
 10
-30.8619
 20
39.3468
 30
0.0
  0
VERTEX
  5
82
  8
LAYER_1
 62
     1
 10
-30.1982
 20
37.5181
 30
0.0
  0
VERTEX
  5
83
  8
LAYER_1
 62
     1
 10
-29.6462
 20
35.6387
 30
0.0
  0
VERTEX
  5
84
  8
LAYER_1
 62
     1
 10
-29.2099
 20
33.7127
 30
0.0
  0
VERTEX
  5
85
  8
LAYER_1
 62
     1
 10
-28.8933
 20
31.744
 30
0.0
  0
VERTEX
  5
86
  8
LAYER_1
 62
     1
 10
-28.7004
 20
29.7366
 30
0.0
  0
VERTEX
  5
87
  8
LAYER_1
 62
     1
 10
-28.6352
 20
27.6944
 30
0.0
  0
VERTEX
  5
88
  8
LAYER_1
 62
     1
 10
-28.7316
 20
25.2123
 30
0.0
  0
VERTEX
  5
89
  8
LAYER_1
 62
     1
 10
-29.0161
 20
22.7831
 30
0.0
  0
VERTEX
  5
8A
  8
LAYER_1
 62
     1
 10
-29.4814
 20
20.4139
 30
0.0
  0
VERTEX
  5
8B
  8
LAYER_1
 62
     1
 10
-30.1203
 20
18.1118
 30
0.0
  0
VERTEX
  5
8C
  8
LAYER_1
 62
     1
 10
-30.9256
 20
15.884
 30
0.0
  0
VERTEX
  5
8D
  8
LAYER_1
 62
     1
 10
-31.8901
 20
13.7377
 30
0.0
  0
VERTEX
  5
8E
  8
LAYER_1
 62
     1
 10
-33.0065
 20
11.6799
 30
0.0
  0
VERTEX
  5
8F
  8
LAYER_1
 62
     1
 10
-34.2676
 20
9.7179
 30
0.0
  0
VERTEX
  5
90
  8
LAYER_1
 62
     1
 10
-32.2052
 20
4.8554
 30
0.0
  0
VERTEX
  5
91
  8
LAYER_1
 62
     1
 10
-32.2052
 20
-10.7264
 30
0.0
  0
VERTEX
  5
92
  8
LAYER_1
 62
     1
 10
-27.9593
 20
-7.2437
 30
0.0
  0
VERTEX
  5
93
  8
LAYER_1
 62
     1
 10
-24.1441
 20
-3.3007
 30
0.0
  0
VERTEX
  5
94
  8
LAYER_1
 62
     1
 10
-20.8013
 20
1.061
 30
0.0
  0
VERTEX
  5
95
  8
LAYER_1
 62
     1
 10
-17.9728
 20
5.7999
 30
0.0
  0
VERTEX
  5
96
  8
LAYER_1
 62
     1
 10
-15.7002
 20
10.8743
 30
0.0
  0
VERTEX
  5
97
  8
LAYER_1
 62
     1
 10
-14.0252
 20
16.2426
 30
0.0
  0
VERTEX
  5
98
  8
LAYER_1
 62
     1
 10
-12.9897
 20
21.8632
 30
0.0
  0
VERTEX
  5
99
  8
LAYER_1
 62
     1
 10
-12.6352
 20
27.6944
 30
0.0
  0
VERTEX
  5
9A
  8
LAYER_1
 62
     1
 10
-13.6002
 20
37.2673
 30
0.0
  0
VERTEX
  5
9B
  8
LAYER_1
 62
     1
 10
-16.368
 20
46.1835
 30
0.0
  0
VERTEX
  5
9C
  8
LAYER_1
 62
     1
 10
-20.7475
 20
54.2521
 30
0.0
  0
VERTEX
  5
9D
  8
LAYER_1
 62
     1
 10
-26.5476
 20
61.282
 30
0.0
  0
VERTEX
  5
9E
  8
LAYER_1
 62
     1
 10
-33.5775
 20
67.0821
 30
0.0
  0
VERTEX
  5
9F
  8
LAYER_1
 62
     1
 10
-41.6461
 20
71.4616
 30
0.0
  0
VERTEX
  5
A0
  8
LAYER_1
 62
     1
 10
-50.5623
 20
74.2294
 30
0.0
  0
VERTEX
  5
A1
  8
LAYER_1
 62
     1
 10
-60.1352
 20
75.1944
 30
0.0
  0
VERTEX
  5
A2
  8
LAYER_1
 62
     1
 10
-69.7081
 20
74.2294
 30
0.0
  0
VERTEX
  5
A3
  8
LAYER_1
 62
     1
 10
-78.6243
 20
71.4616
 30
0.0
  0
VERTEX
  5
A4
  8
LAYER_1
 62
     1
 10
-86.6929
 20
67.0821
 30
0.0
  0
VERTEX
  5
A5
  8
LAYER_1
 62
     1
 10
-93.7228
 20
61.282
 30
0.0
  0
VERTEX
  5
A6
  8
LAYER_1
 62
     1
 10
-99.5229
 20
54.2521
 30
0.0
  0
VERTEX
  5
A7
  8
LAYER_1
 62
     1
 10
-103.9024
 20
46.1835
 30
0.0
  0
VERTEX
  5
A8
  8
LAYER_1
 62
     1
 10
-106.6702
 20
37.2673
 30
0.0
  0
VERTEX
  5
A9
  8
LAYER_1
 62
     1
 10
-107.6352
 20
27.6944
 30
0.0
  0
VERTEX
  5
AA
  8
LAYER_1
 62
     1
 10
-107.2775
 20
21.8365
 30
0.0
  0
VERTEX
  5
AB
  8
LAYER_1
 62
     1
 10
-106.2325
 20
16.1915
 30
0.0
  0
VERTEX
  5
AC
  8
LAYER_1
 62
     1
 10
-104.5426
 20
10.8014
 30
0.0
  0
VERTEX
  5
AD
  8
LAYER_1
 62
     1
 10
-102.2501
 20
5.7085
 30
0.0
  0
VERTEX
  5
AE
  8
LAYER_1
 62
     1
 10
-99.3973
 20
0.955
 30
0.0
  0
VERTEX
  5
AF
  8
LAYER_1
 62
     1
 10
-96.0265
 20
-3.4169
 30
0.0
  0
VERTEX
  5
B0
  8
LAYER_1
 62
     1
 10
-92.1799
 20
-7.3649
 30
0.0
  0
VERTEX
  5
B1
  8
LAYER_1
 62
     1
 10
-87.9
 20
-10.8469
 30
0.0
  0
VERTEX
  5
B2
  8
LAYER_1
 62
     1
 10
-87.9
 20
3.0429
 30
0.0
  0
VERTEX
  5
B3
  8
LAYER_1
 62
     1
 10
-85.5201
 20
9.0432
 30
0.0
  0
VERTEX
  5
B4
  8
LAYER_1
 62
     1
 10
-86.8862
 20
11.0575
 30
0.0
  0
VERTEX
  5
B5
  8
LAYER_1
 62
     1
 10
-88.0969
 20
13.1787
 30
0.0
  0
VERTEX
  5
B6
  8
LAYER_1
 62
     1
 10
-89.1438
 20
15.3986
 30
0.0
  0
VERTEX
  5
B7
  8
LAYER_1
 62
     1
 10
-90.0188
 20
17.7092
 30
0.0
  0
VERTEX
  5
B8
  8
LAYER_1
 62
     1
 10
-90.7136
 20
20.1022
 30
0.0
  0
VERTEX
  5
B9
  8
LAYER_1
 62
     1
 10
-91.2201
 20
22.5695
 30
0.0
  0
VERTEX
  5
BA
  8
LAYER_1
 62
     1
 10
-91.5301
 20
25.103
 30
0.0
  0
VERTEX
  5
BB
  8
LAYER_1
 62
     1
 10
-91.6352
 20
27.6944
 30
0.0
  0
VERTEX
  5
BC
  8
LAYER_1
 62
     1
 10
-90.9952
 20
34.0428
 30
0.0
  0
VERTEX
  5
BD
  8
LAYER_1
 62
     1
 10
-89.1598
 20
39.9556
 30
0.0
  0
VERTEX
  5
BE
  8
LAYER_1
 62
     1
 10
-86.2555
 20
45.3064
 30
0.0
  0
VERTEX
  5
BF
  8
LAYER_1
 62
     1
 10
-82.4091
 20
49.9683
 30
0.0
  0
VERTEX
  5
C0
  8
LAYER_1
 62
     1
 10
-77.7472
 20
53.8147
 30
0.0
  0
VERTEX
  5
C1
  8
LAYER_1
 62
     1
 10
-72.3964
 20
56.719
 30
0.0
  0
VERTEX
  5
C2
  8
LAYER_1
 62
     1
 10
-66.4836
 20
58.5544
 30
0.0
  0
VERTEX
  5
C3
  8
LAYER_1
 62
     1
 10
-60.1352
 20
59.1944
 30
0.0
  0
SEQEND
  5
C6
  8
LAYER_1
 62
     1
  0
ENDSEC
  0
EOF
