  0
SECTION
  2
HEADER
  9
$ACADVER
  1
AC1009
  9
$DWGCODEPAGE
  3
ansi_1252
  9
$INSBASE
 10
0.0
 20
0.0
 30
0.0
  9
$EXTMIN
 10
-39.7196
 20
6.0359
 30
0.0
  9
$EXTMAX
 10
45.2478
 20
34.2859
 30
0.0
  9
$LIMMIN
 10
0.0
 20
0.0
  9
$LIMMAX
 10
12.0
 20
9.0
  9
$ORTHOMODE
 70
     0
  9
$REGENMODE
 70
     1
  9
$FILLMODE
 70
     1
  9
$QTEXTMODE
 70
     0
  9
$MIRRTEXT
 70
     1
  9
$DRAGMODE
 70
     2
  9
$LTSCALE
 40
1.0
  9
$OSMODE
 70
    37
  9
$ATTMODE
 70
     1
  9
$TEXTSIZE
 40
0.2
  9
$TRACEWID
 40
0.05
  9
$TEXTSTYLE
  7
STANDARD
  9
$CLAYER
  8
0
  9
$CELTYPE
  6
BYLAYER
  9
$CECOLOR
 62
   256
  9
$DIMSCALE
 40
1.0
  9
$DIMASZ
 40
0.18
  9
$DIMEXO
 40
0.0625
  9
$DIMDLI
 40
0.38
  9
$DIMRND
 40
0.0
  9
$DIMDLE
 40
0.0
  9
$DIMEXE
 40
0.18
  9
$DIMTP
 40
0.0
  9
$DIMTM
 40
0.0
  9
$DIMTXT
 40
0.18
  9
$DIMCEN
 40
0.09
  9
$DIMTSZ
 40
0.0
  9
$DIMTOL
 70
     0
  9
$DIMLIM
 70
     0
  9
$DIMTIH
 70
     1
  9
$DIMTOH
 70
     1
  9
$DIMSE1
 70
     0
  9
$DIMSE2
 70
     0
  9
$DIMTAD
 70
     0
  9
$DIMZIN
 70
     0
  9
$DIMBLK
  1

  9
$DIMASO
 70
     1
  9
$DIMSHO
 70
     1
  9
$DIMPOST
  1

  9
$DIMAPOST
  1

  9
$DIMALT
 70
     0
  9
$DIMALTD
 70
     2
  9
$DIMALTF
 40
25.4
  9
$DIMLFAC
 40
1.0
  9
$DIMTOFL
 70
     0
  9
$DIMTVP
 40
0.0
  9
$DIMTIX
 70
     0
  9
$DIMSOXD
 70
     0
  9
$DIMSAH
 70
     0
  9
$DIMBLK1
  1

  9
$DIMBLK2
  1

  9
$DIMSTYLE
  2
STANDARD
  9
$DIMCLRD
 70
     0
  9
$DIMCLRE
 70
     0
  9
$DIMCLRT
 70
     0
  9
$DIMTFAC
 40
1.0
  9
$DIMGAP
 40
0.09
  9
$LUNITS
 70
     2
  9
$LUPREC
 70
     4
  9
$SKETCHINC
 40
0.1
  9
$FILLETRAD
 40
0.5
  9
$AUNITS
 70
     0
  9
$AUPREC
 70
     0
  9
$MENU
  1
.
  9
$ELEVATION
 40
0.0
  9
$PELEVATION
 40
0.0
  9
$THICKNESS
 40
0.0
  9
$LIMCHECK
 70
     0
  9
$CHAMFERA
 40
0.0
  9
$CHAMFERB
 40
0.0
  9
$SKPOLY
 70
     0
  9
$TDCREATE
 40
2458280.710410579
  9
$TDUPDATE
 40
2458280.710410602
  9
$TDINDWG
 40
0.0000000116
  9
$TDUSRTIMER
 40
0.0000000116
  9
$USRTIMER
 70
     1
  9
$ANGBASE
 50
0.0
  9
$ANGDIR
 70
     0
  9
$PDMODE
 70
     0
  9
$PDSIZE
 40
0.0
  9
$PLINEWID
 40
0.0
  9
$COORDS
 70
     1
  9
$SPLFRAME
 70
     0
  9
$SPLINETYPE
 70
     6
  9
$SPLINESEGS
 70
     8
  9
$ATTDIA
 70
     0
  9
$ATTREQ
 70
     1
  9
$HANDLING
 70
     1
  9
$HANDSEED
  5
F2
  9
$SURFTAB1
 70
     6
  9
$SURFTAB2
 70
     6
  9
$SURFTYPE
 70
     6
  9
$SURFU
 70
     6
  9
$SURFV
 70
     6
  9
$UCSNAME
  2

  9
$UCSORG
 10
0.0
 20
0.0
 30
0.0
  9
$UCSXDIR
 10
1.0
 20
0.0
 30
0.0
  9
$UCSYDIR
 10
0.0
 20
1.0
 30
0.0
  9
$PUCSNAME
  2

  9
$PUCSORG
 10
0.0
 20
0.0
 30
0.0
  9
$PUCSXDIR
 10
1.0
 20
0.0
 30
0.0
  9
$PUCSYDIR
 10
0.0
 20
1.0
 30
0.0
  9
$USERI1
 70
     0
  9
$USERI2
 70
     0
  9
$USERI3
 70
     0
  9
$USERI4
 70
     0
  9
$USERI5
 70
     0
  9
$USERR1
 40
0.0
  9
$USERR2
 40
0.0
  9
$USERR3
 40
0.0
  9
$USERR4
 40
0.0
  9
$USERR5
 40
0.0
  9
$WORLDVIEW
 70
     1
  9
$SHADEDGE
 70
     3
  9
$SHADEDIF
 70
    70
  9
$TILEMODE
 70
     1
  9
$MAXACTVP
 70
    64
  9
$PLIMCHECK
 70
     0
  9
$PEXTMIN
 10
1.000000000000000E+20
 20
1.000000000000000E+20
 30
1.000000000000000E+20
  9
$PEXTMAX
 10
-1.000000000000000E+20
 20
-1.000000000000000E+20
 30
-1.000000000000000E+20
  9
$PLIMMIN
 10
0.0
 20
0.0
  9
$PLIMMAX
 10
12.0
 20
9.0
  9
$UNITMODE
 70
     0
  9
$VISRETAIN
 70
     1
  9
$PLINEGEN
 70
     0
  9
$PSLTSCALE
 70
     1
  0
ENDSEC
  0
SECTION
  2
TABLES
  0
TABLE
  2
VPORT
 70
     1
  0
VPORT
  2
*ACTIVE
 70
     0
 10
0.0
 20
0.0
 11
1.0
 21
1.0
 12
10.42990654205607
 22
4.5
 13
0.0
 23
0.0
 14
0.5
 24
0.5
 15
0.5
 25
0.5
 16
0.0
 26
0.0
 36
1.0
 17
0.0
 27
0.0
 37
0.0
 40
9.0
 41
1.972972972850329
 42
50.0
 43
0.0
 44
0.0
 50
0.0
 51
0.0
 71
     0
 72
   100
 73
     1
 74
     3
 75
     0
 76
     0
 77
     0
 78
     0
  0
ENDTAB
  0
TABLE
  2
LTYPE
 70
     1
  0
LTYPE
  2
CONTINUOUS
 70
     0
  3
Solid line
 72
    65
 73
     0
 40
0.0
  0
ENDTAB
  0
TABLE
  2
LAYER
 70
     2
  0
LAYER
  2
0
 70
     0
 62
     7
  6
CONTINUOUS
  0
LAYER
  2
LAYER_1
 70
     0
 62
     7
  6
CONTINUOUS
  0
ENDTAB
  0
TABLE
  2
STYLE
 70
     1
  0
STYLE
  2
STANDARD
 70
     0
 40
0.0
 41
1.0
 50
0.0
 71
     0
 42
0.2
  3
txt
  4

  0
ENDTAB
  0
TABLE
  2
VIEW
 70
     0
  0
ENDTAB
  0
TABLE
  2
UCS
 70
     0
  0
ENDTAB
  0
TABLE
  2
APPID
 70
     2
  0
APPID
  2
ACAD
 70
     0
  0
APPID
  2
ODA
 70
     0
  0
ENDTAB
  0
TABLE
  2
DIMSTYLE
 70
     1
  0
DIMSTYLE
  2
STANDARD
 70
     0
  3

  4

  5

  6

  7

 40
1.0
 41
0.18
 42
0.0625
 43
0.38
 44
0.18
 45
0.0
 46
0.0
 47
0.0
 48
0.0
140
0.18
141
0.09
142
0.0
143
25.4
144
1.0
145
0.0
146
1.0
147
0.09
 71
     0
 72
     0
 73
     1
 74
     1
 75
     0
 76
     0
 77
     0
 78
     0
170
     0
171
     2
172
     0
173
     0
174
     0
175
     0
176
     0
177
     0
178
     0
  0
ENDTAB
  0
ENDSEC
  0
SECTION
  2
BLOCKS
  0
BLOCK
  8
0
  2
$MODEL_SPACE
 70
     0
 10
0.0
 20
0.0
 30
0.0
  3
$MODEL_SPACE
  1

  0
ENDBLK
  5
21
  8
0
  0
BLOCK
 67
     1
  8
0
  2
$PAPER_SPACE
 70
     0
 10
0.0
 20
0.0
 30
0.0
  3
$PAPER_SPACE
  1

  0
ENDBLK
  5
1D
 67
     1
  8
0
  0
ENDSEC
  0
SECTION
  2
ENTITIES
  0
POLYLINE
  5
6C
  8
LAYER_1
 66
     1
 10
0.0
 20
0.0
 30
0.0
 70
     1
  0
VERTEX
  5
7C
  8
LAYER_1
 10
33.097
 20
6.1611
 30
0.0
  0
VERTEX
  5
7D
  8
LAYER_1
 10
40.1097
 20
6.1609
 30
0.0
  0
VERTEX
  5
7E
  8
LAYER_1
 10
45.1097
 20
25.421
 30
0.0
  0
VERTEX
  5
7F
  8
LAYER_1
 10
43.1625
 20
27.4002
 30
0.0
  0
VERTEX
  5
80
  8
LAYER_1
 10
41.1766
 20
29.143
 30
0.0
  0
VERTEX
  5
81
  8
LAYER_1
 10
39.1301
 20
30.6409
 30
0.0
  0
VERTEX
  5
82
  8
LAYER_1
 10
37.0012
 20
31.8855
 30
0.0
  0
VERTEX
  5
83
  8
LAYER_1
 10
34.7679
 20
32.8683
 30
0.0
  0
VERTEX
  5
84
  8
LAYER_1
 10
32.4085
 20
33.5807
 30
0.0
  0
VERTEX
  5
85
  8
LAYER_1
 10
29.9009
 20
34.0144
 30
0.0
  0
VERTEX
  5
86
  8
LAYER_1
 10
27.2233
 20
34.1609
 30
0.0
  0
VERTEX
  5
87
  8
LAYER_1
 10
-21.6959
 20
34.1609
 30
0.0
  0
VERTEX
  5
88
  8
LAYER_1
 10
-24.3735
 20
34.0144
 30
0.0
  0
VERTEX
  5
89
  8
LAYER_1
 10
-26.8811
 20
33.5807
 30
0.0
  0
VERTEX
  5
8A
  8
LAYER_1
 10
-29.2405
 20
32.8683
 30
0.0
  0
VERTEX
  5
8B
  8
LAYER_1
 10
-31.4738
 20
31.8855
 30
0.0
  0
VERTEX
  5
8C
  8
LAYER_1
 10
-33.6027
 20
30.6409
 30
0.0
  0
VERTEX
  5
8D
  8
LAYER_1
 10
-35.6492
 20
29.143
 30
0.0
  0
VERTEX
  5
8E
  8
LAYER_1
 10
-37.6351
 20
27.4002
 30
0.0
  0
VERTEX
  5
8F
  8
LAYER_1
 10
-39.5823
 20
25.421
 30
0.0
  0
VERTEX
  5
90
  8
LAYER_1
 10
-34.8903
 20
6.1609
 30
0.0
  0
VERTEX
  5
91
  8
LAYER_1
 10
-27.8896
 20
6.1609
 30
0.0
  0
VERTEX
  5
92
  8
LAYER_1
 10
-28.0067
 20
6.5158
 30
0.0
  0
VERTEX
  5
93
  8
LAYER_1
 10
-28.1093
 20
6.877
 30
0.0
  0
VERTEX
  5
94
  8
LAYER_1
 10
-28.1971
 20
7.2443
 30
0.0
  0
VERTEX
  5
95
  8
LAYER_1
 10
-28.2697
 20
7.6171
 30
0.0
  0
VERTEX
  5
96
  8
LAYER_1
 10
-28.3268
 20
7.9953
 30
0.0
  0
VERTEX
  5
97
  8
LAYER_1
 10
-28.3681
 20
8.3785
 30
0.0
  0
VERTEX
  5
98
  8
LAYER_1
 10
-28.3931
 20
8.7663
 30
0.0
  0
VERTEX
  5
99
  8
LAYER_1
 10
-28.4015
 20
9.1584
 30
0.0
  0
VERTEX
  5
9A
  8
LAYER_1
 10
-28.2187
 20
10.9722
 30
0.0
  0
VERTEX
  5
9B
  8
LAYER_1
 10
-27.6942
 20
12.6616
 30
0.0
  0
VERTEX
  5
9C
  8
LAYER_1
 10
-26.8645
 20
14.1904
 30
0.0
  0
VERTEX
  5
9D
  8
LAYER_1
 10
-25.7655
 20
15.5224
 30
0.0
  0
VERTEX
  5
9E
  8
LAYER_1
 10
-24.4335
 20
16.6214
 30
0.0
  0
VERTEX
  5
9F
  8
LAYER_1
 10
-22.9047
 20
17.4511
 30
0.0
  0
VERTEX
  5
A0
  8
LAYER_1
 10
-21.2153
 20
17.9756
 30
0.0
  0
VERTEX
  5
A1
  8
LAYER_1
 10
-19.4015
 20
18.1584
 30
0.0
  0
VERTEX
  5
A2
  8
LAYER_1
 10
-17.5877
 20
17.9756
 30
0.0
  0
VERTEX
  5
A3
  8
LAYER_1
 10
-15.8983
 20
17.4511
 30
0.0
  0
VERTEX
  5
A4
  8
LAYER_1
 10
-14.3695
 20
16.6214
 30
0.0
  0
VERTEX
  5
A5
  8
LAYER_1
 10
-13.0375
 20
15.5224
 30
0.0
  0
VERTEX
  5
A6
  8
LAYER_1
 10
-11.9385
 20
14.1904
 30
0.0
  0
VERTEX
  5
A7
  8
LAYER_1
 10
-11.1088
 20
12.6616
 30
0.0
  0
VERTEX
  5
A8
  8
LAYER_1
 10
-10.5843
 20
10.9722
 30
0.0
  0
VERTEX
  5
A9
  8
LAYER_1
 10
-10.4015
 20
9.1584
 30
0.0
  0
VERTEX
  5
AA
  8
LAYER_1
 10
-10.4099
 20
8.7663
 30
0.0
  0
VERTEX
  5
AB
  8
LAYER_1
 10
-10.4349
 20
8.3785
 30
0.0
  0
VERTEX
  5
AC
  8
LAYER_1
 10
-10.4762
 20
7.9953
 30
0.0
  0
VERTEX
  5
AD
  8
LAYER_1
 10
-10.5333
 20
7.6172
 30
0.0
  0
VERTEX
  5
AE
  8
LAYER_1
 10
-10.6059
 20
7.2443
 30
0.0
  0
VERTEX
  5
AF
  8
LAYER_1
 10
-10.6937
 20
6.8771
 30
0.0
  0
VERTEX
  5
B0
  8
LAYER_1
 10
-10.7963
 20
6.5159
 30
0.0
  0
VERTEX
  5
B1
  8
LAYER_1
 10
-10.9134
 20
6.161
 30
0.0
  0
VERTEX
  5
B2
  8
LAYER_1
 10
0.6127
 20
6.1611
 30
0.0
  0
VERTEX
  5
B3
  8
LAYER_1
 10
0.6097
 20
13.1609
 30
0.0
  0
VERTEX
  5
B4
  8
LAYER_1
 10
4.6097
 20
13.1609
 30
0.0
  0
VERTEX
  5
B5
  8
LAYER_1
 10
4.6146
 20
6.1611
 30
0.0
  0
VERTEX
  5
B6
  8
LAYER_1
 10
16.1224
 20
6.1613
 30
0.0
  0
VERTEX
  5
B7
  8
LAYER_1
 10
16.0051
 20
6.5164
 30
0.0
  0
VERTEX
  5
B8
  8
LAYER_1
 10
15.9024
 20
6.8779
 30
0.0
  0
VERTEX
  5
B9
  8
LAYER_1
 10
15.8144
 20
7.2454
 30
0.0
  0
VERTEX
  5
BA
  8
LAYER_1
 10
15.7417
 20
7.6185
 30
0.0
  0
VERTEX
  5
BB
  8
LAYER_1
 10
15.6845
 20
7.997
 30
0.0
  0
VERTEX
  5
BC
  8
LAYER_1
 10
15.6432
 20
8.3804
 30
0.0
  0
VERTEX
  5
BD
  8
LAYER_1
 10
15.6181
 20
8.7685
 30
0.0
  0
VERTEX
  5
BE
  8
LAYER_1
 10
15.6097
 20
9.1609
 30
0.0
  0
VERTEX
  5
BF
  8
LAYER_1
 10
15.7925
 20
10.9747
 30
0.0
  0
VERTEX
  5
C0
  8
LAYER_1
 10
16.317
 20
12.6641
 30
0.0
  0
VERTEX
  5
C1
  8
LAYER_1
 10
17.1467
 20
14.1929
 30
0.0
  0
VERTEX
  5
C2
  8
LAYER_1
 10
18.2457
 20
15.5249
 30
0.0
  0
VERTEX
  5
C3
  8
LAYER_1
 10
19.5777
 20
16.6239
 30
0.0
  0
VERTEX
  5
C4
  8
LAYER_1
 10
21.1065
 20
17.4536
 30
0.0
  0
VERTEX
  5
C5
  8
LAYER_1
 10
22.7959
 20
17.9781
 30
0.0
  0
VERTEX
  5
C6
  8
LAYER_1
 10
24.6097
 20
18.1609
 30
0.0
  0
VERTEX
  5
C7
  8
LAYER_1
 10
26.4235
 20
17.9781
 30
0.0
  0
VERTEX
  5
C8
  8
LAYER_1
 10
28.1129
 20
17.4536
 30
0.0
  0
VERTEX
  5
C9
  8
LAYER_1
 10
29.6417
 20
16.6239
 30
0.0
  0
VERTEX
  5
CA
  8
LAYER_1
 10
30.9737
 20
15.5249
 30
0.0
  0
VERTEX
  5
CB
  8
LAYER_1
 10
32.0727
 20
14.1929
 30
0.0
  0
VERTEX
  5
CC
  8
LAYER_1
 10
32.9024
 20
12.6641
 30
0.0
  0
VERTEX
  5
CD
  8
LAYER_1
 10
33.4269
 20
10.9747
 30
0.0
  0
VERTEX
  5
CE
  8
LAYER_1
 10
33.6097
 20
9.1609
 30
0.0
  0
VERTEX
  5
CF
  8
LAYER_1
 10
33.6013
 20
8.7685
 30
0.0
  0
VERTEX
  5
D0
  8
LAYER_1
 10
33.5762
 20
8.3804
 30
0.0
  0
VERTEX
  5
D1
  8
LAYER_1
 10
33.5349
 20
7.9969
 30
0.0
  0
VERTEX
  5
D2
  8
LAYER_1
 10
33.4777
 20
7.6184
 30
0.0
  0
VERTEX
  5
D3
  8
LAYER_1
 10
33.4049
 20
7.2453
 30
0.0
  0
VERTEX
  5
D4
  8
LAYER_1
 10
33.317
 20
6.8778
 30
0.0
  0
VERTEX
  5
D5
  8
LAYER_1
 10
33.2142
 20
6.5163
 30
0.0
  0
VERTEX
  5
D6
  8
LAYER_1
 10
33.097
 20
6.1611
 30
0.0
  0
SEQEND
  5
E9
  8
LAYER_1
  0
POLYLINE
  5
6D
  8
LAYER_1
 66
     1
 10
0.0
 20
0.0
 30
0.0
  0
VERTEX
  5
D7
  8
LAYER_1
 10
-29.3937
 20
19.161
 30
0.0
  0
VERTEX
  5
D8
  8
LAYER_1
 10
-27.3871
 20
19.161
 30
0.0
  0
SEQEND
  5
EA
  8
LAYER_1
  0
POLYLINE
  5
6E
  8
LAYER_1
 66
     1
 10
0.0
 20
0.0
 30
0.0
  0
VERTEX
  5
D9
  8
LAYER_1
 10
-28.3903
 20
18.1576
 30
0.0
  0
VERTEX
  5
DA
  8
LAYER_1
 10
-28.3903
 20
20.1642
 30
0.0
  0
SEQEND
  5
EB
  8
LAYER_1
  0
POLYLINE
  5
6F
  8
LAYER_1
 66
     1
 10
0.0
 20
0.0
 30
0.0
  0
VERTEX
  5
DB
  8
LAYER_1
 10
-11.3937
 20
19.161
 30
0.0
  0
VERTEX
  5
DC
  8
LAYER_1
 10
-9.3871
 20
19.161
 30
0.0
  0
SEQEND
  5
EC
  8
LAYER_1
  0
POLYLINE
  5
70
  8
LAYER_1
 66
     1
 10
0.0
 20
0.0
 30
0.0
  0
VERTEX
  5
DD
  8
LAYER_1
 10
-10.3903
 20
18.1576
 30
0.0
  0
VERTEX
  5
DE
  8
LAYER_1
 10
-10.3903
 20
20.1642
 30
0.0
  0
SEQEND
  5
ED
  8
LAYER_1
  0
POLYLINE
  5
71
  8
LAYER_1
 66
     1
 10
0.0
 20
0.0
 30
0.0
  0
VERTEX
  5
DF
  8
LAYER_1
 10
14.6065
 20
19.161
 30
0.0
  0
VERTEX
  5
E0
  8
LAYER_1
 10
16.6131
 20
19.161
 30
0.0
  0
SEQEND
  5
EE
  8
LAYER_1
  0
POLYLINE
  5
72
  8
LAYER_1
 66
     1
 10
0.0
 20
0.0
 30
0.0
  0
VERTEX
  5
E1
  8
LAYER_1
 10
15.6099
 20
18.1576
 30
0.0
  0
VERTEX
  5
E2
  8
LAYER_1
 10
15.6099
 20
20.1642
 30
0.0
  0
SEQEND
  5
EF
  8
LAYER_1
  0
POLYLINE
  5
73
  8
LAYER_1
 66
     1
 10
0.0
 20
0.0
 30
0.0
  0
VERTEX
  5
E3
  8
LAYER_1
 10
32.6032
 20
19.161
 30
0.0
  0
VERTEX
  5
E4
  8
LAYER_1
 10
34.6098
 20
19.161
 30
0.0
  0
SEQEND
  5
F0
  8
LAYER_1
  0
POLYLINE
  5
74
  8
LAYER_1
 66
     1
 10
0.0
 20
0.0
 30
0.0
  0
VERTEX
  5
E5
  8
LAYER_1
 10
33.6066
 20
18.1576
 30
0.0
  0
VERTEX
  5
E6
  8
LAYER_1
 10
33.6066
 20
20.1642
 30
0.0
  0
SEQEND
  5
F1
  8
LAYER_1
  0
ENDSEC
  0
EOF
